<svg width="163" height="147" viewBox="0 0 163 147" fill="none" xmlns="http://www.w3.org/2000/svg">
<g clip-path="url(#clip0_4224_24478)">
<path d="M144.029 103.089C139.813 103.161 135.899 103.233 131.984 103.293C129.191 103.338 126.394 103.429 123.604 103.373C122.588 103.355 122.083 103.737 121.633 104.583C118.438 110.595 115.222 116.592 111.941 122.559C111.761 122.839 111.525 123.078 111.248 123.263C110.971 123.447 110.658 123.572 110.331 123.63C95.5378 125.197 80.7424 126.735 65.9443 128.244C65.4406 128.319 64.9268 128.293 64.4335 128.166C63.9402 128.039 63.4776 127.814 63.0732 127.504C51.3518 118.788 39.6083 110.099 27.8426 101.439C27.1182 100.905 26.9277 100.428 27.0616 99.5388C28.2007 92.0436 29.2486 84.5333 30.4009 77.0415C30.5727 75.9076 30.3164 75.2622 29.3251 74.6234C24.1693 71.3023 19.0653 67.8995 13.9486 64.5241C13.5011 64.2297 13.0735 63.9124 12.4104 63.4449L35.1335 47.3441L26.7021 33.0675C28.8359 33.1387 30.7931 33.1896 32.7487 33.2681C49.9586 33.9707 67.1694 34.6624 84.3811 35.3431C85.3425 35.381 85.8928 35.7326 86.383 36.5782C88.8816 40.8602 91.4599 45.1152 94.0494 49.4682C98.5818 48.1704 103.224 47.0101 107.743 45.4847C110.196 44.6531 112.029 44.9798 114.188 46.4066C126.723 54.6739 139.353 62.7893 151.958 70.971C152.404 71.2594 152.825 71.5918 153.561 72.123L135.915 78.4885L144.029 103.089ZM13.7642 63.3935C14.1204 63.6728 14.3176 63.8524 14.5348 63.9979C29.5845 73.9318 44.6306 83.8722 59.6732 93.8192C60.4216 94.3143 60.8525 94.2603 61.494 93.6391C66.1638 89.1246 70.8728 84.6538 75.5734 80.1725C77.5888 78.2485 79.6133 76.3325 81.7372 74.3134C81.2215 74.0014 80.8544 73.7641 80.476 73.549L58.1295 60.8591C50.9984 56.808 43.8586 52.7686 36.7421 48.6933C35.8597 48.1861 35.2031 48.0841 34.3401 48.8049C33.0982 49.8451 31.7012 50.6941 30.3759 51.6344C24.8863 55.5067 19.4065 59.3843 13.7642 63.3935ZM142.874 102.349C142.8 101.949 142.789 101.767 142.735 101.605C140.326 94.2283 137.92 86.8524 135.518 79.4775C135.239 78.6164 134.645 78.62 133.948 78.5663C119.742 77.4791 105.536 76.3824 91.3292 75.2763C88.61 75.0655 85.8895 74.8711 83.0553 74.6614C83.1703 75.3011 83.2361 75.7407 83.3349 76.1719C85.2886 84.6543 87.2819 93.1245 89.1619 101.621C89.4547 102.951 90.0084 103.191 91.2312 103.17C105.071 102.932 118.909 102.724 132.745 102.546C136.066 102.495 139.397 102.416 142.869 102.347L142.874 102.349ZM74.3344 96.343L73.7624 96.1732C73.6879 96.7416 73.5613 97.302 73.3843 97.8473C73.112 98.3781 72.7943 98.8843 72.4347 99.3602L72.0532 99.1248C72.2494 98.5373 72.3304 97.8752 72.658 97.3747C74.2564 94.9403 73.8608 92.0873 73.9545 89.4863C74.0142 87.8533 74.3527 86.9414 75.4889 85.9859C76.1727 85.4065 76.631 84.5618 77.193 83.8362L76.8466 83.5623C76.6695 83.6742 76.5027 83.8017 76.3482 83.9432C73.2214 87.3132 70.0894 90.6818 66.9802 94.0703C65.6803 95.4873 65.7065 95.5053 64.2763 94.3C63.911 93.9904 63.5173 93.7154 63.1081 93.4029C62.2434 94.2604 61.0871 94.7293 61.693 96.3099C62.0258 97.1905 61.0511 97.9973 60.0481 97.8928C59.5549 97.8412 59.0665 97.749 58.5732 97.6974C57.6595 97.6048 57.2446 97.0753 57.4631 96.2164C57.647 95.5026 58.0252 94.8387 58.3514 94.072C51.6398 89.642 44.7855 85.1249 37.9458 80.5836C37.3361 80.1802 36.9713 80.3577 36.4094 80.7027C36.0113 80.9443 35.3164 80.8716 34.8199 80.7241C34.5259 80.6484 34.1099 80.0038 34.1933 79.8322C34.4108 79.3789 34.8747 79.045 35.1356 78.7708L31.3199 76.2009C31.0252 78.1595 30.7786 79.8228 30.5181 81.4852L30.9019 81.321C31.1756 81.7358 31.6316 82.1276 31.683 82.569C31.7638 83.2223 31.5564 83.9077 31.472 84.5828L31.0214 84.5283C30.9065 84.0621 30.7882 83.5979 30.5915 82.7971C30.4547 83.06 30.3393 83.3335 30.2465 83.615C29.4392 88.9204 28.632 94.2258 27.9108 99.5449C27.8525 99.9777 28.2803 100.631 28.6692 100.947C30.1651 102.184 31.723 103.345 33.3368 104.424C38.8792 108.016 43.3757 113.168 49.7712 115.49C51.6436 116.174 53.5341 117.179 55.1726 115.099C56.7091 115.968 56.9117 115.953 58.328 115.073C58.7406 114.818 59.2237 114.464 59.6521 114.485C62.4838 114.671 63.7509 112.784 64.7477 110.642C65.0535 109.988 65.3126 109.786 65.9977 109.756C67.2918 109.697 67.9104 108.958 67.8384 107.63C67.7874 106.688 68.0883 106.149 69.0406 105.81C69.7372 105.514 70.3586 105.066 70.859 104.498C72.4618 102.818 73.0986 100.64 73.7721 98.493C73.9933 97.7971 74.1491 97.0621 74.3344 96.343ZM81.4477 80.3902L80.9726 80.2678L73.5744 102.301C75.094 102.693 74.347 103.648 74.2575 104.484C74.1346 105.525 74.0842 106.574 74.1067 107.622C74.1595 108.296 74.2802 108.962 74.4671 109.612C75.2504 112.937 75.5932 116.451 77.6987 119.283C79.1667 121.254 80.2301 123.926 83.4098 123.805C84.5401 123.763 84.9151 124.349 84.6335 125.486C93.2831 124.588 101.8 123.718 110.307 122.787C110.719 122.742 111.208 122.244 111.435 121.832C113.878 117.365 116.28 112.877 118.69 108.393C119.503 106.875 120.313 105.352 121.195 103.676C120.512 103.665 120.11 103.651 119.711 103.657C109.842 103.801 99.9714 103.931 90.1036 104.114C89.1649 104.13 88.7637 103.884 88.5062 102.95C87.854 100.495 87.1189 98.0585 86.337 95.6405C85.3268 92.5116 84.1974 89.4219 83.2083 86.2873C82.7668 84.8833 82.4189 83.5399 80.293 83.8289C80.735 82.5155 81.0897 81.4538 81.4477 80.3902ZM27.7698 33.7792C30.3765 38.1954 32.8142 42.3554 35.3237 46.4864C35.5517 46.8614 36.2658 47.1097 36.7652 47.1376C53.8899 47.8594 71.0134 48.5603 88.1358 49.2404C89.7175 49.3037 91.2972 49.3748 92.8802 49.4441C92.9784 49.3126 93.0793 49.1819 93.1801 49.0512C90.775 45.1234 88.342 41.2166 85.9923 37.2583C85.4636 36.3665 84.8776 36.0448 83.8577 36.0059C69.5237 35.4602 55.1887 34.8892 40.8527 34.2926C36.584 34.1219 32.3139 33.9565 27.7698 33.7792ZM152.019 71.9074C151.648 71.6412 151.441 71.4786 151.222 71.3384C138.088 62.8122 124.949 54.2961 111.806 45.79C111.274 45.5131 110.657 45.446 110.077 45.6021C105.338 46.8997 100.61 48.2816 95.8821 49.6438C95.5784 49.7363 95.2598 49.8865 94.8016 50.079C97.6745 52.0395 100.385 53.8909 103.1 55.7378C113.618 62.8977 124.131 70.061 134.639 77.2278C135.301 77.6782 135.858 77.7992 136.619 77.4944C138.296 76.8209 140.019 76.2489 141.706 75.6313L152.019 71.9074ZM79.4925 81.2438L79.1358 81.1295L74.833 94.3752L75.1386 94.4708C76.5915 90.0631 78.0428 85.6541 79.4925 81.2438Z" fill="#FF5059"/>
<path d="M13.7662 63.3924C19.4118 59.3924 24.8936 55.5069 30.38 51.6254C31.7053 50.6851 33.1023 49.8361 34.3442 48.7959C35.2072 48.0751 35.8632 48.1797 36.7463 48.6843C43.8634 52.757 51.0025 56.799 58.1336 60.8501L80.4801 73.54C80.8585 73.7551 81.2256 73.9924 81.7413 74.3044C79.6174 76.3235 77.5929 78.2395 75.5775 80.1635C70.877 84.6448 66.1679 89.1156 61.4981 93.6301C60.8566 94.2512 60.4257 94.3053 59.6773 93.8103C44.64 83.8571 29.5939 73.9167 14.5389 63.9889C14.3144 63.8499 14.1172 63.6703 13.7662 63.3924Z" fill="#FFEEEE"/>
<path d="M142.869 102.347C139.398 102.416 136.069 102.495 132.745 102.537C118.909 102.745 105.071 102.953 91.2311 103.162C90.0083 103.182 89.4546 102.942 89.1618 101.613C87.2818 93.1157 85.2886 84.6455 83.3349 76.1631C83.2361 75.7319 83.1729 75.2818 83.0552 74.6526C85.8894 74.8622 88.61 75.0567 91.3291 75.2675C105.534 76.364 119.74 77.4606 133.947 78.5575C134.644 78.6112 135.238 78.6102 135.518 79.4687C137.907 86.8514 140.313 94.2273 142.735 101.596C142.783 101.768 142.796 101.948 142.869 102.347Z" fill="#FFEEEE"/>
<path d="M74.3366 96.3423C74.1513 97.0614 73.9975 97.7886 73.7814 98.497C73.108 100.644 72.4712 102.822 70.8683 104.502C70.368 105.07 69.7466 105.518 69.05 105.814C68.0977 106.153 67.7967 106.692 67.8478 107.634C67.9197 108.962 67.3011 109.701 66.0071 109.76C65.3219 109.79 65.0628 109.992 64.7571 110.646C63.7543 112.789 62.4879 114.674 59.6536 114.487C59.2265 114.461 58.731 114.809 58.3294 115.075C56.9033 115.95 56.7008 115.965 55.1741 115.101C53.546 117.184 51.6451 116.176 49.7727 115.492C43.3759 113.164 38.8806 108.018 33.3383 104.426C31.7252 103.348 30.168 102.188 28.6726 100.952C28.2837 100.636 27.8559 99.9829 27.9142 99.5502C28.6407 94.2324 29.4532 88.9283 30.2499 83.6203C30.3427 83.3388 30.4581 83.0653 30.5949 82.8024C30.7916 83.6031 30.9099 84.0674 31.0249 84.5336L31.4754 84.5881C31.5598 83.913 31.7672 83.2276 31.6864 82.5743C31.635 82.1328 31.179 81.7411 30.9053 81.3263L30.5216 81.4905C30.7715 79.8253 31.0181 78.1621 31.3234 76.2061L35.1391 78.7761C34.8781 79.0503 34.4221 79.3862 34.1967 79.8375C34.1133 80.0091 34.5321 80.6431 34.8233 80.7294C35.3198 80.8769 36.0148 80.9496 36.4129 80.7079C36.9747 80.3629 37.3395 80.1854 37.9492 80.5888C44.7889 85.1302 51.6432 89.6473 58.3549 94.0773C58.0313 94.8335 57.6452 95.5065 57.4665 96.2217C57.2481 97.0693 57.6682 97.6114 58.5766 97.7027C59.0699 97.7542 59.5583 97.8465 60.0516 97.898C61.0545 98.0025 62.0397 97.1985 61.6964 96.3152C61.0853 94.7332 62.2469 94.2656 63.1115 93.4081C63.5181 93.72 63.9118 93.995 64.2797 94.3052C65.7092 95.5132 65.6837 95.4926 66.9836 94.0755C70.0974 90.6798 73.2248 87.3184 76.3516 83.9485C76.5061 83.8069 76.6729 83.6794 76.85 83.5675L77.1964 83.8415C76.6344 84.5671 76.1761 85.4117 75.4923 85.9912C74.3561 86.9466 74.0197 87.8507 73.9579 89.4916C73.8622 92.1004 74.2598 94.9456 72.6615 97.38C72.3338 97.8805 72.2528 98.5425 72.0566 99.13L72.4382 99.3655C72.7977 98.8895 73.1154 98.3833 73.3877 97.8526C73.5647 97.3073 73.6913 96.7469 73.7659 96.1785L74.3366 96.3423ZM70.7872 91.0115L71.1526 91.3855C72.3669 91.2674 72.6591 90.3072 72.9852 89.3781L72.7241 89.1205L70.7872 91.0115ZM35.6482 103.869C34.9999 103.343 34.718 102.96 34.3708 102.885C34.0874 102.811 33.7217 103.123 33.3939 103.265C33.6949 103.553 33.9538 103.927 34.2997 104.095C34.5402 104.193 34.9123 103.998 35.6482 103.869ZM67.8441 95.0697L68.066 95.4795C68.4429 95.3527 68.9432 95.3333 69.1647 95.0713C69.3861 94.8093 69.3989 94.3144 69.5003 93.9208L69.1203 93.7445C68.6952 94.1779 68.2709 94.6153 67.8475 95.0566L67.8441 95.0697Z" fill="#FF5059"/>
<path d="M81.451 80.3894C81.093 81.453 80.7383 82.5147 80.2852 83.8281C82.4117 83.5364 82.759 84.8825 83.2005 86.2864C84.1895 89.4211 85.319 92.5107 86.3291 95.6396C87.1058 98.0563 87.8462 100.494 88.4983 102.949C88.748 103.881 89.157 104.129 90.0958 104.113C99.9636 103.93 109.834 103.8 119.703 103.656C120.102 103.65 120.504 103.664 121.187 103.675C120.297 105.349 119.495 106.877 118.682 108.392C116.273 112.876 113.871 117.364 111.427 121.831C111.2 122.243 110.711 122.741 110.299 122.786C101.792 123.717 93.2753 124.588 84.6257 125.485C84.9178 124.351 84.5296 123.762 83.402 123.804C80.2223 123.925 79.1589 121.253 77.6908 119.282C75.5854 116.45 75.2425 112.936 74.4592 109.611C74.2724 108.962 74.1516 108.295 74.0989 107.621C74.0814 106.577 74.1361 105.534 74.2627 104.498C74.3574 103.663 75.1005 102.701 73.5796 102.315L80.9719 80.2828L81.451 80.3894ZM96.3526 107.528C96.7245 107.634 97.1153 107.656 97.4968 107.593C97.8783 107.53 98.2411 107.384 98.5592 107.164C98.8773 106.944 99.1428 106.656 99.3364 106.322C99.5301 105.987 99.6473 105.613 99.6795 105.228C99.7027 105.007 99.2609 104.56 98.9845 104.514C98.2297 104.417 97.4685 104.379 96.7077 104.401C96.0504 104.399 95.3186 104.253 95.2865 105.322C95.2598 106.295 95.0997 107.264 96.3526 107.528ZM102.828 122.999L102.866 122.547C101.763 121.395 100.539 121.388 99.2076 122.951L102.828 122.999ZM93.1707 105.213L92.9338 104.439L90.9124 104.995C91.0255 105.262 91.1882 105.772 91.2415 105.76C91.8847 105.621 92.5298 105.409 93.1707 105.213ZM114.611 114.936C114.28 114.57 114.075 114.171 113.938 114.202C113.508 114.323 113.09 114.486 112.693 114.69C112.859 115.013 113.079 115.593 113.193 115.575C113.614 115.482 114.011 115.212 114.614 114.925L114.611 114.936Z" fill="#FF5059"/>
<path d="M27.7704 33.7787C32.3145 33.956 36.5846 34.1214 40.856 34.2928C55.1907 34.8722 69.5249 35.4431 83.8584 36.0054C84.8783 36.0443 85.4643 36.366 85.9929 37.2578C88.3308 41.2186 90.7756 45.1229 93.1808 49.0506C93.0799 49.1814 92.9791 49.3121 92.8808 49.4435C91.2978 49.3743 89.7181 49.3031 88.1364 49.2398C71.0177 48.5458 53.8948 47.8422 36.7678 47.1292C36.2664 47.1092 35.5524 46.8608 35.3264 46.478C32.8128 42.3628 30.3772 38.1949 27.7704 33.7787Z" fill="#FFEEEE"/>
<path d="M152.021 71.9064L141.708 75.6303C140.011 76.2451 138.298 76.8198 136.622 77.4933C135.86 77.7981 135.303 77.6798 134.642 77.2267C124.139 70.0429 113.626 62.8796 103.102 55.7368C100.387 53.8899 97.6767 52.0384 94.8038 50.078C95.2725 49.8881 95.5701 49.7325 95.8843 49.6427C100.612 48.2806 105.337 46.9092 110.079 45.601C110.659 45.445 111.276 45.512 111.808 45.789C124.963 54.2793 138.102 62.7955 151.224 71.3373C151.442 71.4802 151.65 71.6401 152.021 71.9064Z" fill="#FFEEEE"/>
<path d="M70.7853 91.0114L72.7188 89.1335L72.9799 89.3911C72.6538 90.3202 72.3616 91.2804 71.1473 91.3985L70.7853 91.0114Z" fill="#FF5059"/>
<path d="M35.6499 103.868C34.9107 104.011 34.5386 104.206 34.3153 104.084C33.959 103.914 33.7 103.539 33.4096 103.255C33.7268 103.11 34.1003 102.811 34.3865 102.874C34.7232 102.947 35.005 103.33 35.6499 103.868Z" fill="#FF5059"/>
<path d="M67.8465 95.0569C68.2739 94.6073 68.6993 94.1656 69.1226 93.7317L69.5026 93.908C69.4012 94.3016 69.4088 94.7934 69.167 95.0585C68.9252 95.3236 68.4452 95.3399 68.0683 95.4667L67.8465 95.0569Z" fill="#FF5059"/>
<path d="M96.3516 107.528C95.1065 107.266 95.2693 106.298 95.2855 105.322C95.3175 104.253 96.0494 104.4 96.7067 104.401C97.4674 104.38 98.2287 104.418 98.9835 104.515C99.252 104.559 99.6965 105.006 99.6784 105.228C99.6462 105.614 99.5291 105.987 99.3354 106.322C99.1417 106.657 98.8763 106.944 98.5582 107.164C98.2401 107.384 97.8773 107.531 97.4957 107.594C97.1142 107.656 96.7235 107.634 96.3516 107.528Z" fill="#FF5059"/>
<path d="M102.826 122.999L99.2009 122.949C100.529 121.4 101.757 121.394 102.859 122.546L102.826 122.999Z" fill="#FF5059"/>
<path d="M93.1698 105.214C92.5289 105.41 91.8917 105.623 91.2406 105.761C91.1873 105.772 91.0246 105.263 90.9115 104.996L92.9329 104.439L93.1698 105.214Z" fill="#FF5059"/>
<path d="M114.611 114.926C114.008 115.212 113.611 115.482 113.182 115.553C113.068 115.572 112.851 114.981 112.682 114.669C113.079 114.465 113.497 114.301 113.927 114.181C114.075 114.16 114.283 114.55 114.611 114.926Z" fill="#FF5059"/>
<line x1="81.3916" y1="75.5515" x2="64.411" y2="128.181" stroke="#FFEEEE" stroke-width="0.55202"/>
</g>
<g clip-path="url(#clip1_4224_24478)">
<path d="M77.3242 61.2373C77.3242 61.2373 93.0395 67.7037 103.593 60.3032C118.357 49.9533 115.482 31.7647 111.233 28.5818C106.983 25.3988 101.84 30.8522 107.353 36.0541C112.727 41.1266 122.376 41.0045 127.072 33.04C131.769 25.0755 127.917 15.3435 138.975 11.5283" stroke="#FFEEEE" stroke-width="0.325355" stroke-miterlimit="10" stroke-dasharray="1.74 2.17"/>
<path d="M138.211 5.92018L135.492 13.4715L141.197 8.963L163 0.958984L138.211 5.92018Z" fill="#FF5059"/>
<path opacity="0.1" d="M138.211 5.92018L135.492 13.4715L141.197 8.963L163 0.958984L138.211 5.92018Z" fill="#141516"/>
<path d="M141.928 10.7232L135.492 13.4714L141.197 8.96289L141.928 10.7232Z" fill="#263238"/>
<path d="M141.195 8.963L162.999 0.958984L145.114 18.6231L141.195 8.963Z" fill="#FF5059"/>
<path d="M138.211 5.92038L129.148 0L163 0.959188L138.211 5.92038Z" fill="#FF5059"/>
</g>
<defs>
<clipPath id="clip0_4224_24478">
<rect width="138.852" height="94.9474" fill="white" transform="translate(23.6914 19.624) rotate(14.4482)"/>
</clipPath>
<clipPath id="clip1_4224_24478">
<rect width="85.7259" height="63.9926" fill="white" transform="translate(77.2734)"/>
</clipPath>
</defs>
</svg>
