<svg width="24" height="26" viewBox="0 0 24 26" fill="none" xmlns="http://www.w3.org/2000/svg">
<g filter="url(#filter0_d_4614_23339)">
<path d="M10.5 4H13.5C13.5 3.60218 13.342 3.22064 13.0607 2.93934C12.7794 2.65804 12.3978 2.5 12 2.5C11.6022 2.5 11.2206 2.65804 10.9393 2.93934C10.658 3.22064 10.5 3.60218 10.5 4ZM9.5 4C9.5 3.33696 9.76339 2.70107 10.2322 2.23223C10.7011 1.76339 11.337 1.5 12 1.5C12.663 1.5 13.2989 1.76339 13.7678 2.23223C14.2366 2.70107 14.5 3.33696 14.5 4H19.5C19.6326 4 19.7598 4.05268 19.8536 4.14645C19.9473 4.24021 20 4.36739 20 4.5C20 4.63261 19.9473 4.75979 19.8536 4.85355C19.7598 4.94732 19.6326 5 19.5 5H18.446L17.252 15.344C17.1676 16.0752 16.8173 16.7498 16.2679 17.2396C15.7184 17.7293 15.008 17.9999 14.272 18H9.728C8.99195 17.9999 8.28161 17.7293 7.73214 17.2396C7.18266 16.7498 6.8324 16.0752 6.748 15.344L5.554 5H4.5C4.36739 5 4.24021 4.94732 4.14645 4.85355C4.05268 4.75979 4 4.63261 4 4.5C4 4.36739 4.05268 4.24021 4.14645 4.14645C4.24021 4.05268 4.36739 4 4.5 4H9.5ZM7.741 15.23C7.79743 15.7174 8.03105 16.167 8.39742 16.4934C8.76379 16.8198 9.23735 17.0001 9.728 17H14.272C14.7627 17.0001 15.2362 16.8198 15.6026 16.4934C15.969 16.167 16.2026 15.7174 16.259 15.23L17.439 5H6.561L7.741 15.23ZM10.5 7.5C10.6326 7.5 10.7598 7.55268 10.8536 7.64645C10.9473 7.74021 11 7.86739 11 8V14C11 14.1326 10.9473 14.2598 10.8536 14.3536C10.7598 14.4473 10.6326 14.5 10.5 14.5C10.3674 14.5 10.2402 14.4473 10.1464 14.3536C10.0527 14.2598 10 14.1326 10 14V8C10 7.86739 10.0527 7.74021 10.1464 7.64645C10.2402 7.55268 10.3674 7.5 10.5 7.5ZM14 8C14 7.86739 13.9473 7.74021 13.8536 7.64645C13.7598 7.55268 13.6326 7.5 13.5 7.5C13.3674 7.5 13.2402 7.55268 13.1464 7.64645C13.0527 7.74021 13 7.86739 13 8V14C13 14.1326 13.0527 14.2598 13.1464 14.3536C13.2402 14.4473 13.3674 14.5 13.5 14.5C13.6326 14.5 13.7598 14.4473 13.8536 14.3536C13.9473 14.2598 14 14.1326 14 14V8Z" fill="#E5E5EA"/>
</g>
<defs>
<filter id="filter0_d_4614_23339" x="-2" y="0" width="28" height="28" filterUnits="userSpaceOnUse" color-interpolation-filters="sRGB">
<feFlood flood-opacity="0" result="BackgroundImageFix"/>
<feColorMatrix in="SourceAlpha" type="matrix" values="0 0 0 0 0 0 0 0 0 0 0 0 0 0 0 0 0 0 127 0" result="hardAlpha"/>
<feOffset dy="4"/>
<feGaussianBlur stdDeviation="2"/>
<feComposite in2="hardAlpha" operator="out"/>
<feColorMatrix type="matrix" values="0 0 0 0 0 0 0 0 0 0 0 0 0 0 0 0 0 0 0.25 0"/>
<feBlend mode="normal" in2="BackgroundImageFix" result="effect1_dropShadow_4614_23339"/>
<feBlend mode="normal" in="SourceGraphic" in2="effect1_dropShadow_4614_23339" result="shape"/>
</filter>
</defs>
</svg>
