<svg width="31" height="56" viewBox="0 0 31 56" fill="none" xmlns="http://www.w3.org/2000/svg">
<path d="M24.2011 32.5476C24.2011 31.2949 23.5654 30.1946 22.6114 29.5837C22.4077 29.4537 22.1896 29.345 21.9577 29.2611C21.1004 28.7384 20.2362 27.8066 19.5705 26.6019C18.975 25.5238 18.6405 24.4124 18.5703 23.4489C18.5866 23.3138 18.596 23.176 18.596 23.0348C18.596 22.9108 18.5883 22.7867 18.5763 22.6661V22.6643C18.3992 20.9198 16.984 19.561 15.2668 19.561C13.6223 19.561 12.2567 20.806 11.9863 22.4427C11.9273 22.6472 11.8854 22.8611 11.8631 23.0802V23.0819C11.8511 23.2025 11.8434 23.3266 11.8434 23.4507C11.8434 23.5918 11.852 23.7279 11.8691 23.8648C11.7989 24.8291 11.4652 25.9414 10.8689 27.0177C10.2032 28.2224 9.33733 29.155 8.48171 29.677C8.24984 29.7591 8.03166 29.8695 7.82802 29.9995C6.87401 30.6104 6.23828 31.7099 6.23828 32.9634C6.23828 34.8817 7.72963 36.4389 9.56749 36.4389C9.76086 36.4389 9.9491 36.4201 10.1339 36.3876C10.5634 36.3414 10.9818 36.2079 11.3643 35.9948C11.5739 35.8768 11.7758 35.7347 11.9598 35.5687C12.8248 35.0605 14.0304 34.7499 15.3634 34.7576C16.5553 34.7636 17.6437 35.0229 18.4762 35.4464C18.5806 35.5285 18.6884 35.6064 18.8056 35.6774C18.9083 35.7399 19.0152 35.7972 19.1205 35.8468L19.1222 35.8485C19.9478 36.2378 20.8634 36.2438 21.6668 35.9264C23.1196 35.5499 24.2011 34.1809 24.2011 32.5476ZM14.8963 30.8808C14.3153 30.8774 13.7583 30.8141 13.2441 30.7011C13.3989 30.2673 13.5966 29.8267 13.837 29.3903C14.2965 28.5638 14.8475 27.8648 15.425 27.3386C15.8503 27.7972 16.2499 28.3499 16.5955 28.9745C16.8805 29.4896 17.1055 30.0132 17.2698 30.5249C16.5724 30.755 15.7613 30.8851 14.8963 30.8808Z" fill="url(#paint0_linear_4224_25162)"/>
<path d="M27.7905 19.3634C27.8016 19.3557 27.8118 19.3497 27.823 19.342C27.8341 19.3352 27.8452 19.3283 27.8563 19.3215C27.8675 19.3147 27.8786 19.3078 27.8897 19.301C27.9008 19.2941 27.912 19.2873 27.9231 19.2804C27.9351 19.2736 27.9462 19.2676 27.9582 19.2616C27.9701 19.2556 27.983 19.2496 27.9949 19.2436C28.0069 19.2376 28.0189 19.2317 28.0317 19.2257C28.0437 19.2197 28.0557 19.2137 28.0685 19.2077C28.0814 19.2026 28.0933 19.1966 28.1062 19.1914C28.119 19.1863 28.1327 19.182 28.1464 19.1769C28.1592 19.1718 28.1729 19.1666 28.1866 19.1624C28.2003 19.1581 28.2131 19.1521 28.2268 19.1478C28.2405 19.1435 28.2542 19.1393 28.2687 19.135C28.2833 19.1307 28.2978 19.1273 28.3124 19.1238C28.3269 19.1204 28.3415 19.1161 28.356 19.1127C28.3706 19.1093 28.3851 19.105 28.3997 19.1016C28.4151 19.0982 28.4305 19.0965 28.4467 19.0939C28.4621 19.0913 28.4784 19.0888 28.4946 19.0862C28.5109 19.0836 28.5263 19.0811 28.5425 19.0785C28.5588 19.0768 28.5751 19.0742 28.5913 19.0725C28.6084 19.0708 28.6264 19.0708 28.6444 19.0699C28.6615 19.0691 28.6794 19.0682 28.6974 19.0674C28.7154 19.0665 28.7325 19.0648 28.7505 19.0648C28.7513 19.0648 28.7522 19.0648 28.753 19.0648C28.7719 19.0648 28.7907 19.0674 28.8095 19.0674C28.8292 19.0682 28.8489 19.0691 28.8685 19.0699C28.8882 19.0717 28.9079 19.0708 28.9276 19.0725C28.9498 19.0751 28.9721 19.0794 28.9943 19.0828C29.0166 19.0862 29.0388 19.0888 29.061 19.0931C29.085 19.0973 29.109 19.1025 29.1321 19.1076C29.1577 19.1136 29.1834 19.1204 29.2091 19.1273C29.2364 19.135 29.2647 19.1427 29.2912 19.1521C29.322 19.1624 29.3528 19.1735 29.3828 19.1855C29.4196 19.2 29.4555 19.2171 29.4906 19.2342C29.5111 19.2445 29.5316 19.253 29.5513 19.2633V5.39037C29.5513 2.41797 27.1333 0 24.1609 0H5.39039C2.41797 0 0 2.41797 0 5.39037V50.6096C0 53.582 2.41797 56 5.39039 56H24.1566C27.1291 56 29.547 53.582 29.547 50.6113L29.5941 28.5211C29.5873 28.5254 29.5813 28.5296 29.5744 28.533C29.5624 28.5399 29.5513 28.5459 29.5393 28.5519C29.5274 28.5579 29.5145 28.5639 29.5025 28.5698C29.4906 28.5758 29.4786 28.5818 29.4658 28.5878C29.4538 28.5938 29.4418 28.5998 29.429 28.6058C29.4161 28.6109 29.4042 28.6169 29.3913 28.622C29.3785 28.6272 29.3648 28.6314 29.3511 28.6366C29.3383 28.6417 29.3246 28.6468 29.3109 28.6511C29.2972 28.6554 29.2844 28.6614 29.2707 28.6657C29.257 28.67 29.2433 28.6742 29.2288 28.6785C29.2142 28.6828 29.1997 28.6862 29.1851 28.6896C29.1706 28.693 29.156 28.6973 29.1415 28.7008C29.1269 28.7042 29.1124 28.7085 29.0978 28.7119C29.0824 28.7153 29.067 28.717 29.0508 28.7196C29.0354 28.7221 29.0191 28.7247 29.0029 28.7273C28.9866 28.7298 28.9712 28.7324 28.955 28.735C28.9387 28.7367 28.9224 28.7393 28.9062 28.741C28.8891 28.7427 28.8711 28.7427 28.8531 28.7435C28.836 28.7444 28.8181 28.7452 28.8001 28.7461C28.7821 28.747 28.765 28.7487 28.747 28.7487C28.7462 28.7487 28.7453 28.7487 28.7445 28.7487C28.7256 28.7487 28.7068 28.7461 28.688 28.7461C28.6683 28.7452 28.6486 28.7444 28.629 28.7435C28.6093 28.7418 28.5896 28.7427 28.5699 28.741C28.5477 28.7384 28.5254 28.7341 28.5032 28.7307C28.4809 28.7273 28.4587 28.7247 28.4364 28.7204C28.4125 28.7161 28.3885 28.711 28.3654 28.7059C28.3398 28.6999 28.3141 28.6931 28.2884 28.6862C28.261 28.6785 28.2328 28.6708 28.2063 28.6614C28.1755 28.6511 28.1447 28.64 28.1147 28.628C28.0779 28.6135 28.042 28.5964 28.0069 28.5793C27.9607 28.557 27.9162 28.533 27.8735 28.5074C27.8469 28.4911 27.8195 28.4757 27.793 28.4586L27.746 50.6113C27.746 52.5929 26.134 54.2049 24.1524 54.2049H5.39039C3.40878 54.2049 1.7968 52.5929 1.7968 50.6113V5.39209C1.7968 3.41048 3.40878 1.7985 5.39039 1.7985H24.1566C26.1383 1.7985 27.7502 3.41048 27.7502 5.39209V19.3942C27.7528 19.3917 27.7562 19.3899 27.7588 19.3874C27.7699 19.3788 27.7793 19.3703 27.7905 19.3634Z" fill="url(#paint1_linear_4224_25162)"/>
<path d="M27.3672 28.0332C27.4853 28.1983 27.6307 28.3429 27.7984 28.4576C27.8241 28.4756 27.8515 28.4901 27.8788 28.5064L27.3672 28.0332Z" fill="url(#paint2_linear_4224_25162)"/>
<path d="M27.879 28.5065C27.9226 28.5322 27.9671 28.557 28.0124 28.5784L27.2852 27.9067C27.3108 27.9504 27.3373 27.9923 27.3664 28.0334L27.879 28.5065Z" fill="url(#paint3_linear_4224_25162)"/>
<path d="M28.0125 28.5786C28.0476 28.5958 28.0835 28.612 28.1203 28.6274L27.2305 27.8052C27.2476 27.8403 27.2655 27.8736 27.2852 27.907L28.0125 28.5786Z" fill="url(#paint4_linear_4224_25162)"/>
<path d="M28.1218 28.6269C28.1518 28.6389 28.1826 28.65 28.2134 28.6603L27.1875 27.7114C27.2012 27.7431 27.2166 27.773 27.232 27.8038L28.1218 28.6269Z" fill="url(#paint5_linear_4224_25162)"/>
<path d="M28.2112 28.6606C28.2386 28.6701 28.266 28.6778 28.2934 28.6855L27.1562 27.6348C27.1657 27.6604 27.1742 27.687 27.1845 27.7126L28.2112 28.6606Z" fill="url(#paint6_linear_4224_25162)"/>
<path d="M28.2943 28.6852C28.3199 28.692 28.3456 28.6989 28.3713 28.7049L27.1289 27.5566C27.1375 27.5832 27.1477 27.608 27.1571 27.6345L28.2943 28.6852Z" fill="url(#paint7_linear_4224_25162)"/>
<path d="M28.3697 28.7051C28.3937 28.7102 28.4168 28.7154 28.4407 28.7196L27.1094 27.4893C27.1154 27.5115 27.1196 27.5346 27.1265 27.5568L28.3697 28.7051Z" fill="url(#paint8_linear_4224_25162)"/>
<path d="M28.4422 28.7194C28.4645 28.7236 28.4867 28.7262 28.5089 28.7296L27.0938 27.4214C27.0989 27.4445 27.1049 27.4667 27.1109 27.489L28.4422 28.7194Z" fill="url(#paint9_linear_4224_25162)"/>
<path d="M28.5092 28.7296C28.5314 28.733 28.5528 28.7373 28.5759 28.7399L27.082 27.3589C27.0863 27.3803 27.0897 27.4008 27.0949 27.4222L28.5092 28.7296Z" fill="url(#paint10_linear_4224_25162)"/>
<path d="M28.5736 28.7402C28.5933 28.7419 28.613 28.7419 28.6327 28.7427L27.0703 27.2993C27.0729 27.319 27.0754 27.3395 27.0797 27.3592L28.5736 28.7402Z" fill="url(#paint11_linear_4224_25162)"/>
<path d="M28.6334 28.7425C28.6531 28.7442 28.6728 28.745 28.6925 28.745L27.0625 27.2383C27.0651 27.2588 27.0685 27.2785 27.0719 27.2982L28.6334 28.7425Z" fill="url(#paint12_linear_4224_25162)"/>
<path d="M28.692 28.7459C28.7108 28.7468 28.7288 28.7485 28.7484 28.7485C28.7493 28.7485 28.7502 28.7485 28.751 28.7485L27.0586 27.1836C27.0603 27.2024 27.0612 27.2204 27.0629 27.2392L28.692 28.7459Z" fill="url(#paint13_linear_4224_25162)"/>
<path d="M28.7497 28.7487C28.7676 28.7487 28.7847 28.747 28.8027 28.7461L27.0547 27.1299C27.0555 27.1479 27.0564 27.1658 27.0573 27.1838L28.7497 28.7487Z" fill="url(#paint14_linear_4224_25162)"/>
<path d="M28.8053 28.746C28.8233 28.7451 28.8404 28.7443 28.8583 28.7434L27.0547 27.0767C27.0547 27.0946 27.0564 27.1126 27.0573 27.1306L28.8053 28.746Z" fill="url(#paint15_linear_4224_25162)"/>
<path d="M28.8553 28.7435C28.8724 28.7426 28.8904 28.7426 28.9083 28.7409L27.0525 27.0254C27.0525 27.0348 27.0508 27.0434 27.0508 27.0519C27.0508 27.0605 27.0516 27.0682 27.0516 27.0767L28.8553 28.7435Z" fill="url(#paint16_linear_4224_25162)"/>
<path d="M28.9105 28.7408C28.9268 28.7391 28.943 28.7366 28.9593 28.7349L27.0573 26.9766C27.0564 26.9928 27.0547 27.0091 27.0547 27.0253L28.9105 28.7408Z" fill="url(#paint17_linear_4224_25162)"/>
<path d="M28.9567 28.7352C28.973 28.7334 28.9884 28.73 29.0046 28.7275L27.0573 26.9272C27.0564 26.9435 27.0555 26.9598 27.0547 26.976L28.9567 28.7352Z" fill="url(#paint18_linear_4224_25162)"/>
<path d="M29.006 28.7273C29.0222 28.7247 29.0376 28.723 29.0539 28.7196L27.0612 26.8774C27.0595 26.8937 27.0594 26.91 27.0586 26.9262L29.006 28.7273Z" fill="url(#paint19_linear_4224_25162)"/>
<path d="M29.0552 28.7206C29.0706 28.718 29.0869 28.7155 29.1023 28.7129L27.0693 26.834C27.0676 26.8494 27.0642 26.8639 27.0625 26.8793L29.0552 28.7206Z" fill="url(#paint20_linear_4224_25162)"/>
<path d="M29.0985 28.7119C29.113 28.7085 29.1276 28.7042 29.1421 28.7008L27.0732 26.7876C27.0707 26.803 27.0681 26.8175 27.0664 26.8329L29.0985 28.7119Z" fill="url(#paint21_linear_4224_25162)"/>
<path d="M29.1431 28.7008C29.1576 28.6974 29.1722 28.6931 29.1867 28.6897L27.0811 26.7432C27.0785 26.7577 27.0768 26.7731 27.0742 26.7885L29.1431 28.7008Z" fill="url(#paint22_linear_4224_25162)"/>
<path d="M29.1877 28.6897C29.2023 28.6855 29.2168 28.6829 29.2313 28.6786L27.0897 26.6987C27.0863 26.7133 27.0846 26.7278 27.082 26.7432L29.1877 28.6897Z" fill="url(#paint23_linear_4224_25162)"/>
<path d="M29.2306 28.6787C29.2443 28.6744 29.2588 28.6701 29.2725 28.6658L27.1001 26.6577C27.0967 26.6714 27.0924 26.6851 27.0898 26.6988L29.2306 28.6787Z" fill="url(#paint24_linear_4224_25162)"/>
<path d="M29.2731 28.6658C29.2868 28.6615 29.2996 28.6555 29.3133 28.6512L27.1118 26.6157C27.1084 26.6294 27.1041 26.6431 27.1016 26.6568L29.2731 28.6658Z" fill="url(#paint25_linear_4224_25162)"/>
<path d="M29.3139 28.6513C29.3276 28.647 29.3405 28.6419 29.3541 28.6367L27.1236 26.5747C27.1193 26.5884 27.1167 26.6021 27.1133 26.6158L29.3139 28.6513Z" fill="url(#paint26_linear_4224_25162)"/>
<path d="M29.3517 28.6364C29.3645 28.6313 29.3782 28.627 29.3919 28.6219L27.1331 26.5342C27.1288 26.5479 27.1254 26.5607 27.1211 26.5744L29.3517 28.6364Z" fill="url(#paint27_linear_4224_25162)"/>
<path d="M29.3916 28.6218C29.4045 28.6167 29.4173 28.6107 29.4293 28.6056L27.1465 26.4956C27.1422 26.5084 27.1362 26.5213 27.1328 26.5341L29.3916 28.6218Z" fill="url(#paint28_linear_4224_25162)"/>
<path d="M29.4304 28.606C29.4432 28.6008 29.4543 28.594 29.4672 28.588L27.1621 26.4575C27.157 26.4704 27.1527 26.4832 27.1484 26.496L29.4304 28.606Z" fill="url(#paint29_linear_4224_25162)"/>
<path d="M29.4682 28.5878C29.4802 28.5818 29.4931 28.5758 29.505 28.5698L27.1778 26.418C27.1726 26.4308 27.1683 26.4436 27.1641 26.4565L29.4682 28.5878Z" fill="url(#paint30_linear_4224_25162)"/>
<path d="M29.5031 28.5709C29.515 28.5649 29.5279 28.5597 29.5399 28.5529L27.1903 26.3813C27.1852 26.3933 27.1801 26.4062 27.1758 26.419L29.5031 28.5709Z" fill="url(#paint31_linear_4224_25162)"/>
<path d="M29.5409 28.5528C29.5529 28.5468 29.564 28.54 29.576 28.534L27.2085 26.3462C27.2034 26.3582 27.1965 26.3693 27.1914 26.3821L29.5409 28.5528Z" fill="url(#paint32_linear_4224_25162)"/>
<path d="M29.5745 28.5338C29.5814 28.5304 29.5874 28.5252 29.5942 28.5218C29.5985 28.5193 29.6036 28.5158 29.6079 28.5133L27.2241 26.3101C27.2182 26.322 27.2122 26.334 27.207 26.346L29.5745 28.5338Z" fill="url(#paint33_linear_4224_25162)"/>
<path d="M29.6064 28.5136C29.6175 28.5067 29.6287 28.4999 29.6398 28.493L27.2398 26.2744C27.2338 26.2864 27.2286 26.2984 27.2227 26.3104L29.6064 28.5136Z" fill="url(#paint34_linear_4224_25162)"/>
<path d="M29.6422 28.4929C29.6533 28.4861 29.6644 28.4801 29.6756 28.4724L27.2593 26.2393C27.2533 26.2504 27.2482 26.2632 27.2422 26.2743L29.6422 28.4929Z" fill="url(#paint35_linear_4224_25162)"/>
<path d="M29.6741 28.4731C29.6852 28.4662 29.6963 28.4594 29.7066 28.4517L27.2775 26.2065C27.2706 26.2177 27.2638 26.2279 27.2578 26.2391L29.6741 28.4731Z" fill="url(#paint36_linear_4224_25162)"/>
<path d="M29.7095 28.4518C29.7198 28.445 29.73 28.4364 29.7403 28.4287L27.3009 26.1733C27.2941 26.1845 27.2872 26.1947 27.2812 26.2059L29.7095 28.4518Z" fill="url(#paint37_linear_4224_25162)"/>
<path d="M29.7401 28.4285C29.7504 28.4208 29.7607 28.4131 29.771 28.4054L27.3205 26.1406C27.3136 26.1517 27.3068 26.1629 27.3008 26.1731L29.7401 28.4285Z" fill="url(#paint38_linear_4224_25162)"/>
<path d="M29.7699 28.4056C29.7802 28.3979 29.7905 28.3902 29.8007 28.3825L27.34 26.1074C27.3331 26.1177 27.3272 26.1297 27.3203 26.1399L29.7699 28.4056Z" fill="url(#paint39_linear_4224_25162)"/>
<path d="M29.8006 28.3825C29.8109 28.3748 29.8211 28.3671 29.8314 28.3594L27.3621 26.0767C27.3544 26.0869 27.3467 26.0972 27.3398 26.1075L29.8006 28.3825Z" fill="url(#paint40_linear_4224_25162)"/>
<path d="M29.8287 28.3591C29.8381 28.3514 29.8475 28.342 29.8569 28.3334L27.3825 26.0464C27.3748 26.0567 27.3671 26.0661 27.3594 26.0763L29.8287 28.3591Z" fill="url(#paint41_linear_4224_25162)"/>
<path d="M29.8573 28.3335C29.8667 28.3249 29.8761 28.3164 29.8855 28.3078L27.4059 26.0156C27.3982 26.0259 27.3905 26.0362 27.3828 26.0456L29.8573 28.3335Z" fill="url(#paint42_linear_4224_25162)"/>
<path d="M29.8858 28.3088C29.8952 28.3003 29.9047 28.2917 29.9141 28.2832L27.4294 25.9858C27.4217 25.9953 27.414 26.0064 27.4062 26.0158L29.8858 28.3088Z" fill="url(#paint43_linear_4224_25162)"/>
<path d="M29.9144 28.2834C29.9238 28.2749 29.9332 28.2672 29.9426 28.2578L27.4536 25.957C27.4451 25.9664 27.4374 25.9759 27.4297 25.9861L29.9144 28.2834Z" fill="url(#paint44_linear_4224_25162)"/>
<path d="M29.943 28.2577C29.9515 28.2491 29.9601 28.2397 29.9686 28.2303L27.4788 25.9287C27.4702 25.9381 27.4617 25.9467 27.4531 25.9569L29.943 28.2577Z" fill="url(#paint45_linear_4224_25162)"/>
<path d="M29.9664 28.2302C29.975 28.2208 29.9835 28.2114 29.9921 28.202L27.5022 25.9004C27.4937 25.9098 27.4851 25.9192 27.4766 25.9286L29.9664 28.2302Z" fill="url(#paint46_linear_4224_25162)"/>
<path d="M29.9938 28.2029C30.0023 28.1935 30.0109 28.1841 30.0194 28.1747L27.5296 25.873C27.521 25.8825 27.5125 25.8919 27.5039 25.9013L29.9938 28.2029Z" fill="url(#paint47_linear_4224_25162)"/>
<path d="M30.0202 28.1747C30.0288 28.1653 30.0374 28.1567 30.0459 28.1465L27.5569 25.8457C27.5484 25.8543 27.5398 25.8637 27.5312 25.8731L30.0202 28.1747Z" fill="url(#paint48_linear_4224_25162)"/>
<path d="M30.0437 28.1462C30.0522 28.1368 30.0599 28.1274 30.0676 28.1172L27.5829 25.8198C27.5735 25.8284 27.5641 25.8361 27.5547 25.8455L30.0437 28.1462Z" fill="url(#paint49_linear_4224_25162)"/>
<path d="M30.0707 28.118C30.0784 28.1086 30.0861 28.0975 30.0938 28.0881L27.6142 25.7959C27.6048 25.8045 27.5953 25.813 27.5859 25.8216L30.0707 28.118Z" fill="url(#paint50_linear_4224_25162)"/>
<path d="M30.0929 28.087C30.1006 28.0768 30.1083 28.0665 30.116 28.0571L27.6415 25.77C27.6321 25.7786 27.6227 25.7871 27.6133 25.7957L30.0929 28.087Z" fill="url(#paint51_linear_4224_25162)"/>
<path d="M30.1151 28.0574C30.1228 28.0471 30.1305 28.0377 30.1382 28.0274L27.6689 25.7446C27.6594 25.7523 27.65 25.7617 27.6406 25.7703L30.1151 28.0574Z" fill="url(#paint52_linear_4224_25162)"/>
<path d="M30.1373 28.0266C30.145 28.0163 30.1527 28.0061 30.1595 27.9958L27.6988 25.7207C27.6885 25.7284 27.6782 25.7361 27.668 25.7438L30.1373 28.0266Z" fill="url(#paint53_linear_4224_25162)"/>
<path d="M30.1608 27.9956C30.1677 27.9853 30.1737 27.9733 30.1805 27.9631L27.73 25.6982C27.7198 25.7059 27.7095 25.7136 27.6992 25.7213L30.1608 27.9956Z" fill="url(#paint54_linear_4224_25162)"/>
<path d="M30.181 27.9632C30.1878 27.9521 30.1946 27.941 30.2006 27.9307L27.7613 25.6753C27.751 25.683 27.7407 25.6907 27.7305 25.6984L30.181 27.9632Z" fill="url(#paint55_linear_4224_25162)"/>
<path d="M30.198 27.93C30.2049 27.9189 30.2117 27.9086 30.2177 27.8975L27.7886 25.6523C27.7783 25.6592 27.7681 25.6677 27.7578 25.6754L30.198 27.93Z" fill="url(#paint56_linear_4224_25162)"/>
<path d="M30.2182 27.8975C30.225 27.8864 30.2319 27.8761 30.2378 27.865L27.8216 25.6318C27.8105 25.6387 27.7993 25.6455 27.7891 25.6532L30.2182 27.8975Z" fill="url(#paint57_linear_4224_25162)"/>
<path d="M30.2405 27.864C30.2465 27.8529 30.2516 27.8401 30.2576 27.829L27.8576 25.6104C27.8465 25.6172 27.8353 25.6232 27.8242 25.6309L30.2405 27.864Z" fill="url(#paint58_linear_4224_25162)"/>
<path d="M30.2555 27.829C30.2615 27.817 30.2666 27.805 30.2726 27.7931L27.8888 25.5898C27.8777 25.5967 27.8666 25.6035 27.8555 25.6104L30.2555 27.829Z" fill="url(#paint59_linear_4224_25162)"/>
<path d="M30.2744 27.7936C30.2804 27.7816 30.2864 27.7696 30.2915 27.7576L27.924 25.5698C27.9129 25.5758 27.9017 25.5835 27.8906 25.5904L30.2744 27.7936Z" fill="url(#paint60_linear_4224_25162)"/>
<path d="M30.2894 27.7578C30.2945 27.7458 30.3013 27.7347 30.3065 27.7218L27.957 25.5503C27.945 25.5563 27.9339 25.5631 27.9219 25.5691L30.2894 27.7578Z" fill="url(#paint61_linear_4224_25162)"/>
<path d="M30.3066 27.7227C30.3117 27.7107 30.3168 27.6979 30.3211 27.6851L27.9938 25.5332C27.9818 25.5392 27.969 25.5443 27.957 25.5512L30.3066 27.7227Z" fill="url(#paint62_linear_4224_25162)"/>
<path d="M30.3379 27.6466L28.0329 25.5161C28.0209 25.5221 28.0081 25.5281 27.9961 25.5341L30.3234 27.686C30.3285 27.6723 30.3328 27.6594 30.3379 27.6466Z" fill="url(#paint63_linear_4224_25162)"/>
<path d="M30.3508 27.608L28.068 25.498C28.0552 25.5032 28.0441 25.51 28.0312 25.516L30.3363 27.6465C30.3414 27.6337 30.3465 27.6208 30.3508 27.608Z" fill="url(#paint64_linear_4224_25162)"/>
<path d="M30.3668 27.5696L28.108 25.4819C28.0951 25.4871 28.0823 25.4931 28.0703 25.4982L30.3531 27.6081C30.3574 27.5953 30.3625 27.5825 30.3668 27.5696Z" fill="url(#paint65_linear_4224_25162)"/>
<path d="M30.3763 27.5293L28.1457 25.4673C28.1328 25.4724 28.1192 25.4767 28.1055 25.4818L30.3643 27.5695C30.3686 27.5567 30.372 27.543 30.3763 27.5293Z" fill="url(#paint66_linear_4224_25162)"/>
<path d="M30.3863 27.4877L28.1847 25.4521C28.1711 25.4564 28.1582 25.4616 28.1445 25.4667L30.3751 27.5287C30.3794 27.5159 30.3828 27.5022 30.3863 27.4877Z" fill="url(#paint67_linear_4224_25162)"/>
<path d="M30.4001 27.4466L28.2277 25.4385C28.214 25.4428 28.2012 25.4487 28.1875 25.453L30.389 27.4885C30.3924 27.474 30.3967 27.4603 30.4001 27.4466Z" fill="url(#paint68_linear_4224_25162)"/>
<path d="M30.4101 27.4047L28.2685 25.4248C28.2548 25.4291 28.2403 25.4334 28.2266 25.4376L30.399 27.4458C30.4024 27.4329 30.4075 27.4192 30.4101 27.4047Z" fill="url(#paint69_linear_4224_25162)"/>
<path d="M30.4149 27.3611L28.3093 25.4146C28.2947 25.4188 28.2802 25.4214 28.2656 25.4257L30.4072 27.4047C30.4107 27.3902 30.4124 27.3756 30.4149 27.3611Z" fill="url(#paint70_linear_4224_25162)"/>
<path d="M30.425 27.3155L28.3561 25.4023C28.3416 25.4058 28.327 25.41 28.3125 25.4135L30.4182 27.36C30.4207 27.3463 30.4225 27.3309 30.425 27.3155Z" fill="url(#paint71_linear_4224_25162)"/>
<path d="M30.4281 27.271L28.3952 25.3921C28.3807 25.3955 28.3661 25.3998 28.3516 25.4032L30.4204 27.3164C30.4239 27.301 30.4264 27.2856 30.4281 27.271Z" fill="url(#paint72_linear_4224_25162)"/>
<path d="M30.4382 27.2254L28.4455 25.3833C28.4301 25.3859 28.4138 25.3884 28.3984 25.391L30.4314 27.2699C30.434 27.2554 30.4365 27.2408 30.4382 27.2254Z" fill="url(#paint73_linear_4224_25162)"/>
<path d="M30.4406 27.1767L28.4932 25.3765C28.477 25.379 28.4616 25.3807 28.4453 25.3842L30.438 27.2263C30.4398 27.2092 30.4398 27.1929 30.4406 27.1767Z" fill="url(#paint74_linear_4224_25162)"/>
<path d="M30.4421 27.1279L28.5401 25.3696C28.5238 25.3713 28.5084 25.3748 28.4922 25.3773L30.4396 27.1775C30.4413 27.1604 30.4413 27.1442 30.4421 27.1279Z" fill="url(#paint75_linear_4224_25162)"/>
<path d="M30.4437 27.0783L28.5878 25.3628C28.5716 25.3645 28.5553 25.3671 28.5391 25.3688L30.4411 27.1271C30.442 27.1108 30.4437 27.0946 30.4437 27.0783Z" fill="url(#paint76_linear_4224_25162)"/>
<path d="M30.4474 27.0519C30.4474 27.0433 30.4465 27.0356 30.4465 27.0271L28.6429 25.3604C28.6258 25.3612 28.6078 25.3612 28.5898 25.3629L30.4457 27.0784C30.4457 27.0699 30.4474 27.0605 30.4474 27.0519Z" fill="url(#paint77_linear_4224_25162)"/>
<path d="M30.4417 26.9732L28.6937 25.3569C28.6757 25.3578 28.6586 25.3586 28.6406 25.3595L30.4443 27.0262C30.4443 27.0091 30.4426 26.9912 30.4417 26.9732Z" fill="url(#paint78_linear_4224_25162)"/>
<path d="M30.4408 26.9194L28.7484 25.3545C28.7304 25.3545 28.7133 25.3562 28.6953 25.3571L30.4433 26.9733C30.4425 26.9553 30.4416 26.9374 30.4408 26.9194Z" fill="url(#paint79_linear_4224_25162)"/>
<path d="M30.4351 26.8648L28.8051 25.358C28.7863 25.3572 28.7683 25.3555 28.7487 25.3555C28.7478 25.3555 28.7469 25.3555 28.7461 25.3555L30.4385 26.9204C30.4376 26.9016 30.4368 26.8827 30.4351 26.8648Z" fill="url(#paint80_linear_4224_25162)"/>
<path d="M30.4261 26.8048L28.8637 25.3605C28.844 25.3588 28.8244 25.3579 28.8047 25.3579L30.4346 26.8646C30.4329 26.8441 30.4295 26.8244 30.4261 26.8048Z" fill="url(#paint81_linear_4224_25162)"/>
<path d="M30.4162 26.7449L28.9223 25.3639C28.9026 25.3622 28.883 25.3622 28.8633 25.3613L30.4256 26.8056C30.4222 26.7851 30.4196 26.7645 30.4162 26.7449Z" fill="url(#paint82_linear_4224_25162)"/>
<path d="M30.4038 26.6813L28.9886 25.3731C28.9664 25.3696 28.945 25.3654 28.9219 25.3628L30.4158 26.7438C30.4124 26.7232 30.4081 26.7027 30.4038 26.6813Z" fill="url(#paint83_linear_4224_25162)"/>
<path d="M30.3864 26.6147L29.055 25.3843C29.0328 25.38 29.0105 25.3774 28.9883 25.374L30.4035 26.6823C30.3983 26.6592 30.3924 26.6369 30.3864 26.6147Z" fill="url(#paint84_linear_4224_25162)"/>
<path d="M30.3681 26.5471L29.1257 25.3988C29.1017 25.3937 29.0786 25.3886 29.0547 25.3843L30.386 26.6147C30.38 26.5924 30.3749 26.5693 30.3681 26.5471Z" fill="url(#paint85_linear_4224_25162)"/>
<path d="M30.343 26.4693L29.2059 25.4186C29.1802 25.4118 29.1546 25.4049 29.1289 25.3989L30.3713 26.5472C30.3636 26.5206 30.3524 26.4958 30.343 26.4693Z" fill="url(#paint86_linear_4224_25162)"/>
<path d="M30.3112 26.3921L29.2853 25.4433C29.2579 25.4339 29.2305 25.4262 29.2031 25.4185L30.3402 26.4692C30.33 26.4435 30.3214 26.417 30.3112 26.3921Z" fill="url(#paint87_linear_4224_25162)"/>
<path d="M30.2665 26.299L29.3767 25.4767C29.3468 25.4647 29.316 25.4536 29.2852 25.4434L30.311 26.3922C30.2974 26.3606 30.2819 26.3298 30.2665 26.299Z" fill="url(#paint88_linear_4224_25162)"/>
<path d="M30.214 26.197L29.4867 25.5253C29.4516 25.5082 29.4157 25.492 29.3789 25.4766L30.2687 26.2988C30.2516 26.2646 30.2337 26.2304 30.214 26.197Z" fill="url(#paint89_linear_4224_25162)"/>
<path d="M30.1334 26.0704L29.6218 25.5973C29.5781 25.5716 29.5336 25.5468 29.4883 25.5254L30.2156 26.197C30.1899 26.1534 30.1625 26.1115 30.1334 26.0704Z" fill="url(#paint90_linear_4224_25162)"/>
<path d="M29.6211 25.5977L30.1328 26.0708C29.9976 25.88 29.823 25.7192 29.6211 25.5977Z" fill="url(#paint91_linear_4224_25162)"/>
<path d="M27.8788 22.2178L27.3672 21.7446C27.5032 21.9354 27.6778 22.0963 27.8788 22.2178Z" fill="url(#paint92_linear_4224_25162)"/>
<path d="M27.3673 21.7448L27.879 22.2179C27.9226 22.2436 27.9671 22.2684 28.0124 22.2898L27.2852 21.6182C27.3108 21.6609 27.3382 21.7037 27.3673 21.7448Z" fill="url(#paint93_linear_4224_25162)"/>
<path d="M27.2852 21.6179L28.0125 22.2896C28.0476 22.3067 28.0835 22.323 28.1203 22.3384L27.2305 21.5161C27.2476 21.5503 27.2656 21.5846 27.2852 21.6179Z" fill="url(#paint94_linear_4224_25162)"/>
<path d="M27.232 21.5151L28.1218 22.3374C28.1518 22.3494 28.1826 22.3605 28.2134 22.3708L27.1875 21.4219C27.2003 21.4544 27.2166 21.4843 27.232 21.5151Z" fill="url(#paint95_linear_4224_25162)"/>
<path d="M27.1853 21.4227L28.2112 22.3716C28.2386 22.381 28.266 22.3887 28.2934 22.3964L27.1562 21.3457C27.1657 21.3714 27.1742 21.3979 27.1853 21.4227Z" fill="url(#paint96_linear_4224_25162)"/>
<path d="M27.1571 21.345L28.2943 22.3956C28.3199 22.4025 28.3456 22.4093 28.3713 22.4153L27.1289 21.2671C27.1375 21.2945 27.1477 21.3193 27.1571 21.345Z" fill="url(#paint97_linear_4224_25162)"/>
<path d="M27.1273 21.2678L28.3697 22.416C28.3937 22.4212 28.4168 22.4263 28.4407 22.4306L27.1094 21.2002C27.1162 21.2224 27.1205 21.2455 27.1273 21.2678Z" fill="url(#paint98_linear_4224_25162)"/>
<path d="M27.1109 21.2004L28.4422 22.4308C28.4645 22.4351 28.4867 22.4376 28.5089 22.441L27.0938 21.1328C27.0989 21.1559 27.1049 21.1782 27.1109 21.2004Z" fill="url(#paint99_linear_4224_25162)"/>
<path d="M27.094 21.1328L28.5092 22.441C28.5314 22.4444 28.5528 22.4487 28.5759 22.4513L27.082 21.0703C27.0846 21.0908 27.0889 21.1122 27.094 21.1328Z" fill="url(#paint100_linear_4224_25162)"/>
<path d="M27.0797 21.0701L28.5736 22.4511C28.5933 22.4528 28.613 22.4528 28.6327 22.4537L27.0703 21.0103C27.0737 21.0299 27.0763 21.0505 27.0797 21.0701Z" fill="url(#paint101_linear_4224_25162)"/>
<path d="M27.0711 21.0106L28.6334 22.4549C28.6531 22.4566 28.6728 22.4574 28.6925 22.4574L27.0625 20.9507C27.0642 20.9712 27.0685 20.99 27.0711 21.0106Z" fill="url(#paint102_linear_4224_25162)"/>
<path d="M27.062 20.9506L28.692 22.4574C28.7108 22.4582 28.7288 22.4599 28.7484 22.4599C28.7493 22.4599 28.7502 22.4599 28.751 22.4599L27.0586 20.895C27.0586 20.9138 27.0595 20.9327 27.062 20.9506Z" fill="url(#paint103_linear_4224_25162)"/>
<path d="M27.0573 20.8952L28.7497 22.4601C28.7676 22.4601 28.7847 22.4584 28.8027 22.4576L27.0547 20.8413C27.0555 20.8593 27.0555 20.8781 27.0573 20.8952Z" fill="url(#paint104_linear_4224_25162)"/>
<path d="M27.0573 20.8411L28.8053 22.4574C28.8233 22.4565 28.8404 22.4557 28.8583 22.4548L27.0547 20.7881C27.0547 20.8061 27.0564 20.8232 27.0573 20.8411Z" fill="url(#paint105_linear_4224_25162)"/>
<path d="M27.0508 20.7633C27.0508 20.7719 27.0516 20.7796 27.0516 20.7882L28.8553 22.4549C28.8724 22.454 28.8904 22.454 28.9083 22.4523L27.0525 20.7368C27.0516 20.7454 27.0508 20.7539 27.0508 20.7633Z" fill="url(#paint106_linear_4224_25162)"/>
<path d="M27.0547 20.7368L28.9105 22.4523C28.9268 22.4506 28.943 22.448 28.9593 22.4463L27.0573 20.688C27.0564 20.7034 27.0547 20.7196 27.0547 20.7368Z" fill="url(#paint107_linear_4224_25162)"/>
<path d="M27.0547 20.6868L28.9567 22.4451C28.973 22.4434 28.9884 22.44 29.0046 22.4374L27.0573 20.6372C27.0564 20.6543 27.0555 20.6706 27.0547 20.6868Z" fill="url(#paint108_linear_4224_25162)"/>
<path d="M27.0586 20.6385L29.006 22.4387C29.0222 22.4361 29.0376 22.4344 29.0539 22.431L27.0612 20.5889C27.0594 20.6051 27.0603 20.6222 27.0586 20.6385Z" fill="url(#paint109_linear_4224_25162)"/>
<path d="M27.0625 20.5894L29.0552 22.4316C29.0706 22.429 29.0869 22.4264 29.1023 22.4239L27.0693 20.5449C27.0676 20.5595 27.0642 20.574 27.0625 20.5894Z" fill="url(#paint110_linear_4224_25162)"/>
<path d="M27.0664 20.5444L29.0994 22.4233C29.1139 22.4199 29.1284 22.4156 29.143 22.4122L27.0741 20.499C27.0715 20.5144 27.069 20.529 27.0664 20.5444Z" fill="url(#paint111_linear_4224_25162)"/>
<path d="M27.0742 20.4986L29.1431 22.4117C29.1576 22.4083 29.1722 22.404 29.1867 22.4006L27.0811 20.4541C27.0785 20.4686 27.0768 20.484 27.0742 20.4986Z" fill="url(#paint112_linear_4224_25162)"/>
<path d="M27.082 20.4542L29.1877 22.4007C29.2023 22.3964 29.2168 22.3938 29.2313 22.3896L27.0897 20.4097C27.0872 20.4242 27.0846 20.4396 27.082 20.4542Z" fill="url(#paint113_linear_4224_25162)"/>
<path d="M27.0898 20.4097L29.2315 22.3896C29.2451 22.3853 29.2597 22.3811 29.2734 22.3768L27.101 20.3687C27.0967 20.3823 27.0924 20.396 27.0898 20.4097Z" fill="url(#paint114_linear_4224_25162)"/>
<path d="M27.1016 20.3686L29.274 22.3767C29.2877 22.3724 29.3005 22.3664 29.3142 22.3622L27.1127 20.3267C27.1084 20.3403 27.105 20.3549 27.1016 20.3686Z" fill="url(#paint115_linear_4224_25162)"/>
<path d="M27.1094 20.3267L29.3109 22.3622C29.3246 22.3579 29.3374 22.3528 29.3511 22.3477L27.1205 20.2856C27.1162 20.2993 27.1137 20.313 27.1094 20.3267Z" fill="url(#paint116_linear_4224_25162)"/>
<path d="M27.1211 20.2858L29.3517 22.3479C29.3645 22.3427 29.3782 22.3384 29.3919 22.3333L27.1331 20.2456C27.1288 20.2584 27.1254 20.2721 27.1211 20.2858Z" fill="url(#paint117_linear_4224_25162)"/>
<path d="M27.1328 20.2455L29.3916 22.3332C29.4045 22.3281 29.4173 22.3221 29.4293 22.317L27.1465 20.207C27.1422 20.2199 27.1371 20.2318 27.1328 20.2455Z" fill="url(#paint118_linear_4224_25162)"/>
<path d="M27.1484 20.207L29.4312 22.3169C29.4441 22.3118 29.4552 22.3049 29.468 22.2989L27.163 20.1685C27.1578 20.1813 27.1527 20.1941 27.1484 20.207Z" fill="url(#paint119_linear_4224_25162)"/>
<path d="M27.1602 20.1688L29.4652 22.2992C29.4772 22.2932 29.49 22.2873 29.502 22.2813L27.1747 20.1294C27.1687 20.1431 27.1644 20.1559 27.1602 20.1688Z" fill="url(#paint120_linear_4224_25162)"/>
<path d="M27.1758 20.1299L29.5031 22.2818C29.515 22.2758 29.5279 22.2707 29.5399 22.2638L27.1903 20.0923C27.1852 20.1051 27.1809 20.1171 27.1758 20.1299Z" fill="url(#paint121_linear_4224_25162)"/>
<path d="M27.1914 20.0922L29.5409 22.2638C29.5529 22.2578 29.564 22.2509 29.576 22.2449L27.2085 20.0571C27.2034 20.0691 27.1974 20.0802 27.1914 20.0922Z" fill="url(#paint122_linear_4224_25162)"/>
<path d="M27.207 20.0574L29.5745 22.2452C29.5856 22.2392 29.5968 22.2315 29.6079 22.2247L27.2241 20.0215C27.219 20.0335 27.213 20.0454 27.207 20.0574Z" fill="url(#paint123_linear_4224_25162)"/>
<path d="M27.2227 20.0213L29.6064 22.2245C29.6175 22.2177 29.6287 22.2108 29.6398 22.204L27.2398 19.9854C27.2338 19.9973 27.2286 20.0093 27.2227 20.0213Z" fill="url(#paint124_linear_4224_25162)"/>
<path d="M27.2422 19.9863L29.6422 22.2049C29.6533 22.198 29.6644 22.192 29.6756 22.1843L27.2593 19.9512C27.2533 19.9623 27.2482 19.9743 27.2422 19.9863Z" fill="url(#paint125_linear_4224_25162)"/>
<path d="M27.2578 19.9504L29.6741 22.1835C29.6852 22.1767 29.6963 22.1698 29.7066 22.1621L27.2775 19.917C27.2715 19.929 27.2638 19.9392 27.2578 19.9504Z" fill="url(#paint126_linear_4224_25162)"/>
<path d="M27.2773 19.9176L29.7064 22.1628C29.7167 22.1559 29.727 22.1474 29.7372 22.1397L27.2979 19.8843C27.291 19.8954 27.2842 19.9065 27.2773 19.9176Z" fill="url(#paint127_linear_4224_25162)"/>
<path d="M27.3008 19.8846L29.7401 22.14C29.7504 22.1323 29.7607 22.1246 29.771 22.1169L27.3205 19.8521C27.3136 19.8632 27.3068 19.8743 27.3008 19.8846Z" fill="url(#paint128_linear_4224_25162)"/>
<path d="M27.34 19.8193C27.3331 19.8296 27.3272 19.8416 27.3203 19.8518L29.7708 22.1167C29.7811 22.109 29.7913 22.1013 29.8016 22.0936L27.34 19.8193Z" fill="url(#paint129_linear_4224_25162)"/>
<path d="M27.3621 19.7886C27.3544 19.7988 27.3467 19.8091 27.3398 19.8194L29.8006 22.0945C29.8109 22.0868 29.8211 22.0791 29.8314 22.0714L27.3621 19.7886Z" fill="url(#paint130_linear_4224_25162)"/>
<path d="M27.3825 19.7578C27.3748 19.7681 27.3671 19.7775 27.3594 19.7878L29.8287 22.0705C29.8381 22.0628 29.8475 22.0534 29.8569 22.0449L27.3825 19.7578Z" fill="url(#paint131_linear_4224_25162)"/>
<path d="M27.4059 19.728C27.3982 19.7383 27.3905 19.7486 27.3828 19.758L29.8573 22.045C29.8667 22.0365 29.8761 22.0279 29.8855 22.0194L27.4059 19.728Z" fill="url(#paint132_linear_4224_25162)"/>
<path d="M27.4294 19.6973C27.4217 19.7067 27.414 19.7178 27.4062 19.7272L29.8858 22.0194C29.8952 22.0108 29.9047 22.0023 29.9141 21.9937L27.4294 19.6973Z" fill="url(#paint133_linear_4224_25162)"/>
<path d="M27.4536 19.668C27.4451 19.6774 27.4374 19.6868 27.4297 19.6971L29.9144 21.9944C29.9238 21.9858 29.9332 21.9781 29.9426 21.9687L27.4536 19.668Z" fill="url(#paint134_linear_4224_25162)"/>
<path d="M27.4788 19.6406C27.4702 19.65 27.4617 19.6586 27.4531 19.6689L29.9421 21.9696C29.9507 21.9611 29.9592 21.9516 29.9678 21.9422L27.4788 19.6406Z" fill="url(#paint135_linear_4224_25162)"/>
<path d="M27.5022 19.6123C27.4937 19.6217 27.4851 19.6311 27.4766 19.6405L29.9664 21.9421C29.975 21.9327 29.9835 21.9233 29.9921 21.9139L27.5022 19.6123Z" fill="url(#paint136_linear_4224_25162)"/>
<path d="M27.5296 19.584C27.521 19.5934 27.5125 19.6028 27.5039 19.6122L29.9938 21.9138C30.0023 21.9044 30.0109 21.895 30.0194 21.8856L27.5296 19.584Z" fill="url(#paint137_linear_4224_25162)"/>
<path d="M27.5569 19.5566C27.5484 19.5652 27.5398 19.5746 27.5312 19.584L30.0211 21.8856C30.0297 21.8762 30.0382 21.8677 30.0468 21.8574L27.5569 19.5566Z" fill="url(#paint138_linear_4224_25162)"/>
<path d="M27.5829 19.5317C27.5735 19.5403 27.5641 19.548 27.5547 19.5574L30.0437 21.8582C30.0522 21.8487 30.0599 21.8393 30.0676 21.8291L27.5829 19.5317Z" fill="url(#paint139_linear_4224_25162)"/>
<path d="M27.6103 19.5063C27.6009 19.5149 27.5914 19.5235 27.582 19.532L30.0667 21.8293C30.0744 21.8199 30.0821 21.8088 30.0898 21.7994L27.6103 19.5063Z" fill="url(#paint140_linear_4224_25162)"/>
<path d="M27.6415 19.4805C27.6321 19.489 27.6227 19.4976 27.6133 19.5061L30.0929 21.7983C30.1006 21.7881 30.1083 21.7778 30.116 21.7684L27.6415 19.4805Z" fill="url(#paint141_linear_4224_25162)"/>
<path d="M27.6689 19.4551C27.6595 19.4628 27.65 19.4722 27.6406 19.4807L30.1151 21.7678C30.1228 21.7575 30.1305 21.7481 30.1382 21.7379L27.6689 19.4551Z" fill="url(#paint142_linear_4224_25162)"/>
<path d="M27.6988 19.4316C27.6885 19.4393 27.6782 19.447 27.668 19.4547L30.1373 21.7375C30.145 21.7273 30.1527 21.717 30.1595 21.7067L27.6988 19.4316Z" fill="url(#paint143_linear_4224_25162)"/>
<path d="M27.73 19.4097C27.7198 19.4174 27.7095 19.4251 27.6992 19.4328L30.16 21.7079C30.1668 21.6976 30.1728 21.6856 30.1797 21.6753L27.73 19.4097Z" fill="url(#paint144_linear_4224_25162)"/>
<path d="M27.7613 19.3867C27.7587 19.3893 27.7553 19.391 27.7527 19.3936C27.745 19.3987 27.7382 19.4047 27.7305 19.4098L30.181 21.6746C30.1878 21.6635 30.1946 21.6524 30.2006 21.6421L27.7613 19.3867Z" fill="url(#paint145_linear_4224_25162)"/>
<path d="M27.7925 19.3633C27.7823 19.3701 27.772 19.3787 27.7617 19.3864L30.2011 21.6418C30.2079 21.6307 30.2148 21.6204 30.2208 21.6093L27.7925 19.3633Z" fill="url(#paint146_linear_4224_25162)"/>
<path d="M27.8216 19.3418C27.8105 19.3486 27.7993 19.3555 27.7891 19.3632L30.2182 21.6083C30.225 21.5972 30.2319 21.5869 30.2378 21.5758L27.8216 19.3418Z" fill="url(#paint147_linear_4224_25162)"/>
<path d="M27.8576 19.3213C27.8465 19.3281 27.8353 19.3341 27.8242 19.3418L30.2405 21.575C30.2465 21.5639 30.2516 21.551 30.2576 21.5399L27.8576 19.3213Z" fill="url(#paint148_linear_4224_25162)"/>
<path d="M27.8888 19.3018C27.8777 19.3086 27.8666 19.3154 27.8555 19.3223L30.2555 21.5409C30.2615 21.5289 30.2666 21.5169 30.2726 21.505L27.8888 19.3018Z" fill="url(#paint149_linear_4224_25162)"/>
<path d="M27.924 19.2812C27.9129 19.2872 27.9017 19.2949 27.8906 19.3018L30.2744 21.505C30.2804 21.493 30.2864 21.481 30.2915 21.4691L27.924 19.2812Z" fill="url(#paint150_linear_4224_25162)"/>
<path d="M27.957 19.2622C27.945 19.2682 27.9339 19.275 27.9219 19.281L30.2894 21.4688C30.2945 21.4569 30.3013 21.4457 30.3065 21.4329L27.957 19.2622Z" fill="url(#paint151_linear_4224_25162)"/>
<path d="M27.9938 19.2446C27.9818 19.2506 27.969 19.2558 27.957 19.2626L30.3066 21.4341C30.3117 21.4222 30.3168 21.4093 30.3211 21.3965L27.9938 19.2446Z" fill="url(#paint152_linear_4224_25162)"/>
<path d="M28.0329 19.2266C28.0209 19.2326 28.0081 19.2385 27.9961 19.2445L30.3234 21.3964C30.3285 21.3836 30.3328 21.3707 30.3371 21.3579L28.0329 19.2266Z" fill="url(#paint153_linear_4224_25162)"/>
<path d="M28.068 19.2095C28.0552 19.2146 28.0441 19.2215 28.0312 19.2274L30.3363 21.3579C30.3414 21.3451 30.3457 21.3323 30.35 21.3194L28.068 19.2095Z" fill="url(#paint154_linear_4224_25162)"/>
<path d="M28.108 19.1934C28.0951 19.1985 28.0823 19.2045 28.0703 19.2096L30.3531 21.3196C30.3574 21.3067 30.3634 21.2939 30.3668 21.2811L28.108 19.1934Z" fill="url(#paint155_linear_4224_25162)"/>
<path d="M28.1457 19.1787C28.1328 19.1838 28.1192 19.1881 28.1055 19.1933L30.3643 21.281C30.3686 21.2673 30.372 21.2544 30.3763 21.2407L28.1457 19.1787Z" fill="url(#paint156_linear_4224_25162)"/>
<path d="M28.1847 19.1641C28.1711 19.1683 28.1582 19.1735 28.1445 19.1786L30.3751 21.2406C30.3794 21.227 30.382 21.2133 30.3854 21.1996L28.1847 19.1641Z" fill="url(#paint157_linear_4224_25162)"/>
<path d="M28.2238 19.1494C28.2101 19.1537 28.1973 19.1597 28.1836 19.164L30.3851 21.1995C30.3885 21.1858 30.3928 21.1721 30.3954 21.1575L28.2238 19.1494Z" fill="url(#paint158_linear_4224_25162)"/>
<path d="M28.2685 19.1367C28.2548 19.141 28.2403 19.1453 28.2266 19.1496L30.399 21.1577C30.4024 21.144 30.4067 21.1303 30.4092 21.1166L28.2685 19.1367Z" fill="url(#paint159_linear_4224_25162)"/>
<path d="M28.3093 19.1255C28.2947 19.1298 28.2802 19.1323 28.2656 19.1366L30.4072 21.1156C30.4107 21.1011 30.4124 21.0866 30.4149 21.0712L28.3093 19.1255Z" fill="url(#paint160_linear_4224_25162)"/>
<path d="M28.3561 19.1143C28.3416 19.1177 28.327 19.122 28.3125 19.1254L30.4182 21.0719C30.4207 21.0574 30.4225 21.042 30.425 21.0266L28.3561 19.1143Z" fill="url(#paint161_linear_4224_25162)"/>
<path d="M28.3991 19.1035C28.3846 19.1069 28.37 19.1112 28.3555 19.1146L30.4244 21.0278C30.4269 21.0124 30.4295 20.9978 30.4312 20.9824L28.3991 19.1035Z" fill="url(#paint162_linear_4224_25162)"/>
<path d="M28.4455 19.0947C28.4301 19.0973 28.4138 19.0999 28.3984 19.1024L30.4314 20.9814C30.4331 20.966 30.4365 20.9514 30.4382 20.936L28.4455 19.0947Z" fill="url(#paint163_linear_4224_25162)"/>
<path d="M28.4932 19.0879C28.477 19.0905 28.4616 19.0922 28.4453 19.0956L30.438 20.9377C30.4398 20.9215 30.4398 20.9052 30.4406 20.889L28.4932 19.0879Z" fill="url(#paint164_linear_4224_25162)"/>
<path d="M28.5401 19.0801C28.5238 19.0818 28.5084 19.0852 28.4922 19.0878L30.4396 20.888C30.4404 20.8717 30.4413 20.8555 30.4421 20.8392L28.5401 19.0801Z" fill="url(#paint165_linear_4224_25162)"/>
<path d="M28.5878 19.0742C28.5716 19.0759 28.5553 19.0785 28.5391 19.0802L30.4411 20.8385C30.442 20.8222 30.4437 20.806 30.4437 20.7897L28.5878 19.0742Z" fill="url(#paint166_linear_4224_25162)"/>
<path d="M28.6429 19.0718C28.6258 19.0726 28.6078 19.0726 28.5898 19.0743L30.4457 20.7899C30.4457 20.7804 30.4474 20.7719 30.4474 20.7633C30.4474 20.7548 30.4465 20.7471 30.4465 20.7385L28.6429 19.0718Z" fill="url(#paint167_linear_4224_25162)"/>
<path d="M28.6937 19.0693C28.6757 19.0702 28.6586 19.071 28.6406 19.0719L30.4443 20.7386C30.4443 20.7207 30.4426 20.7027 30.4417 20.6847L28.6937 19.0693Z" fill="url(#paint168_linear_4224_25162)"/>
<path d="M28.7484 19.0664C28.7304 19.0664 28.7133 19.0681 28.6953 19.069L30.4433 20.6852C30.4425 20.6673 30.4416 20.6493 30.4408 20.6313L28.7484 19.0664Z" fill="url(#paint169_linear_4224_25162)"/>
<path d="M28.8051 19.069C28.7863 19.0681 28.7683 19.0664 28.7487 19.0664C28.7478 19.0664 28.7469 19.0664 28.7461 19.0664L30.4385 20.6313C30.4368 20.6125 30.4359 20.5945 30.4342 20.5757L28.8051 19.069Z" fill="url(#paint170_linear_4224_25162)"/>
<path d="M28.8637 19.0719C28.844 19.0702 28.8244 19.0693 28.8047 19.0693L30.4346 20.5761C30.4321 20.5555 30.4286 20.5359 30.4252 20.5162L28.8637 19.0719Z" fill="url(#paint171_linear_4224_25162)"/>
<path d="M28.9223 19.0753C28.9026 19.0736 28.883 19.0736 28.8633 19.0728L30.4256 20.517C30.4231 20.4974 30.4205 20.4768 30.4162 20.4571L28.9223 19.0753Z" fill="url(#paint172_linear_4224_25162)"/>
<path d="M28.9886 19.0855C28.9664 19.082 28.945 19.0778 28.9219 19.0752L30.4158 20.4562C30.4115 20.4348 30.4081 20.4142 30.4029 20.3928L28.9886 19.0855Z" fill="url(#paint173_linear_4224_25162)"/>
<path d="M29.055 19.0957C29.0328 19.0914 29.0105 19.0889 28.9883 19.0854L30.4035 20.3937C30.3983 20.3706 30.3924 20.3483 30.3864 20.3261L29.055 19.0957Z" fill="url(#paint174_linear_4224_25162)"/>
<path d="M29.1257 19.1102C29.1017 19.1051 29.0786 19.1 29.0547 19.0957L30.386 20.3261C30.38 20.3038 30.3758 20.2807 30.3689 20.2585L29.1257 19.1102Z" fill="url(#paint175_linear_4224_25162)"/>
<path d="M29.2059 19.13C29.1802 19.1232 29.1546 19.1163 29.1289 19.1104L30.3713 20.2586C30.3627 20.2321 30.3524 20.2073 30.343 20.1807L29.2059 19.13Z" fill="url(#paint176_linear_4224_25162)"/>
<path d="M29.2853 19.1547C29.2579 19.1453 29.2305 19.1376 29.2031 19.1299L30.3402 20.1806C30.3308 20.1549 30.3223 20.1284 30.312 20.1027L29.2853 19.1547Z" fill="url(#paint177_linear_4224_25162)"/>
<path d="M29.3767 19.1882C29.3468 19.1762 29.316 19.1651 29.2852 19.1548L30.311 20.1037C30.2974 20.072 30.2819 20.0421 30.2665 20.0113L29.3767 19.1882Z" fill="url(#paint178_linear_4224_25162)"/>
<path d="M29.4867 19.2368C29.4516 19.2196 29.4157 19.2034 29.3789 19.188L30.2687 20.0102C30.2516 19.9752 30.2337 19.9418 30.214 19.9084L29.4867 19.2368Z" fill="url(#paint179_linear_4224_25162)"/>
<path d="M30.2147 19.9085C30.189 19.8648 30.1625 19.8229 30.1334 19.7818L29.6218 19.3087C29.5978 19.2941 29.5738 19.2796 29.549 19.2659C29.5294 19.2556 29.508 19.2462 29.4883 19.2368L30.2147 19.9085Z" fill="url(#paint180_linear_4224_25162)"/>
<path d="M29.6211 19.3086L30.1328 19.7817C29.9976 19.5909 29.823 19.4301 29.6211 19.3086Z" fill="url(#paint181_linear_4224_25162)"/>
<defs>
<linearGradient id="paint0_linear_4224_25162" x1="7.90922" y1="23.1232" x2="20.4255" y2="36.6633" gradientUnits="userSpaceOnUse">
<stop stop-color="#FF5059"/>
<stop offset="1" stop-color="#BC2BB3"/>
</linearGradient>
<linearGradient id="paint1_linear_4224_25162" x1="-4.47688" y1="48.8256" x2="34.0246" y2="7.17469" gradientUnits="userSpaceOnUse">
<stop stop-color="#FF5059"/>
<stop offset="1" stop-color="#BC2BB3"/>
</linearGradient>
<linearGradient id="paint2_linear_4224_25162" x1="27.3672" y1="28.2695" x2="27.879" y2="28.2695" gradientUnits="userSpaceOnUse">
<stop stop-color="#FF5059"/>
<stop offset="1" stop-color="#BC2BB3"/>
</linearGradient>
<linearGradient id="paint3_linear_4224_25162" x1="27.2858" y1="28.2424" x2="28.0128" y2="28.2424" gradientUnits="userSpaceOnUse">
<stop stop-color="#FF5059"/>
<stop offset="1" stop-color="#BC2BB3"/>
</linearGradient>
<linearGradient id="paint4_linear_4224_25162" x1="27.2309" y1="28.2158" x2="28.1208" y2="28.2158" gradientUnits="userSpaceOnUse">
<stop stop-color="#FF5059"/>
<stop offset="1" stop-color="#BC2BB3"/>
</linearGradient>
<linearGradient id="paint5_linear_4224_25162" x1="27.1871" y1="28.1859" x2="28.2134" y2="28.1859" gradientUnits="userSpaceOnUse">
<stop stop-color="#FF5059"/>
<stop offset="1" stop-color="#BC2BB3"/>
</linearGradient>
<linearGradient id="paint6_linear_4224_25162" x1="27.1565" y1="28.1598" x2="28.2936" y2="28.1598" gradientUnits="userSpaceOnUse">
<stop stop-color="#FF5059"/>
<stop offset="1" stop-color="#BC2BB3"/>
</linearGradient>
<linearGradient id="paint7_linear_4224_25162" x1="27.129" y1="28.1306" x2="28.3714" y2="28.1306" gradientUnits="userSpaceOnUse">
<stop stop-color="#FF5059"/>
<stop offset="1" stop-color="#BC2BB3"/>
</linearGradient>
<linearGradient id="paint8_linear_4224_25162" x1="27.1101" y1="28.1045" x2="28.4413" y2="28.1045" gradientUnits="userSpaceOnUse">
<stop stop-color="#FF5059"/>
<stop offset="1" stop-color="#BC2BB3"/>
</linearGradient>
<linearGradient id="paint9_linear_4224_25162" x1="27.0934" y1="28.0756" x2="28.5085" y2="28.0756" gradientUnits="userSpaceOnUse">
<stop stop-color="#FF5059"/>
<stop offset="1" stop-color="#BC2BB3"/>
</linearGradient>
<linearGradient id="paint10_linear_4224_25162" x1="27.082" y1="28.0492" x2="28.5761" y2="28.0492" gradientUnits="userSpaceOnUse">
<stop stop-color="#FF5059"/>
<stop offset="1" stop-color="#BC2BB3"/>
</linearGradient>
<linearGradient id="paint11_linear_4224_25162" x1="27.0706" y1="28.0211" x2="28.6326" y2="28.0211" gradientUnits="userSpaceOnUse">
<stop stop-color="#FF5059"/>
<stop offset="1" stop-color="#BC2BB3"/>
</linearGradient>
<linearGradient id="paint12_linear_4224_25162" x1="27.0622" y1="27.9924" x2="28.6921" y2="27.9924" gradientUnits="userSpaceOnUse">
<stop stop-color="#FF5059"/>
<stop offset="1" stop-color="#BC2BB3"/>
</linearGradient>
<linearGradient id="paint13_linear_4224_25162" x1="27.0575" y1="27.9663" x2="28.7501" y2="27.9663" gradientUnits="userSpaceOnUse">
<stop stop-color="#FF5059"/>
<stop offset="1" stop-color="#BC2BB3"/>
</linearGradient>
<linearGradient id="paint14_linear_4224_25162" x1="27.0543" y1="27.9395" x2="28.8023" y2="27.9395" gradientUnits="userSpaceOnUse">
<stop stop-color="#FF5059"/>
<stop offset="1" stop-color="#BC2BB3"/>
</linearGradient>
<linearGradient id="paint15_linear_4224_25162" x1="27.0541" y1="27.9111" x2="28.8576" y2="27.9111" gradientUnits="userSpaceOnUse">
<stop stop-color="#FF5059"/>
<stop offset="1" stop-color="#BC2BB3"/>
</linearGradient>
<linearGradient id="paint16_linear_4224_25162" x1="27.0507" y1="27.8842" x2="28.9081" y2="27.8842" gradientUnits="userSpaceOnUse">
<stop stop-color="#FF5059"/>
<stop offset="1" stop-color="#BC2BB3"/>
</linearGradient>
<linearGradient id="paint17_linear_4224_25162" x1="27.0543" y1="27.8582" x2="28.9592" y2="27.8582" gradientUnits="userSpaceOnUse">
<stop stop-color="#FF5059"/>
<stop offset="1" stop-color="#BC2BB3"/>
</linearGradient>
<linearGradient id="paint18_linear_4224_25162" x1="27.0542" y1="27.831" x2="29.0043" y2="27.831" gradientUnits="userSpaceOnUse">
<stop stop-color="#FF5059"/>
<stop offset="1" stop-color="#BC2BB3"/>
</linearGradient>
<linearGradient id="paint19_linear_4224_25162" x1="27.058" y1="27.8026" x2="29.0533" y2="27.8026" gradientUnits="userSpaceOnUse">
<stop stop-color="#FF5059"/>
<stop offset="1" stop-color="#BC2BB3"/>
</linearGradient>
<linearGradient id="paint20_linear_4224_25162" x1="27.0627" y1="27.7767" x2="29.1023" y2="27.7767" gradientUnits="userSpaceOnUse">
<stop stop-color="#FF5059"/>
<stop offset="1" stop-color="#BC2BB3"/>
</linearGradient>
<linearGradient id="paint21_linear_4224_25162" x1="27.0658" y1="27.7499" x2="29.142" y2="27.7499" gradientUnits="userSpaceOnUse">
<stop stop-color="#FF5059"/>
<stop offset="1" stop-color="#BC2BB3"/>
</linearGradient>
<linearGradient id="paint22_linear_4224_25162" x1="27.0736" y1="27.7219" x2="29.1864" y2="27.7219" gradientUnits="userSpaceOnUse">
<stop stop-color="#FF5059"/>
<stop offset="1" stop-color="#BC2BB3"/>
</linearGradient>
<linearGradient id="paint23_linear_4224_25162" x1="27.0814" y1="27.6943" x2="29.2308" y2="27.6943" gradientUnits="userSpaceOnUse">
<stop stop-color="#FF5059"/>
<stop offset="1" stop-color="#BC2BB3"/>
</linearGradient>
<linearGradient id="paint24_linear_4224_25162" x1="27.0894" y1="27.668" x2="29.2726" y2="27.668" gradientUnits="userSpaceOnUse">
<stop stop-color="#FF5059"/>
<stop offset="1" stop-color="#BC2BB3"/>
</linearGradient>
<linearGradient id="paint25_linear_4224_25162" x1="27.1007" y1="27.6408" x2="29.313" y2="27.6408" gradientUnits="userSpaceOnUse">
<stop stop-color="#FF5059"/>
<stop offset="1" stop-color="#BC2BB3"/>
</linearGradient>
<linearGradient id="paint26_linear_4224_25162" x1="27.112" y1="27.6129" x2="29.3534" y2="27.6129" gradientUnits="userSpaceOnUse">
<stop stop-color="#FF5059"/>
<stop offset="1" stop-color="#BC2BB3"/>
</linearGradient>
<linearGradient id="paint27_linear_4224_25162" x1="27.121" y1="27.5851" x2="29.3916" y2="27.5851" gradientUnits="userSpaceOnUse">
<stop stop-color="#FF5059"/>
<stop offset="1" stop-color="#BC2BB3"/>
</linearGradient>
<linearGradient id="paint28_linear_4224_25162" x1="27.1326" y1="27.5585" x2="29.4294" y2="27.5585" gradientUnits="userSpaceOnUse">
<stop stop-color="#FF5059"/>
<stop offset="1" stop-color="#BC2BB3"/>
</linearGradient>
<linearGradient id="paint29_linear_4224_25162" x1="27.1477" y1="27.5316" x2="29.4669" y2="27.5316" gradientUnits="userSpaceOnUse">
<stop stop-color="#FF5059"/>
<stop offset="1" stop-color="#BC2BB3"/>
</linearGradient>
<linearGradient id="paint30_linear_4224_25162" x1="27.1629" y1="27.5034" x2="29.5046" y2="27.5034" gradientUnits="userSpaceOnUse">
<stop stop-color="#FF5059"/>
<stop offset="1" stop-color="#BC2BB3"/>
</linearGradient>
<linearGradient id="paint31_linear_4224_25162" x1="27.1758" y1="27.476" x2="29.54" y2="27.476" gradientUnits="userSpaceOnUse">
<stop stop-color="#FF5059"/>
<stop offset="1" stop-color="#BC2BB3"/>
</linearGradient>
<linearGradient id="paint32_linear_4224_25162" x1="27.1918" y1="27.4494" x2="29.5761" y2="27.4494" gradientUnits="userSpaceOnUse">
<stop stop-color="#FF5059"/>
<stop offset="1" stop-color="#BC2BB3"/>
</linearGradient>
<linearGradient id="paint33_linear_4224_25162" x1="27.2074" y1="27.4219" x2="29.6081" y2="27.4219" gradientUnits="userSpaceOnUse">
<stop stop-color="#FF5059"/>
<stop offset="1" stop-color="#BC2BB3"/>
</linearGradient>
<linearGradient id="paint34_linear_4224_25162" x1="27.223" y1="27.3943" x2="29.6401" y2="27.3943" gradientUnits="userSpaceOnUse">
<stop stop-color="#FF5059"/>
<stop offset="1" stop-color="#BC2BB3"/>
</linearGradient>
<linearGradient id="paint35_linear_4224_25162" x1="27.2426" y1="27.3664" x2="29.6761" y2="27.3664" gradientUnits="userSpaceOnUse">
<stop stop-color="#FF5059"/>
<stop offset="1" stop-color="#BC2BB3"/>
</linearGradient>
<linearGradient id="paint36_linear_4224_25162" x1="27.2577" y1="27.3396" x2="29.7064" y2="27.3396" gradientUnits="userSpaceOnUse">
<stop stop-color="#FF5059"/>
<stop offset="1" stop-color="#BC2BB3"/>
</linearGradient>
<linearGradient id="paint37_linear_4224_25162" x1="27.2805" y1="27.3127" x2="29.74" y2="27.3127" gradientUnits="userSpaceOnUse">
<stop stop-color="#FF5059"/>
<stop offset="1" stop-color="#BC2BB3"/>
</linearGradient>
<linearGradient id="paint38_linear_4224_25162" x1="27.3004" y1="27.2846" x2="29.7705" y2="27.2846" gradientUnits="userSpaceOnUse">
<stop stop-color="#FF5059"/>
<stop offset="1" stop-color="#BC2BB3"/>
</linearGradient>
<linearGradient id="paint39_linear_4224_25162" x1="27.3194" y1="27.2568" x2="29.8002" y2="27.2568" gradientUnits="userSpaceOnUse">
<stop stop-color="#FF5059"/>
<stop offset="1" stop-color="#BC2BB3"/>
</linearGradient>
<linearGradient id="paint40_linear_4224_25162" x1="27.34" y1="27.23" x2="29.8315" y2="27.23" gradientUnits="userSpaceOnUse">
<stop stop-color="#FF5059"/>
<stop offset="1" stop-color="#BC2BB3"/>
</linearGradient>
<linearGradient id="paint41_linear_4224_25162" x1="27.3596" y1="27.2029" x2="29.8568" y2="27.2029" gradientUnits="userSpaceOnUse">
<stop stop-color="#FF5059"/>
<stop offset="1" stop-color="#BC2BB3"/>
</linearGradient>
<linearGradient id="paint42_linear_4224_25162" x1="27.3827" y1="27.1751" x2="29.8851" y2="27.1751" gradientUnits="userSpaceOnUse">
<stop stop-color="#FF5059"/>
<stop offset="1" stop-color="#BC2BB3"/>
</linearGradient>
<linearGradient id="paint43_linear_4224_25162" x1="27.4057" y1="27.1473" x2="29.9135" y2="27.1473" gradientUnits="userSpaceOnUse">
<stop stop-color="#FF5059"/>
<stop offset="1" stop-color="#BC2BB3"/>
</linearGradient>
<linearGradient id="paint44_linear_4224_25162" x1="27.4296" y1="27.1204" x2="29.9427" y2="27.1204" gradientUnits="userSpaceOnUse">
<stop stop-color="#FF5059"/>
<stop offset="1" stop-color="#BC2BB3"/>
</linearGradient>
<linearGradient id="paint45_linear_4224_25162" x1="27.4541" y1="27.0936" x2="29.969" y2="27.0936" gradientUnits="userSpaceOnUse">
<stop stop-color="#FF5059"/>
<stop offset="1" stop-color="#BC2BB3"/>
</linearGradient>
<linearGradient id="paint46_linear_4224_25162" x1="27.4773" y1="27.0659" x2="29.9921" y2="27.0659" gradientUnits="userSpaceOnUse">
<stop stop-color="#FF5059"/>
<stop offset="1" stop-color="#BC2BB3"/>
</linearGradient>
<linearGradient id="paint47_linear_4224_25162" x1="27.5043" y1="27.038" x2="30.0192" y2="27.038" gradientUnits="userSpaceOnUse">
<stop stop-color="#FF5059"/>
<stop offset="1" stop-color="#BC2BB3"/>
</linearGradient>
<linearGradient id="paint48_linear_4224_25162" x1="27.5305" y1="27.0104" x2="30.0454" y2="27.0104" gradientUnits="userSpaceOnUse">
<stop stop-color="#FF5059"/>
<stop offset="1" stop-color="#BC2BB3"/>
</linearGradient>
<linearGradient id="paint49_linear_4224_25162" x1="27.5551" y1="26.9835" x2="30.0681" y2="26.9835" gradientUnits="userSpaceOnUse">
<stop stop-color="#FF5059"/>
<stop offset="1" stop-color="#BC2BB3"/>
</linearGradient>
<linearGradient id="paint50_linear_4224_25162" x1="27.5853" y1="26.9563" x2="30.093" y2="26.9563" gradientUnits="userSpaceOnUse">
<stop stop-color="#FF5059"/>
<stop offset="1" stop-color="#BC2BB3"/>
</linearGradient>
<linearGradient id="paint51_linear_4224_25162" x1="27.6132" y1="26.9282" x2="30.1157" y2="26.9282" gradientUnits="userSpaceOnUse">
<stop stop-color="#FF5059"/>
<stop offset="1" stop-color="#BC2BB3"/>
</linearGradient>
<linearGradient id="paint52_linear_4224_25162" x1="27.6404" y1="26.9006" x2="30.1375" y2="26.9006" gradientUnits="userSpaceOnUse">
<stop stop-color="#FF5059"/>
<stop offset="1" stop-color="#BC2BB3"/>
</linearGradient>
<linearGradient id="paint53_linear_4224_25162" x1="27.6683" y1="26.8739" x2="30.1598" y2="26.8739" gradientUnits="userSpaceOnUse">
<stop stop-color="#FF5059"/>
<stop offset="1" stop-color="#BC2BB3"/>
</linearGradient>
<linearGradient id="paint54_linear_4224_25162" x1="27.7002" y1="26.8468" x2="30.181" y2="26.8468" gradientUnits="userSpaceOnUse">
<stop stop-color="#FF5059"/>
<stop offset="1" stop-color="#BC2BB3"/>
</linearGradient>
<linearGradient id="paint55_linear_4224_25162" x1="27.7305" y1="26.819" x2="30.2006" y2="26.819" gradientUnits="userSpaceOnUse">
<stop stop-color="#FF5059"/>
<stop offset="1" stop-color="#BC2BB3"/>
</linearGradient>
<linearGradient id="paint56_linear_4224_25162" x1="27.7586" y1="26.7912" x2="30.218" y2="26.7912" gradientUnits="userSpaceOnUse">
<stop stop-color="#FF5059"/>
<stop offset="1" stop-color="#BC2BB3"/>
</linearGradient>
<linearGradient id="paint57_linear_4224_25162" x1="27.7897" y1="26.7642" x2="30.2384" y2="26.7642" gradientUnits="userSpaceOnUse">
<stop stop-color="#FF5059"/>
<stop offset="1" stop-color="#BC2BB3"/>
</linearGradient>
<linearGradient id="paint58_linear_4224_25162" x1="27.8241" y1="26.7375" x2="30.2576" y2="26.7375" gradientUnits="userSpaceOnUse">
<stop stop-color="#FF5059"/>
<stop offset="1" stop-color="#BC2BB3"/>
</linearGradient>
<linearGradient id="paint59_linear_4224_25162" x1="27.8555" y1="26.7097" x2="30.2726" y2="26.7097" gradientUnits="userSpaceOnUse">
<stop stop-color="#FF5059"/>
<stop offset="1" stop-color="#BC2BB3"/>
</linearGradient>
<linearGradient id="paint60_linear_4224_25162" x1="27.8908" y1="26.6814" x2="30.2915" y2="26.6814" gradientUnits="userSpaceOnUse">
<stop stop-color="#FF5059"/>
<stop offset="1" stop-color="#BC2BB3"/>
</linearGradient>
<linearGradient id="paint61_linear_4224_25162" x1="27.9223" y1="26.6543" x2="30.3065" y2="26.6543" gradientUnits="userSpaceOnUse">
<stop stop-color="#FF5059"/>
<stop offset="1" stop-color="#BC2BB3"/>
</linearGradient>
<linearGradient id="paint62_linear_4224_25162" x1="27.9574" y1="26.6278" x2="30.3215" y2="26.6278" gradientUnits="userSpaceOnUse">
<stop stop-color="#FF5059"/>
<stop offset="1" stop-color="#BC2BB3"/>
</linearGradient>
<linearGradient id="paint63_linear_4224_25162" x1="27.9962" y1="26.6002" x2="30.3379" y2="26.6002" gradientUnits="userSpaceOnUse">
<stop stop-color="#FF5059"/>
<stop offset="1" stop-color="#BC2BB3"/>
</linearGradient>
<linearGradient id="paint64_linear_4224_25162" x1="28.0319" y1="26.5722" x2="30.3511" y2="26.5722" gradientUnits="userSpaceOnUse">
<stop stop-color="#FF5059"/>
<stop offset="1" stop-color="#BC2BB3"/>
</linearGradient>
<linearGradient id="paint65_linear_4224_25162" x1="28.0698" y1="26.545" x2="30.3666" y2="26.545" gradientUnits="userSpaceOnUse">
<stop stop-color="#FF5059"/>
<stop offset="1" stop-color="#BC2BB3"/>
</linearGradient>
<linearGradient id="paint66_linear_4224_25162" x1="28.1053" y1="26.5184" x2="30.3759" y2="26.5184" gradientUnits="userSpaceOnUse">
<stop stop-color="#FF5059"/>
<stop offset="1" stop-color="#BC2BB3"/>
</linearGradient>
<linearGradient id="paint67_linear_4224_25162" x1="28.1448" y1="26.4912" x2="30.3863" y2="26.4912" gradientUnits="userSpaceOnUse">
<stop stop-color="#FF5059"/>
<stop offset="1" stop-color="#BC2BB3"/>
</linearGradient>
<linearGradient id="paint68_linear_4224_25162" x1="28.1874" y1="26.4632" x2="30.3997" y2="26.4632" gradientUnits="userSpaceOnUse">
<stop stop-color="#FF5059"/>
<stop offset="1" stop-color="#BC2BB3"/>
</linearGradient>
<linearGradient id="paint69_linear_4224_25162" x1="28.2269" y1="26.436" x2="30.4101" y2="26.436" gradientUnits="userSpaceOnUse">
<stop stop-color="#FF5059"/>
<stop offset="1" stop-color="#BC2BB3"/>
</linearGradient>
<linearGradient id="paint70_linear_4224_25162" x1="28.2657" y1="26.4097" x2="30.4151" y2="26.4097" gradientUnits="userSpaceOnUse">
<stop stop-color="#FF5059"/>
<stop offset="1" stop-color="#BC2BB3"/>
</linearGradient>
<linearGradient id="paint71_linear_4224_25162" x1="28.3124" y1="26.3819" x2="30.4252" y2="26.3819" gradientUnits="userSpaceOnUse">
<stop stop-color="#FF5059"/>
<stop offset="1" stop-color="#BC2BB3"/>
</linearGradient>
<linearGradient id="paint72_linear_4224_25162" x1="28.3522" y1="26.3538" x2="30.4284" y2="26.3538" gradientUnits="userSpaceOnUse">
<stop stop-color="#FF5059"/>
<stop offset="1" stop-color="#BC2BB3"/>
</linearGradient>
<linearGradient id="paint73_linear_4224_25162" x1="28.3989" y1="26.327" x2="30.4385" y2="26.327" gradientUnits="userSpaceOnUse">
<stop stop-color="#FF5059"/>
<stop offset="1" stop-color="#BC2BB3"/>
</linearGradient>
<linearGradient id="paint74_linear_4224_25162" x1="28.4455" y1="26.3009" x2="30.4408" y2="26.3009" gradientUnits="userSpaceOnUse">
<stop stop-color="#FF5059"/>
<stop offset="1" stop-color="#BC2BB3"/>
</linearGradient>
<linearGradient id="paint75_linear_4224_25162" x1="28.4921" y1="26.2727" x2="30.4422" y2="26.2727" gradientUnits="userSpaceOnUse">
<stop stop-color="#FF5059"/>
<stop offset="1" stop-color="#BC2BB3"/>
</linearGradient>
<linearGradient id="paint76_linear_4224_25162" x1="28.5388" y1="26.2451" x2="30.4437" y2="26.2451" gradientUnits="userSpaceOnUse">
<stop stop-color="#FF5059"/>
<stop offset="1" stop-color="#BC2BB3"/>
</linearGradient>
<linearGradient id="paint77_linear_4224_25162" x1="28.5897" y1="26.2194" x2="30.447" y2="26.2194" gradientUnits="userSpaceOnUse">
<stop stop-color="#FF5059"/>
<stop offset="1" stop-color="#BC2BB3"/>
</linearGradient>
<linearGradient id="paint78_linear_4224_25162" x1="28.641" y1="26.1925" x2="30.4444" y2="26.1925" gradientUnits="userSpaceOnUse">
<stop stop-color="#FF5059"/>
<stop offset="1" stop-color="#BC2BB3"/>
</linearGradient>
<linearGradient id="paint79_linear_4224_25162" x1="28.6953" y1="26.1643" x2="30.4433" y2="26.1643" gradientUnits="userSpaceOnUse">
<stop stop-color="#FF5059"/>
<stop offset="1" stop-color="#BC2BB3"/>
</linearGradient>
<linearGradient id="paint80_linear_4224_25162" x1="28.7465" y1="26.1374" x2="30.4392" y2="26.1374" gradientUnits="userSpaceOnUse">
<stop stop-color="#FF5059"/>
<stop offset="1" stop-color="#BC2BB3"/>
</linearGradient>
<linearGradient id="paint81_linear_4224_25162" x1="28.8055" y1="26.1111" x2="30.4354" y2="26.1111" gradientUnits="userSpaceOnUse">
<stop stop-color="#FF5059"/>
<stop offset="1" stop-color="#BC2BB3"/>
</linearGradient>
<linearGradient id="paint82_linear_4224_25162" x1="28.8629" y1="26.0827" x2="30.425" y2="26.0827" gradientUnits="userSpaceOnUse">
<stop stop-color="#FF5059"/>
<stop offset="1" stop-color="#BC2BB3"/>
</linearGradient>
<linearGradient id="paint83_linear_4224_25162" x1="28.9221" y1="26.0541" x2="30.4162" y2="26.0541" gradientUnits="userSpaceOnUse">
<stop stop-color="#FF5059"/>
<stop offset="1" stop-color="#BC2BB3"/>
</linearGradient>
<linearGradient id="paint84_linear_4224_25162" x1="28.9883" y1="26.0278" x2="30.4034" y2="26.0278" gradientUnits="userSpaceOnUse">
<stop stop-color="#FF5059"/>
<stop offset="1" stop-color="#BC2BB3"/>
</linearGradient>
<linearGradient id="paint85_linear_4224_25162" x1="29.0545" y1="25.9991" x2="30.3857" y2="25.9991" gradientUnits="userSpaceOnUse">
<stop stop-color="#FF5059"/>
<stop offset="1" stop-color="#BC2BB3"/>
</linearGradient>
<linearGradient id="paint86_linear_4224_25162" x1="29.1292" y1="25.9729" x2="30.3716" y2="25.9729" gradientUnits="userSpaceOnUse">
<stop stop-color="#FF5059"/>
<stop offset="1" stop-color="#BC2BB3"/>
</linearGradient>
<linearGradient id="paint87_linear_4224_25162" x1="29.2025" y1="25.9439" x2="30.3395" y2="25.9439" gradientUnits="userSpaceOnUse">
<stop stop-color="#FF5059"/>
<stop offset="1" stop-color="#BC2BB3"/>
</linearGradient>
<linearGradient id="paint88_linear_4224_25162" x1="29.2847" y1="25.9175" x2="30.311" y2="25.9175" gradientUnits="userSpaceOnUse">
<stop stop-color="#FF5059"/>
<stop offset="1" stop-color="#BC2BB3"/>
</linearGradient>
<linearGradient id="paint89_linear_4224_25162" x1="29.3789" y1="25.8879" x2="30.2688" y2="25.8879" gradientUnits="userSpaceOnUse">
<stop stop-color="#FF5059"/>
<stop offset="1" stop-color="#BC2BB3"/>
</linearGradient>
<linearGradient id="paint90_linear_4224_25162" x1="29.4884" y1="25.8611" x2="30.2154" y2="25.8611" gradientUnits="userSpaceOnUse">
<stop stop-color="#FF5059"/>
<stop offset="1" stop-color="#BC2BB3"/>
</linearGradient>
<linearGradient id="paint91_linear_4224_25162" x1="29.6214" y1="25.8343" x2="30.1331" y2="25.8343" gradientUnits="userSpaceOnUse">
<stop stop-color="#FF5059"/>
<stop offset="1" stop-color="#BC2BB3"/>
</linearGradient>
<linearGradient id="paint92_linear_4224_25162" x1="27.3672" y1="21.9809" x2="27.879" y2="21.9809" gradientUnits="userSpaceOnUse">
<stop stop-color="#FF5059"/>
<stop offset="1" stop-color="#BC2BB3"/>
</linearGradient>
<linearGradient id="paint93_linear_4224_25162" x1="27.2858" y1="21.9538" x2="28.0128" y2="21.9538" gradientUnits="userSpaceOnUse">
<stop stop-color="#FF5059"/>
<stop offset="1" stop-color="#BC2BB3"/>
</linearGradient>
<linearGradient id="paint94_linear_4224_25162" x1="27.23" y1="21.9267" x2="28.1199" y2="21.9267" gradientUnits="userSpaceOnUse">
<stop stop-color="#FF5059"/>
<stop offset="1" stop-color="#BC2BB3"/>
</linearGradient>
<linearGradient id="paint95_linear_4224_25162" x1="27.1871" y1="21.8972" x2="28.2134" y2="21.8972" gradientUnits="userSpaceOnUse">
<stop stop-color="#FF5059"/>
<stop offset="1" stop-color="#BC2BB3"/>
</linearGradient>
<linearGradient id="paint96_linear_4224_25162" x1="27.1565" y1="21.8708" x2="28.2936" y2="21.8708" gradientUnits="userSpaceOnUse">
<stop stop-color="#FF5059"/>
<stop offset="1" stop-color="#BC2BB3"/>
</linearGradient>
<linearGradient id="paint97_linear_4224_25162" x1="27.129" y1="21.842" x2="28.3714" y2="21.842" gradientUnits="userSpaceOnUse">
<stop stop-color="#FF5059"/>
<stop offset="1" stop-color="#BC2BB3"/>
</linearGradient>
<linearGradient id="paint98_linear_4224_25162" x1="27.1101" y1="21.8155" x2="28.4413" y2="21.8155" gradientUnits="userSpaceOnUse">
<stop stop-color="#FF5059"/>
<stop offset="1" stop-color="#BC2BB3"/>
</linearGradient>
<linearGradient id="paint99_linear_4224_25162" x1="27.0934" y1="21.7871" x2="28.5085" y2="21.7871" gradientUnits="userSpaceOnUse">
<stop stop-color="#FF5059"/>
<stop offset="1" stop-color="#BC2BB3"/>
</linearGradient>
<linearGradient id="paint100_linear_4224_25162" x1="27.0812" y1="21.7606" x2="28.5753" y2="21.7606" gradientUnits="userSpaceOnUse">
<stop stop-color="#FF5059"/>
<stop offset="1" stop-color="#BC2BB3"/>
</linearGradient>
<linearGradient id="paint101_linear_4224_25162" x1="27.0706" y1="21.7321" x2="28.6326" y2="21.7321" gradientUnits="userSpaceOnUse">
<stop stop-color="#FF5059"/>
<stop offset="1" stop-color="#BC2BB3"/>
</linearGradient>
<linearGradient id="paint102_linear_4224_25162" x1="27.0622" y1="21.704" x2="28.6921" y2="21.704" gradientUnits="userSpaceOnUse">
<stop stop-color="#FF5059"/>
<stop offset="1" stop-color="#BC2BB3"/>
</linearGradient>
<linearGradient id="paint103_linear_4224_25162" x1="27.0575" y1="21.6777" x2="28.7501" y2="21.6777" gradientUnits="userSpaceOnUse">
<stop stop-color="#FF5059"/>
<stop offset="1" stop-color="#BC2BB3"/>
</linearGradient>
<linearGradient id="paint104_linear_4224_25162" x1="27.0543" y1="21.6509" x2="28.8023" y2="21.6509" gradientUnits="userSpaceOnUse">
<stop stop-color="#FF5059"/>
<stop offset="1" stop-color="#BC2BB3"/>
</linearGradient>
<linearGradient id="paint105_linear_4224_25162" x1="27.0541" y1="21.6225" x2="28.8576" y2="21.6225" gradientUnits="userSpaceOnUse">
<stop stop-color="#FF5059"/>
<stop offset="1" stop-color="#BC2BB3"/>
</linearGradient>
<linearGradient id="paint106_linear_4224_25162" x1="27.0507" y1="21.5956" x2="28.9081" y2="21.5956" gradientUnits="userSpaceOnUse">
<stop stop-color="#FF5059"/>
<stop offset="1" stop-color="#BC2BB3"/>
</linearGradient>
<linearGradient id="paint107_linear_4224_25162" x1="27.0543" y1="21.5697" x2="28.9592" y2="21.5697" gradientUnits="userSpaceOnUse">
<stop stop-color="#FF5059"/>
<stop offset="1" stop-color="#BC2BB3"/>
</linearGradient>
<linearGradient id="paint108_linear_4224_25162" x1="27.055" y1="21.5418" x2="29.0052" y2="21.5418" gradientUnits="userSpaceOnUse">
<stop stop-color="#FF5059"/>
<stop offset="1" stop-color="#BC2BB3"/>
</linearGradient>
<linearGradient id="paint109_linear_4224_25162" x1="27.0589" y1="21.5141" x2="29.0542" y2="21.5141" gradientUnits="userSpaceOnUse">
<stop stop-color="#FF5059"/>
<stop offset="1" stop-color="#BC2BB3"/>
</linearGradient>
<linearGradient id="paint110_linear_4224_25162" x1="27.0627" y1="21.4876" x2="29.1023" y2="21.4876" gradientUnits="userSpaceOnUse">
<stop stop-color="#FF5059"/>
<stop offset="1" stop-color="#BC2BB3"/>
</linearGradient>
<linearGradient id="paint111_linear_4224_25162" x1="27.0666" y1="21.4614" x2="29.1428" y2="21.4614" gradientUnits="userSpaceOnUse">
<stop stop-color="#FF5059"/>
<stop offset="1" stop-color="#BC2BB3"/>
</linearGradient>
<linearGradient id="paint112_linear_4224_25162" x1="27.0745" y1="21.4328" x2="29.1872" y2="21.4328" gradientUnits="userSpaceOnUse">
<stop stop-color="#FF5059"/>
<stop offset="1" stop-color="#BC2BB3"/>
</linearGradient>
<linearGradient id="paint113_linear_4224_25162" x1="27.0823" y1="21.4053" x2="29.2317" y2="21.4053" gradientUnits="userSpaceOnUse">
<stop stop-color="#FF5059"/>
<stop offset="1" stop-color="#BC2BB3"/>
</linearGradient>
<linearGradient id="paint114_linear_4224_25162" x1="27.0894" y1="21.379" x2="29.2726" y2="21.379" gradientUnits="userSpaceOnUse">
<stop stop-color="#FF5059"/>
<stop offset="1" stop-color="#BC2BB3"/>
</linearGradient>
<linearGradient id="paint115_linear_4224_25162" x1="27.1016" y1="21.3518" x2="29.3139" y2="21.3518" gradientUnits="userSpaceOnUse">
<stop stop-color="#FF5059"/>
<stop offset="1" stop-color="#BC2BB3"/>
</linearGradient>
<linearGradient id="paint116_linear_4224_25162" x1="27.1098" y1="21.3238" x2="29.3512" y2="21.3238" gradientUnits="userSpaceOnUse">
<stop stop-color="#FF5059"/>
<stop offset="1" stop-color="#BC2BB3"/>
</linearGradient>
<linearGradient id="paint117_linear_4224_25162" x1="27.121" y1="21.2965" x2="29.3916" y2="21.2965" gradientUnits="userSpaceOnUse">
<stop stop-color="#FF5059"/>
<stop offset="1" stop-color="#BC2BB3"/>
</linearGradient>
<linearGradient id="paint118_linear_4224_25162" x1="27.1326" y1="21.2699" x2="29.4294" y2="21.2699" gradientUnits="userSpaceOnUse">
<stop stop-color="#FF5059"/>
<stop offset="1" stop-color="#BC2BB3"/>
</linearGradient>
<linearGradient id="paint119_linear_4224_25162" x1="27.1486" y1="21.2426" x2="29.4678" y2="21.2426" gradientUnits="userSpaceOnUse">
<stop stop-color="#FF5059"/>
<stop offset="1" stop-color="#BC2BB3"/>
</linearGradient>
<linearGradient id="paint120_linear_4224_25162" x1="27.1598" y1="21.2149" x2="29.5015" y2="21.2149" gradientUnits="userSpaceOnUse">
<stop stop-color="#FF5059"/>
<stop offset="1" stop-color="#BC2BB3"/>
</linearGradient>
<linearGradient id="paint121_linear_4224_25162" x1="27.1758" y1="21.187" x2="29.54" y2="21.187" gradientUnits="userSpaceOnUse">
<stop stop-color="#FF5059"/>
<stop offset="1" stop-color="#BC2BB3"/>
</linearGradient>
<linearGradient id="paint122_linear_4224_25162" x1="27.1918" y1="21.1603" x2="29.5761" y2="21.1603" gradientUnits="userSpaceOnUse">
<stop stop-color="#FF5059"/>
<stop offset="1" stop-color="#BC2BB3"/>
</linearGradient>
<linearGradient id="paint123_linear_4224_25162" x1="27.2074" y1="21.1334" x2="29.6081" y2="21.1334" gradientUnits="userSpaceOnUse">
<stop stop-color="#FF5059"/>
<stop offset="1" stop-color="#BC2BB3"/>
</linearGradient>
<linearGradient id="paint124_linear_4224_25162" x1="27.223" y1="21.1052" x2="29.6401" y2="21.1052" gradientUnits="userSpaceOnUse">
<stop stop-color="#FF5059"/>
<stop offset="1" stop-color="#BC2BB3"/>
</linearGradient>
<linearGradient id="paint125_linear_4224_25162" x1="27.2426" y1="21.0775" x2="29.6761" y2="21.0775" gradientUnits="userSpaceOnUse">
<stop stop-color="#FF5059"/>
<stop offset="1" stop-color="#BC2BB3"/>
</linearGradient>
<linearGradient id="paint126_linear_4224_25162" x1="27.2577" y1="21.0509" x2="29.7064" y2="21.0509" gradientUnits="userSpaceOnUse">
<stop stop-color="#FF5059"/>
<stop offset="1" stop-color="#BC2BB3"/>
</linearGradient>
<linearGradient id="paint127_linear_4224_25162" x1="27.2775" y1="21.0236" x2="29.7369" y2="21.0236" gradientUnits="userSpaceOnUse">
<stop stop-color="#FF5059"/>
<stop offset="1" stop-color="#BC2BB3"/>
</linearGradient>
<linearGradient id="paint128_linear_4224_25162" x1="27.3004" y1="20.996" x2="29.7705" y2="20.996" gradientUnits="userSpaceOnUse">
<stop stop-color="#FF5059"/>
<stop offset="1" stop-color="#BC2BB3"/>
</linearGradient>
<linearGradient id="paint129_linear_4224_25162" x1="27.3202" y1="20.9679" x2="29.8011" y2="20.9679" gradientUnits="userSpaceOnUse">
<stop stop-color="#FF5059"/>
<stop offset="1" stop-color="#BC2BB3"/>
</linearGradient>
<linearGradient id="paint130_linear_4224_25162" x1="27.34" y1="20.9411" x2="29.8315" y2="20.9411" gradientUnits="userSpaceOnUse">
<stop stop-color="#FF5059"/>
<stop offset="1" stop-color="#BC2BB3"/>
</linearGradient>
<linearGradient id="paint131_linear_4224_25162" x1="27.3596" y1="20.9144" x2="29.8568" y2="20.9144" gradientUnits="userSpaceOnUse">
<stop stop-color="#FF5059"/>
<stop offset="1" stop-color="#BC2BB3"/>
</linearGradient>
<linearGradient id="paint132_linear_4224_25162" x1="27.3835" y1="20.8866" x2="29.886" y2="20.8866" gradientUnits="userSpaceOnUse">
<stop stop-color="#FF5059"/>
<stop offset="1" stop-color="#BC2BB3"/>
</linearGradient>
<linearGradient id="paint133_linear_4224_25162" x1="27.4066" y1="20.8587" x2="29.9143" y2="20.8587" gradientUnits="userSpaceOnUse">
<stop stop-color="#FF5059"/>
<stop offset="1" stop-color="#BC2BB3"/>
</linearGradient>
<linearGradient id="paint134_linear_4224_25162" x1="27.4296" y1="20.8313" x2="29.9427" y2="20.8313" gradientUnits="userSpaceOnUse">
<stop stop-color="#FF5059"/>
<stop offset="1" stop-color="#BC2BB3"/>
</linearGradient>
<linearGradient id="paint135_linear_4224_25162" x1="27.4533" y1="20.8046" x2="29.9681" y2="20.8046" gradientUnits="userSpaceOnUse">
<stop stop-color="#FF5059"/>
<stop offset="1" stop-color="#BC2BB3"/>
</linearGradient>
<linearGradient id="paint136_linear_4224_25162" x1="27.4773" y1="20.7769" x2="29.9921" y2="20.7769" gradientUnits="userSpaceOnUse">
<stop stop-color="#FF5059"/>
<stop offset="1" stop-color="#BC2BB3"/>
</linearGradient>
<linearGradient id="paint137_linear_4224_25162" x1="27.5043" y1="20.7489" x2="30.0192" y2="20.7489" gradientUnits="userSpaceOnUse">
<stop stop-color="#FF5059"/>
<stop offset="1" stop-color="#BC2BB3"/>
</linearGradient>
<linearGradient id="paint138_linear_4224_25162" x1="27.5313" y1="20.7214" x2="30.0462" y2="20.7214" gradientUnits="userSpaceOnUse">
<stop stop-color="#FF5059"/>
<stop offset="1" stop-color="#BC2BB3"/>
</linearGradient>
<linearGradient id="paint139_linear_4224_25162" x1="27.5551" y1="20.6946" x2="30.0681" y2="20.6946" gradientUnits="userSpaceOnUse">
<stop stop-color="#FF5059"/>
<stop offset="1" stop-color="#BC2BB3"/>
</linearGradient>
<linearGradient id="paint140_linear_4224_25162" x1="27.5822" y1="20.6676" x2="30.09" y2="20.6676" gradientUnits="userSpaceOnUse">
<stop stop-color="#FF5059"/>
<stop offset="1" stop-color="#BC2BB3"/>
</linearGradient>
<linearGradient id="paint141_linear_4224_25162" x1="27.6132" y1="20.6395" x2="30.1157" y2="20.6395" gradientUnits="userSpaceOnUse">
<stop stop-color="#FF5059"/>
<stop offset="1" stop-color="#BC2BB3"/>
</linearGradient>
<linearGradient id="paint142_linear_4224_25162" x1="27.6412" y1="20.6119" x2="30.1384" y2="20.6119" gradientUnits="userSpaceOnUse">
<stop stop-color="#FF5059"/>
<stop offset="1" stop-color="#BC2BB3"/>
</linearGradient>
<linearGradient id="paint143_linear_4224_25162" x1="27.6683" y1="20.5848" x2="30.1598" y2="20.5848" gradientUnits="userSpaceOnUse">
<stop stop-color="#FF5059"/>
<stop offset="1" stop-color="#BC2BB3"/>
</linearGradient>
<linearGradient id="paint144_linear_4224_25162" x1="27.6993" y1="20.5582" x2="30.1802" y2="20.5582" gradientUnits="userSpaceOnUse">
<stop stop-color="#FF5059"/>
<stop offset="1" stop-color="#BC2BB3"/>
</linearGradient>
<linearGradient id="paint145_linear_4224_25162" x1="27.7305" y1="20.5304" x2="30.2006" y2="20.5304" gradientUnits="userSpaceOnUse">
<stop stop-color="#FF5059"/>
<stop offset="1" stop-color="#BC2BB3"/>
</linearGradient>
<linearGradient id="paint146_linear_4224_25162" x1="27.7616" y1="20.5022" x2="30.2211" y2="20.5022" gradientUnits="userSpaceOnUse">
<stop stop-color="#FF5059"/>
<stop offset="1" stop-color="#BC2BB3"/>
</linearGradient>
<linearGradient id="paint147_linear_4224_25162" x1="27.7889" y1="20.475" x2="30.2376" y2="20.475" gradientUnits="userSpaceOnUse">
<stop stop-color="#FF5059"/>
<stop offset="1" stop-color="#BC2BB3"/>
</linearGradient>
<linearGradient id="paint148_linear_4224_25162" x1="27.8241" y1="20.4484" x2="30.2576" y2="20.4484" gradientUnits="userSpaceOnUse">
<stop stop-color="#FF5059"/>
<stop offset="1" stop-color="#BC2BB3"/>
</linearGradient>
<linearGradient id="paint149_linear_4224_25162" x1="27.8555" y1="20.4208" x2="30.2726" y2="20.4208" gradientUnits="userSpaceOnUse">
<stop stop-color="#FF5059"/>
<stop offset="1" stop-color="#BC2BB3"/>
</linearGradient>
<linearGradient id="paint150_linear_4224_25162" x1="27.8908" y1="20.3929" x2="30.2915" y2="20.3929" gradientUnits="userSpaceOnUse">
<stop stop-color="#FF5059"/>
<stop offset="1" stop-color="#BC2BB3"/>
</linearGradient>
<linearGradient id="paint151_linear_4224_25162" x1="27.9223" y1="20.3654" x2="30.3065" y2="20.3654" gradientUnits="userSpaceOnUse">
<stop stop-color="#FF5059"/>
<stop offset="1" stop-color="#BC2BB3"/>
</linearGradient>
<linearGradient id="paint152_linear_4224_25162" x1="27.9574" y1="20.3392" x2="30.3215" y2="20.3392" gradientUnits="userSpaceOnUse">
<stop stop-color="#FF5059"/>
<stop offset="1" stop-color="#BC2BB3"/>
</linearGradient>
<linearGradient id="paint153_linear_4224_25162" x1="27.9962" y1="20.3115" x2="30.3379" y2="20.3115" gradientUnits="userSpaceOnUse">
<stop stop-color="#FF5059"/>
<stop offset="1" stop-color="#BC2BB3"/>
</linearGradient>
<linearGradient id="paint154_linear_4224_25162" x1="28.0319" y1="20.2836" x2="30.3511" y2="20.2836" gradientUnits="userSpaceOnUse">
<stop stop-color="#FF5059"/>
<stop offset="1" stop-color="#BC2BB3"/>
</linearGradient>
<linearGradient id="paint155_linear_4224_25162" x1="28.0698" y1="20.2564" x2="30.3666" y2="20.2564" gradientUnits="userSpaceOnUse">
<stop stop-color="#FF5059"/>
<stop offset="1" stop-color="#BC2BB3"/>
</linearGradient>
<linearGradient id="paint156_linear_4224_25162" x1="28.1062" y1="20.2298" x2="30.3768" y2="20.2298" gradientUnits="userSpaceOnUse">
<stop stop-color="#FF5059"/>
<stop offset="1" stop-color="#BC2BB3"/>
</linearGradient>
<linearGradient id="paint157_linear_4224_25162" x1="28.1448" y1="20.2022" x2="30.3863" y2="20.2022" gradientUnits="userSpaceOnUse">
<stop stop-color="#FF5059"/>
<stop offset="1" stop-color="#BC2BB3"/>
</linearGradient>
<linearGradient id="paint158_linear_4224_25162" x1="28.1843" y1="20.1741" x2="30.3967" y2="20.1741" gradientUnits="userSpaceOnUse">
<stop stop-color="#FF5059"/>
<stop offset="1" stop-color="#BC2BB3"/>
</linearGradient>
<linearGradient id="paint159_linear_4224_25162" x1="28.2269" y1="20.1471" x2="30.4101" y2="20.1471" gradientUnits="userSpaceOnUse">
<stop stop-color="#FF5059"/>
<stop offset="1" stop-color="#BC2BB3"/>
</linearGradient>
<linearGradient id="paint160_linear_4224_25162" x1="28.2657" y1="20.1207" x2="30.4151" y2="20.1207" gradientUnits="userSpaceOnUse">
<stop stop-color="#FF5059"/>
<stop offset="1" stop-color="#BC2BB3"/>
</linearGradient>
<linearGradient id="paint161_linear_4224_25162" x1="28.3124" y1="20.0929" x2="30.4252" y2="20.0929" gradientUnits="userSpaceOnUse">
<stop stop-color="#FF5059"/>
<stop offset="1" stop-color="#BC2BB3"/>
</linearGradient>
<linearGradient id="paint162_linear_4224_25162" x1="28.3552" y1="20.0652" x2="30.4314" y2="20.0652" gradientUnits="userSpaceOnUse">
<stop stop-color="#FF5059"/>
<stop offset="1" stop-color="#BC2BB3"/>
</linearGradient>
<linearGradient id="paint163_linear_4224_25162" x1="28.3989" y1="20.0384" x2="30.4385" y2="20.0384" gradientUnits="userSpaceOnUse">
<stop stop-color="#FF5059"/>
<stop offset="1" stop-color="#BC2BB3"/>
</linearGradient>
<linearGradient id="paint164_linear_4224_25162" x1="28.4455" y1="20.0123" x2="30.4408" y2="20.0123" gradientUnits="userSpaceOnUse">
<stop stop-color="#FF5059"/>
<stop offset="1" stop-color="#BC2BB3"/>
</linearGradient>
<linearGradient id="paint165_linear_4224_25162" x1="28.4921" y1="19.984" x2="30.4422" y2="19.984" gradientUnits="userSpaceOnUse">
<stop stop-color="#FF5059"/>
<stop offset="1" stop-color="#BC2BB3"/>
</linearGradient>
<linearGradient id="paint166_linear_4224_25162" x1="28.5388" y1="19.9566" x2="30.4437" y2="19.9566" gradientUnits="userSpaceOnUse">
<stop stop-color="#FF5059"/>
<stop offset="1" stop-color="#BC2BB3"/>
</linearGradient>
<linearGradient id="paint167_linear_4224_25162" x1="28.5906" y1="19.9308" x2="30.4479" y2="19.9308" gradientUnits="userSpaceOnUse">
<stop stop-color="#FF5059"/>
<stop offset="1" stop-color="#BC2BB3"/>
</linearGradient>
<linearGradient id="paint168_linear_4224_25162" x1="28.641" y1="19.904" x2="30.4444" y2="19.904" gradientUnits="userSpaceOnUse">
<stop stop-color="#FF5059"/>
<stop offset="1" stop-color="#BC2BB3"/>
</linearGradient>
<linearGradient id="paint169_linear_4224_25162" x1="28.6953" y1="19.8754" x2="30.4433" y2="19.8754" gradientUnits="userSpaceOnUse">
<stop stop-color="#FF5059"/>
<stop offset="1" stop-color="#BC2BB3"/>
</linearGradient>
<linearGradient id="paint170_linear_4224_25162" x1="28.7465" y1="19.8484" x2="30.4392" y2="19.8484" gradientUnits="userSpaceOnUse">
<stop stop-color="#FF5059"/>
<stop offset="1" stop-color="#BC2BB3"/>
</linearGradient>
<linearGradient id="paint171_linear_4224_25162" x1="28.8046" y1="19.8225" x2="30.4345" y2="19.8225" gradientUnits="userSpaceOnUse">
<stop stop-color="#FF5059"/>
<stop offset="1" stop-color="#BC2BB3"/>
</linearGradient>
<linearGradient id="paint172_linear_4224_25162" x1="28.8638" y1="19.7941" x2="30.4258" y2="19.7941" gradientUnits="userSpaceOnUse">
<stop stop-color="#FF5059"/>
<stop offset="1" stop-color="#BC2BB3"/>
</linearGradient>
<linearGradient id="paint173_linear_4224_25162" x1="28.9221" y1="19.7656" x2="30.4162" y2="19.7656" gradientUnits="userSpaceOnUse">
<stop stop-color="#FF5059"/>
<stop offset="1" stop-color="#BC2BB3"/>
</linearGradient>
<linearGradient id="paint174_linear_4224_25162" x1="28.9883" y1="19.7392" x2="30.4034" y2="19.7392" gradientUnits="userSpaceOnUse">
<stop stop-color="#FF5059"/>
<stop offset="1" stop-color="#BC2BB3"/>
</linearGradient>
<linearGradient id="paint175_linear_4224_25162" x1="29.0545" y1="19.7106" x2="30.3857" y2="19.7106" gradientUnits="userSpaceOnUse">
<stop stop-color="#FF5059"/>
<stop offset="1" stop-color="#BC2BB3"/>
</linearGradient>
<linearGradient id="paint176_linear_4224_25162" x1="29.1292" y1="19.6843" x2="30.3716" y2="19.6843" gradientUnits="userSpaceOnUse">
<stop stop-color="#FF5059"/>
<stop offset="1" stop-color="#BC2BB3"/>
</linearGradient>
<linearGradient id="paint177_linear_4224_25162" x1="29.2025" y1="19.6553" x2="30.3395" y2="19.6553" gradientUnits="userSpaceOnUse">
<stop stop-color="#FF5059"/>
<stop offset="1" stop-color="#BC2BB3"/>
</linearGradient>
<linearGradient id="paint178_linear_4224_25162" x1="29.2847" y1="19.6289" x2="30.311" y2="19.6289" gradientUnits="userSpaceOnUse">
<stop stop-color="#FF5059"/>
<stop offset="1" stop-color="#BC2BB3"/>
</linearGradient>
<linearGradient id="paint179_linear_4224_25162" x1="29.3789" y1="19.5994" x2="30.2688" y2="19.5994" gradientUnits="userSpaceOnUse">
<stop stop-color="#FF5059"/>
<stop offset="1" stop-color="#BC2BB3"/>
</linearGradient>
<linearGradient id="paint180_linear_4224_25162" x1="29.4875" y1="19.5725" x2="30.2145" y2="19.5725" gradientUnits="userSpaceOnUse">
<stop stop-color="#FF5059"/>
<stop offset="1" stop-color="#BC2BB3"/>
</linearGradient>
<linearGradient id="paint181_linear_4224_25162" x1="29.6214" y1="19.5452" x2="30.1331" y2="19.5452" gradientUnits="userSpaceOnUse">
<stop stop-color="#FF5059"/>
<stop offset="1" stop-color="#BC2BB3"/>
</linearGradient>
</defs>
</svg>
