<svg width="24" height="24" viewBox="0 0 24 24" fill="none" xmlns="http://www.w3.org/2000/svg">
<path d="M10.9688 6.74987H13.0312V11.9999H20.7188C20.9923 11.9999 21.2546 11.8912 21.448 11.6978C21.6413 11.5044 21.75 11.2421 21.75 10.9686V7.78112C21.75 7.50761 21.6413 7.24531 21.448 7.05191C21.2546 6.85852 20.9923 6.74987 20.7188 6.74987H17.9147C18.2944 5.96781 18.3828 5.07598 18.1641 4.23458C17.9454 3.39318 17.4338 2.65733 16.7213 2.15922C16.0088 1.66111 15.142 1.43337 14.2766 1.51692C13.4113 1.60046 12.6041 1.9898 12 2.61502C11.3949 1.99323 10.5884 1.60689 9.7246 1.52506C8.86083 1.44323 7.99611 1.67123 7.28499 2.16832C6.57387 2.66542 6.0627 3.39919 5.84284 4.23851C5.62298 5.07783 5.70875 5.96798 6.08484 6.74987H3.28125C3.00775 6.74987 2.74544 6.85852 2.55205 7.05191C2.35865 7.24531 2.25 7.50761 2.25 7.78112V10.9686C2.25 11.2421 2.35865 11.5044 2.55205 11.6978C2.64781 11.7936 2.76149 11.8695 2.88661 11.9214C3.01172 11.9732 3.14582 11.9999 3.28125 11.9999H10.9688V6.74987ZM13.0312 5.15612C13.0312 4.8409 13.1247 4.53277 13.2998 4.27068C13.475 4.00858 13.7239 3.80431 14.0151 3.68368C14.3063 3.56306 14.6268 3.53149 14.9359 3.59299C15.2451 3.65448 15.5291 3.80627 15.752 4.02916C15.9748 4.25205 16.1266 4.53603 16.1881 4.84519C16.2496 5.15435 16.2181 5.4748 16.0974 5.76602C15.9768 6.05724 15.7725 6.30615 15.5104 6.48127C15.2483 6.65639 14.9402 6.74987 14.625 6.74987H13.0312V5.15612ZM7.78125 5.15612C7.78125 4.73343 7.94916 4.32805 8.24805 4.02916C8.54694 3.73028 8.95231 3.56237 9.375 3.56237C9.79769 3.56237 10.2031 3.73028 10.502 4.02916C10.8008 4.32805 10.9688 4.73343 10.9688 5.15612V6.74987H9.375C8.95231 6.74987 8.54694 6.58195 8.24805 6.28307C7.94916 5.98418 7.78125 5.5788 7.78125 5.15612ZM13.0312 22.4999H19.2188C19.4923 22.4999 19.7546 22.3912 19.948 22.1978C20.1413 22.0044 20.25 21.7421 20.25 21.4686V13.4999H13.0312V22.4999ZM3.75 21.4686C3.75 21.7421 3.85865 22.0044 4.05205 22.1978C4.24544 22.3912 4.50775 22.4999 4.78125 22.4999H10.9688V13.4999H3.75V21.4686Z" fill="white"/>
</svg>
