<svg width="100" height="28" viewBox="0 0 100 28" fill="none" xmlns="http://www.w3.org/2000/svg">
<path d="M16.4813 15.9808C16.4813 16.1125 16.3901 16.2139 16.1975 16.2645C15.9746 16.3254 15.2652 16.3558 14.0897 16.3558C13.0054 16.3558 12.3163 16.3254 12.0021 16.2645C11.7488 16.2139 11.5866 16.0416 11.5157 15.7579C11.2623 14.6735 11.0597 14.0858 10.9178 14.0148C10.7962 13.9641 9.78278 13.9337 7.8776 13.9337C6.59059 13.9337 5.91162 13.9642 5.82042 14.0351C5.68868 14.1567 5.5468 14.5621 5.38466 15.2512C5.24278 15.8795 5.07051 16.2139 4.86783 16.2747C4.61448 16.3355 3.7531 16.3659 2.28368 16.3659C1.12841 16.3659 0.550781 16.2544 0.550781 16.0416C0.550781 15.8491 1.40203 13.4271 3.11466 8.79585C4.96917 3.77956 5.97243 1.03327 6.13457 0.526578C6.22577 0.242828 6.32711 0.0908203 6.44872 0.0908203C6.6514 0.0908203 6.96555 0.111086 7.39118 0.151621C7.8168 0.192157 8.14109 0.212422 8.3539 0.212422C8.55658 0.212422 8.86059 0.202292 9.25582 0.17189C9.65104 0.141489 9.94492 0.131352 10.1476 0.131352C10.2895 0.131352 10.4212 0.252961 10.5428 0.506308C10.9178 1.29675 11.992 4.02277 13.7857 8.67424C15.5895 13.3358 16.4813 15.7781 16.4813 15.9808ZM8.4451 5.65434C8.28296 5.98876 8.01948 6.70827 7.64452 7.823C7.23917 8.99853 7.03649 9.69777 7.03649 9.90045C7.03649 10.0322 7.25943 10.1133 7.71546 10.1234C7.94854 10.1437 8.33363 10.1437 8.87073 10.1437C9.36729 10.1437 9.6409 10.0829 9.70171 9.96125C9.71184 9.92072 9.72198 9.87005 9.72198 9.79911C9.72198 9.54576 9.5497 8.86679 9.20515 7.73179C8.86059 6.64746 8.60725 5.95835 8.4451 5.65434Z" fill="url(#paint0_linear_4309_25167)"/>
<path d="M31.0454 11.3696C31.0454 12.7579 30.6096 13.9132 29.7381 14.8252C28.745 15.8792 27.0121 16.4061 24.5191 16.4061C24.3266 16.4061 24.053 16.4061 23.6983 16.396C23.3335 16.396 23.07 16.396 22.8977 16.396C20.1109 16.396 18.4489 16.3352 17.9219 16.2237C17.699 16.1832 17.5977 16.0616 17.5977 15.869C17.5977 15.0583 17.6483 13.8321 17.7395 12.2006C17.8307 10.5589 17.8814 9.33267 17.8814 8.51182C17.8814 7.63017 17.8409 5.98847 17.7497 3.56647C17.7294 2.9483 17.6889 2.01598 17.6281 0.77964L17.6179 0.617494C17.6078 0.475619 17.7294 0.384416 17.9726 0.354015C18.2158 0.323613 19.0975 0.313477 20.5973 0.313477C23.0092 0.313477 24.4178 0.323612 24.8231 0.333746C26.6776 0.404683 28.0559 0.708701 28.9375 1.2458C30.113 1.96531 30.6907 3.18138 30.6907 4.88388C30.6907 5.32977 30.5589 5.80606 30.2853 6.30263C30.0928 6.65731 29.8293 7.012 29.5151 7.36669C29.2314 7.68084 29.0997 7.82271 29.0997 7.80244C29.0997 7.85311 29.201 7.93419 29.3935 8.05579C29.9205 8.35981 30.336 8.83611 30.64 9.49481C30.9136 10.0724 31.0454 10.7007 31.0454 11.3696ZM26.171 4.98522C26.171 4.33665 25.8467 3.90089 25.1981 3.68808C24.8333 3.5766 24.2354 3.5158 23.4044 3.5158C22.5835 3.5158 22.1782 3.5766 22.1782 3.69821C22.1782 3.84008 22.1681 4.06303 22.1377 4.34678C22.1073 4.64066 22.0971 4.85347 22.0971 4.99535C22.0971 5.75539 22.1579 6.17088 22.2897 6.26209C22.3707 6.33302 22.8572 6.36343 23.7287 6.36343C25.3602 6.38369 26.171 5.91754 26.171 4.98522ZM26.5054 11.3189C26.5054 10.6399 26.2216 10.1738 25.6541 9.9407C25.2893 9.78869 24.7015 9.71776 23.8807 9.71776C22.9078 9.71776 22.3809 9.75829 22.2897 9.82923C22.2086 9.90017 22.1681 10.3663 22.1681 11.2176C22.1681 12.1094 22.2187 12.6059 22.3201 12.6971C22.4214 12.7883 22.9585 12.839 23.9516 12.839C24.7725 12.839 25.34 12.7782 25.6744 12.6465C26.2318 12.4235 26.5054 11.9776 26.5054 11.3189Z" fill="url(#paint1_linear_4309_25167)"/>
<path d="M39.0405 7.09331C39.0405 7.16425 38.9797 7.27573 38.8683 7.39733C38.6554 7.34666 38.4426 7.31626 38.2298 7.31626C37.7839 7.31626 37.409 7.4176 37.1049 7.61014C36.7401 7.83309 36.5577 8.15737 36.5577 8.57286C36.5577 8.83635 36.7503 9.17077 37.1353 9.58626C37.713 10.1943 38.0778 10.6098 38.2095 10.8226C38.5946 11.4002 38.7872 12.0083 38.7872 12.667C38.7872 13.0521 38.7162 13.4574 38.5642 13.8932C38.392 14.3695 38.169 14.714 37.9055 14.937C37.3482 15.4234 36.6895 15.8288 35.9395 16.1632C35.1288 16.5077 34.3891 16.68 33.7101 16.68C33.5581 16.68 33.2237 16.2746 32.6967 15.4538C32.1697 14.6329 31.9062 14.1364 31.9062 13.954C31.9062 13.883 31.9468 13.8425 32.0279 13.8324C32.5548 13.731 33.0919 13.6398 33.629 13.5385C34.2979 13.3257 34.6221 12.9811 34.6221 12.4947C34.6221 12.1603 34.4296 11.7752 34.0445 11.3394C33.3554 10.5794 33.0007 10.174 32.9703 10.1234C32.5852 9.57613 32.3927 9.00863 32.3927 8.40059C32.3927 7.26559 32.9703 6.30287 34.1154 5.51243C35.139 4.81319 36.2436 4.4585 37.4191 4.4585C37.5407 4.4585 37.8346 4.86385 38.3109 5.67457C38.7973 6.48528 39.0405 6.96157 39.0405 7.09331Z" fill="url(#paint2_linear_4309_25167)"/>
<path d="M48.1791 8.80575C48.169 8.80575 47.9461 8.74495 47.49 8.62334C47.0441 8.50173 46.6793 8.44093 46.3956 8.44093C45.7267 8.44093 45.1896 8.64361 44.7843 9.04896C44.3789 9.45432 44.1864 9.99142 44.1864 10.6603C44.1864 11.3595 44.4093 11.9067 44.8451 12.302C45.2808 12.6972 45.8585 12.8999 46.5577 12.8999C46.8921 12.8999 47.2671 12.8188 47.6826 12.6465C48.0981 12.4742 48.2906 12.3932 48.2703 12.3932C48.4021 12.3932 48.5642 12.8695 48.7669 13.8322C48.9392 14.7138 49.0304 15.2915 49.0304 15.5752C49.0304 15.859 48.5642 16.1123 47.6218 16.315C46.8921 16.4771 46.3145 16.5481 45.8686 16.5481C44.2066 16.5481 42.8386 15.9907 41.7542 14.8658C40.6699 13.7511 40.1328 12.3526 40.1328 10.6805C40.1328 9.0287 40.68 7.63022 41.7644 6.50535C42.8487 5.38049 44.2168 4.81299 45.8787 4.81299C47.0036 4.81299 47.9967 5.0562 48.848 5.54263C49.0405 5.64397 49.1419 5.75544 49.1419 5.84665C49.1419 5.94799 49.0304 6.39388 48.7973 7.18433C48.5845 7.94437 48.4528 8.41053 48.3818 8.56254C48.3109 8.72468 48.2399 8.80575 48.1791 8.80575Z" fill="url(#paint3_linear_4309_25167)"/>
<path d="M61.2326 10.6909C61.2326 12.4136 60.7056 13.8121 59.6517 14.8863C58.5978 15.9605 57.2094 16.4976 55.4968 16.4976C53.8348 16.4976 52.4667 15.9707 51.3925 14.9066C50.3183 13.8527 49.7812 12.4846 49.7812 10.8226C49.7812 9.06946 50.2981 7.65071 51.3216 6.55625C52.3451 5.46178 53.7436 4.91455 55.4968 4.91455C57.2094 4.91455 58.5876 5.45165 59.6416 6.51571C60.7056 7.5899 61.2326 8.97825 61.2326 10.6909ZM57.5134 10.6909C57.5134 10.093 57.331 9.56602 56.9561 9.10999C56.5811 8.65397 56.1048 8.42088 55.517 8.42088C54.9191 8.42088 54.4327 8.65397 54.0476 9.12013C53.6828 9.55588 53.5004 10.0829 53.5004 10.6808C53.5004 11.2888 53.6828 11.8157 54.0476 12.2616C54.4327 12.7278 54.9293 12.9609 55.517 12.9609C56.1048 12.9609 56.5912 12.7278 56.9763 12.2616C57.3412 11.8259 57.5134 11.2989 57.5134 10.6909Z" fill="url(#paint4_linear_4309_25167)"/>
<path d="M73.726 3.83033C73.726 3.98234 73.6449 4.05328 73.4726 4.05328C73.1889 4.05328 72.0437 3.99247 70.0575 3.881C70.017 5.79631 69.9866 7.12385 69.9866 7.8839C69.9866 8.77568 70.0271 10.1134 70.098 11.9071C70.169 13.7008 70.2095 15.0384 70.2095 15.9302C70.2095 16.0721 70.1791 16.1633 70.1082 16.2038C70.0879 16.2241 69.9764 16.2342 69.794 16.2646C69.338 16.3255 68.6793 16.3559 67.7976 16.3559C66.8248 16.3559 66.1357 16.3255 65.7404 16.2646C65.5276 16.2241 65.4263 16.1126 65.4263 15.91C65.4263 15.0182 65.4668 13.6805 65.5378 11.8969C65.6087 10.1134 65.6492 8.77568 65.6492 7.8839C65.6492 7.29613 65.6188 5.97872 65.558 3.94181C64.0481 4.09381 62.8421 4.16475 61.9402 4.16475C61.8186 4.16475 61.7578 4.12421 61.7578 4.05328C61.7578 3.95194 61.8085 3.66819 61.92 3.18176C62.0416 2.6548 62.1125 2.33051 62.1226 2.21904C62.1429 1.86435 62.1733 1.50967 62.2037 1.15498C62.2544 0.587479 62.3456 0.303726 62.4773 0.303726C62.4875 0.303726 62.5483 0.303724 62.6395 0.313858C63.8657 0.476 65.6695 0.546943 68.0712 0.546943C68.7502 0.546943 70.0068 0.476002 71.8309 0.334127C72.8139 0.263189 73.3105 0.222656 73.3206 0.222656C73.4726 0.222656 73.5537 0.232789 73.5841 0.253057C73.6044 0.273325 73.6246 0.344263 73.6246 0.476004C73.6246 0.678683 73.6145 0.962429 73.6044 1.32725C73.5841 1.73261 73.5841 2.01636 73.5841 2.1785C73.5841 2.37105 73.6044 2.64466 73.655 3.00948C73.7057 3.3743 73.726 3.64792 73.726 3.83033Z" fill="url(#paint5_linear_4309_25167)"/>
<path d="M85.251 10.1132C85.251 10.8732 85.0078 11.309 84.5112 11.4204C84.4302 11.4407 83.6499 11.5218 82.1602 11.6738C81.2684 11.7751 79.9408 11.8866 78.1674 12.0285C78.2687 12.5149 78.593 12.8899 79.1301 13.1533C79.5659 13.3662 80.0624 13.4675 80.6299 13.4675C81.2988 13.4675 81.9778 13.2851 82.6567 12.9203C82.9405 12.7378 83.2344 12.5554 83.5181 12.373C83.6803 12.444 83.9437 12.8291 84.3187 13.5283C84.6937 14.2275 84.8761 14.6633 84.8761 14.8558C84.8761 14.9065 84.8153 14.9977 84.7038 15.1193C83.7816 16.1124 82.3527 16.609 80.407 16.609C78.6032 16.609 77.154 16.082 76.0494 15.0281C74.9347 13.9539 74.3672 12.525 74.3672 10.7415C74.3672 8.99843 74.8739 7.57968 75.8873 6.46495C76.9311 5.31982 78.3093 4.74219 80.0321 4.74219C81.4812 4.74219 82.7175 5.26915 83.7309 6.33321C84.7443 7.39728 85.251 8.65388 85.251 10.1132ZM81.2785 9.41393C81.2785 8.94777 81.1164 8.53228 80.782 8.17759C80.4475 7.8229 80.0523 7.64049 79.5963 7.64049C79.12 7.64049 78.7248 7.84317 78.4208 8.23839C78.137 8.61334 77.985 9.03897 77.985 9.54567C77.985 9.74835 78.0863 9.84968 78.2991 9.84968C78.8565 9.84968 79.728 9.75848 80.9036 9.5862C81.1569 9.56593 81.2785 9.50513 81.2785 9.41393Z" fill="url(#paint6_linear_4309_25167)"/>
<path d="M99.0918 8.86669C99.0918 10.5388 98.271 11.8055 96.6293 12.677C96.4773 12.748 96.4063 12.8291 96.4063 12.9101C96.4063 13.0419 96.761 13.5688 97.4603 14.5113C98.1595 15.4537 98.5142 15.9503 98.5142 15.9908C98.5142 16.1935 97.5109 16.2948 95.5145 16.2948C94.7444 16.2948 94.2985 16.1935 94.1769 16.001C93.8728 15.4943 93.4067 14.7646 92.7581 13.8222C92.7176 13.7816 92.0386 13.7208 90.7212 13.66C90.7212 13.8931 90.7212 14.2681 90.7313 14.7849C90.7415 15.3017 90.7415 15.6767 90.7415 15.93C90.7415 16.153 90.63 16.2847 90.4172 16.305C90.2854 16.3151 89.6875 16.3253 88.6235 16.3253C87.7114 16.3253 87.1743 16.305 87.0223 16.2847C86.8196 16.2442 86.7183 16.0922 86.7183 15.8186V8.87682C86.7183 7.9445 86.6879 6.55616 86.617 4.70165C86.546 2.84715 86.5156 1.45879 86.5156 0.536608C86.5156 0.354198 86.617 0.262994 86.8196 0.25286C87.225 0.25286 87.8229 0.242725 88.6235 0.232591C88.8363 0.222457 89.2011 0.171788 89.7281 0.100851C90.1841 0.0299135 90.5489 -0.000488281 90.8124 -0.000488281C90.934 -0.000488281 90.9948 0.110986 90.9948 0.323798C90.9948 0.607548 90.9745 1.00277 90.9239 1.4892C90.8732 2.06683 90.8428 2.45192 90.8327 2.66473C90.7617 4.28616 90.7313 5.5529 90.7313 6.44468C90.7313 6.65749 90.7617 6.76897 90.8124 6.76897C90.8833 6.72843 90.9745 6.63723 91.086 6.51562C92.069 5.49209 93.2648 4.9854 94.6734 4.9854C96.001 4.9854 97.0448 5.28942 97.8251 5.89745C98.6662 6.58656 99.0918 7.56955 99.0918 8.86669ZM94.5924 9.59633C94.5924 8.68428 94.0755 8.22825 93.0419 8.22825C92.5757 8.22825 92.0893 8.40053 91.5725 8.74508C91.0151 9.12004 90.7313 9.51526 90.7313 9.96115C90.7313 10.5895 90.8225 10.9644 90.9948 11.0962C91.1266 11.1874 91.5623 11.2279 92.3021 11.2279C93.8222 11.2279 94.5924 10.6908 94.5924 9.59633Z" fill="url(#paint7_linear_4309_25167)"/>
<path d="M19.3972 24.1792C19.529 24.1792 19.6404 24.2299 19.7316 24.3312C19.8228 24.4325 19.8634 24.5542 19.8634 24.7163C19.8634 24.9392 19.8127 25.1115 19.7012 25.2331C19.5999 25.3547 19.458 25.4257 19.306 25.4257C19.1743 25.4257 19.0628 25.375 18.9716 25.2838C18.8804 25.1926 18.8398 25.071 18.8398 24.9291C18.8398 24.7163 18.9006 24.5238 19.0324 24.3717C19.1135 24.24 19.2351 24.1792 19.3972 24.1792Z" fill="url(#paint8_linear_4309_25167)"/>
<path d="M21.698 24.1792C21.8297 24.1792 21.9412 24.2299 22.0324 24.3312C22.1236 24.4325 22.1642 24.5542 22.1642 24.7163C22.1642 24.9392 22.1135 25.1115 22.002 25.2331C21.9007 25.3547 21.7588 25.4257 21.6068 25.4257C21.475 25.4257 21.3636 25.375 21.2724 25.2838C21.1812 25.1926 21.1406 25.071 21.1406 24.9291C21.1406 24.7163 21.2014 24.5238 21.3332 24.3717C21.4142 24.24 21.546 24.1792 21.698 24.1792Z" fill="url(#paint9_linear_4309_25167)"/>
<path d="M23.9988 24.1792C24.1305 24.1792 24.242 24.2299 24.3332 24.3312C24.4244 24.4325 24.4649 24.5542 24.4649 24.7163C24.4649 24.9392 24.4143 25.1115 24.3028 25.2331C24.2015 25.3547 24.0596 25.4257 23.9076 25.4257C23.7758 25.4257 23.6644 25.375 23.5731 25.2838C23.4819 25.1926 23.4414 25.071 23.4414 24.9291C23.4414 24.7163 23.5022 24.5238 23.634 24.3717C23.7252 24.24 23.8468 24.1792 23.9988 24.1792Z" fill="url(#paint10_linear_4309_25167)"/>
<path d="M29.3089 20.9569L29.7143 20.8657C29.471 21.6663 29.238 22.4567 29.0353 23.2573C28.8833 23.8248 28.7819 24.3011 28.7211 24.6862C28.6907 24.8787 28.6705 25.122 28.6705 25.4158C28.6603 25.9023 28.6097 26.2975 28.5083 26.6015C28.3664 27.017 28.103 27.3616 27.7077 27.6149C27.3227 27.8683 26.8565 28 26.3194 28C25.8634 28 25.4986 27.8885 25.2351 27.6757C24.9716 27.4629 24.8398 27.2096 24.8398 26.9359C24.8398 26.6623 24.9412 26.3988 25.154 26.1658C25.306 25.9833 25.6404 25.7705 26.137 25.5172C26.3903 25.3854 26.6234 25.2436 26.8464 25.1118C26.593 25.2436 26.4005 25.3044 26.2586 25.3044C26.137 25.3044 26.0154 25.2436 25.9242 25.1321C25.833 25.0206 25.7823 24.8585 25.7823 24.6659C25.7823 24.0376 25.9647 23.4195 26.3397 22.8013C26.7146 22.1831 27.1605 21.717 27.6875 21.413C28.0118 21.2204 28.4171 21.1292 28.9035 21.1292C28.9948 21.1292 29.1164 21.1292 29.2582 21.1393L29.3089 20.9569ZM28.0422 24.4937C27.8091 24.6963 27.3632 25.0308 26.7045 25.4868C26.1167 25.882 25.762 26.1658 25.6303 26.338C25.4986 26.5103 25.4276 26.7029 25.4276 26.8954C25.4276 27.0879 25.5087 27.2602 25.681 27.4224C25.8532 27.5744 26.066 27.6554 26.3093 27.6554C26.5423 27.6554 26.7653 27.5946 26.9882 27.4832C27.2112 27.3717 27.3936 27.1994 27.5557 26.9866C27.7179 26.7738 27.8293 26.5306 27.8902 26.257C27.951 25.9833 27.9814 25.6287 27.9915 25.1726C27.9915 25.0814 28.0118 24.8484 28.0422 24.4937ZM28.7313 21.717C28.5691 21.6866 28.4273 21.6663 28.2955 21.6663C27.9712 21.6663 27.6976 21.7474 27.4645 21.9196C27.2315 22.0919 27.0389 22.3757 26.8768 22.781C26.6538 23.3485 26.5322 23.8248 26.5322 24.2099C26.5322 24.3721 26.5727 24.5038 26.6639 24.6153C26.7552 24.7267 26.8565 24.7774 26.968 24.7774C27.0997 24.7774 27.272 24.7166 27.4747 24.5849C27.6773 24.4531 27.8395 24.291 27.9712 24.0883C28.103 23.8958 28.2246 23.5512 28.3563 23.0648L28.7313 21.717Z" fill="url(#paint11_linear_4309_25167)"/>
<path d="M32.5804 20.9976C32.9148 20.9976 33.1884 21.1293 33.4113 21.3928C33.6343 21.6563 33.7458 22.0312 33.7458 22.4974C33.7458 23.2574 33.4823 23.9263 32.9452 24.5343C32.4182 25.1322 31.8507 25.4362 31.2629 25.4362C30.8981 25.4362 30.6042 25.3146 30.3813 25.0815C30.1583 24.8484 30.0469 24.514 30.0469 24.1087C30.0469 23.3993 30.2496 22.7305 30.6549 22.1326C31.1717 21.3725 31.8102 20.9976 32.5804 20.9976ZM32.1446 21.3725C31.8507 21.3725 31.5771 21.5752 31.3035 21.9907C31.0299 22.4062 30.8981 22.9737 30.8981 23.7033C30.8981 24.1492 30.9792 24.4938 31.1515 24.7471C31.2731 24.9295 31.4352 25.0309 31.6379 25.0309C31.9216 25.0309 32.1851 24.8586 32.4182 24.5039C32.7222 24.0479 32.8641 23.4702 32.8641 22.7913C32.8641 22.2846 32.7932 21.9197 32.6614 21.6968C32.5195 21.484 32.3473 21.3725 32.1446 21.3725Z" fill="url(#paint12_linear_4309_25167)"/>
<path d="M36.7561 20.9976C37.0906 20.9976 37.3642 21.1293 37.5871 21.3928C37.8101 21.6563 37.9215 22.0312 37.9215 22.4974C37.9215 23.2574 37.6581 23.9263 37.121 24.5343C36.594 25.1322 36.0265 25.4362 35.4387 25.4362C35.0739 25.4362 34.78 25.3146 34.5571 25.0815C34.3341 24.8484 34.2227 24.514 34.2227 24.1087C34.2227 23.3993 34.4253 22.7305 34.8307 22.1326C35.3475 21.3725 35.9961 20.9976 36.7561 20.9976ZM36.3204 21.3725C36.0265 21.3725 35.7529 21.5752 35.4793 21.9907C35.2056 22.4062 35.0739 22.9737 35.0739 23.7033C35.0739 24.1492 35.155 24.4938 35.3273 24.7471C35.4489 24.9295 35.611 25.0309 35.8137 25.0309C36.0974 25.0309 36.3609 24.8586 36.594 24.5039C36.898 24.0479 37.0399 23.4702 37.0399 22.7913C37.0399 22.2846 36.9689 21.9197 36.8372 21.6968C36.7055 21.484 36.5332 21.3725 36.3204 21.3725Z" fill="url(#paint13_linear_4309_25167)"/>
<path d="M42.3286 24.23L42.4705 24.4226C42.0144 24.8077 41.68 25.061 41.4571 25.1927C41.1531 25.365 40.9098 25.4562 40.7274 25.4562C40.6464 25.4562 40.5754 25.436 40.5247 25.3853C40.4741 25.3346 40.4437 25.2839 40.4437 25.2333C40.4437 25.1725 40.464 25.0813 40.5045 24.9495L40.6869 24.3212C40.2815 24.757 39.937 25.061 39.6634 25.213C39.3898 25.365 39.1465 25.4461 38.9236 25.4461C38.7412 25.4461 38.5892 25.365 38.4676 25.213C38.346 25.0509 38.2852 24.8178 38.2852 24.5138C38.2852 24.0273 38.4473 23.47 38.7817 22.8417C39.1161 22.2134 39.481 21.7472 39.8863 21.4432C40.2917 21.1392 40.6666 20.9872 41.001 20.9872C41.072 20.9872 41.1835 20.9973 41.3355 21.0277C41.4976 20.369 41.6496 19.8826 41.7915 19.5786C41.9334 19.2745 42.1259 19.0111 42.359 18.7881C42.5921 18.5652 42.8556 18.3929 43.1494 18.2713C43.4433 18.1497 43.7271 18.0889 43.9804 18.0889C44.1122 18.0889 44.2236 18.1294 44.3047 18.2003C44.3858 18.2713 44.4263 18.3625 44.4263 18.474C44.4263 18.5753 44.3858 18.6665 44.3148 18.7273C44.2439 18.7881 44.1324 18.8286 44.0108 18.8286C43.9297 18.8286 43.7676 18.8084 43.5345 18.778C43.3014 18.7476 43.1393 18.7273 43.0582 18.7273C42.9366 18.7273 42.8353 18.7678 42.7441 18.8388C42.6529 18.9097 42.5718 19.0719 42.4907 19.3049C42.4401 19.4569 42.3083 19.9434 42.1158 20.7744L41.3963 23.8551C41.3152 24.2199 41.2645 24.4631 41.2645 24.5847C41.2645 24.7164 41.3152 24.7773 41.4165 24.7773C41.4773 24.7773 41.5483 24.757 41.6293 24.7063C41.7712 24.6455 42.0043 24.4834 42.3286 24.23ZM41.2544 21.5851C40.9808 21.5243 40.7882 21.4939 40.6768 21.4939C40.4538 21.4939 40.2309 21.5851 40.0079 21.7573C39.7951 21.9398 39.5823 22.2843 39.3796 22.8011C39.1769 23.318 39.0756 23.7639 39.0756 24.1489C39.0756 24.3212 39.1263 24.4631 39.2175 24.5746C39.3087 24.686 39.4202 24.7367 39.5316 24.7367C39.6735 24.7367 39.8356 24.6759 40.0181 24.5442C40.2815 24.3618 40.4842 24.1287 40.6362 23.8551C40.7274 23.6828 40.849 23.2673 41.0112 22.5985L41.2544 21.5851Z" fill="url(#paint14_linear_4309_25167)"/>
<path d="M48.9683 20.7944H49.323C49.1406 21.3315 48.9075 22.1929 48.6136 23.3887L47.732 27.0876C47.7218 27.1585 47.7117 27.2295 47.7117 27.3004C47.7117 27.3916 47.7421 27.4625 47.813 27.5132C47.884 27.5639 48.0765 27.6146 48.4008 27.6551L48.3096 27.9388C47.9549 27.8679 47.6002 27.8375 47.2354 27.8375C46.901 27.8375 46.4348 27.8679 45.8572 27.9388L45.9281 27.6551C46.2524 27.6348 46.4754 27.5842 46.6071 27.5132C46.7388 27.4423 46.8402 27.3409 46.9212 27.1991C47.0023 27.0572 47.0935 26.7734 47.205 26.3377L47.7016 24.24C47.3671 24.6352 47.0023 24.9392 46.6071 25.1723C46.3132 25.3446 46.0599 25.4358 45.8369 25.4358C45.6646 25.4358 45.5228 25.3547 45.4012 25.1925C45.2796 25.0304 45.2188 24.7973 45.2188 24.4832C45.2188 23.7231 45.5329 22.9428 46.1511 22.1524C46.7692 21.3619 47.4583 20.9667 48.2184 20.9667C48.3805 20.9667 48.5731 20.987 48.796 21.0376L48.9683 20.7944ZM48.3096 21.6558C48.0664 21.5849 47.8536 21.5545 47.6712 21.5545C47.3671 21.5545 47.1037 21.6457 46.8706 21.818C46.6375 21.9902 46.4247 22.3145 46.2423 22.7807C46.0599 23.2468 45.9585 23.7029 45.9585 24.1488C45.9585 24.3413 45.9991 24.5034 46.0903 24.6048C46.1815 24.7163 46.2929 24.7669 46.4247 24.7669C46.5463 24.7669 46.6983 24.7061 46.8807 24.5744C47.2253 24.3413 47.4786 24.088 47.6509 23.8346C47.7725 23.6623 47.8941 23.3178 48.0157 22.8212L48.3096 21.6558Z" fill="url(#paint15_linear_4309_25167)"/>
<path d="M52.9322 21.1292H53.6619L53.1856 22.9127C52.9018 23.9464 52.7599 24.5342 52.7599 24.6761C52.7599 24.7369 52.7802 24.7875 52.8106 24.8281C52.841 24.8585 52.8714 24.8787 52.912 24.8787C52.9728 24.8787 53.0336 24.8483 53.1146 24.7977C53.2261 24.7166 53.4389 24.524 53.7531 24.2099L53.9253 24.4024C53.2464 25.1118 52.7397 25.4665 52.4154 25.4665C52.3039 25.4665 52.2127 25.426 52.1418 25.3449C52.0607 25.2638 52.0303 25.1422 52.0303 24.9902C52.0303 24.8179 52.0708 24.5747 52.1418 24.2808C51.8378 24.6254 51.4628 24.9294 51.0169 25.1929C50.723 25.3652 50.4595 25.4564 50.2467 25.4564C50.1251 25.4564 50.0339 25.4158 49.963 25.3348C49.8921 25.2537 49.8617 25.1321 49.8617 24.9598C49.8617 24.8281 49.8819 24.6862 49.9123 24.5342C49.9529 24.3214 50.0643 23.8856 50.2467 23.237C50.4697 22.4162 50.5913 21.9196 50.5913 21.7575C50.5913 21.6663 50.5609 21.6156 50.49 21.6156C50.4292 21.6156 50.3481 21.646 50.2366 21.7068C50.1353 21.7676 49.9529 21.9196 49.6995 22.1628L49.4766 21.9804C49.9326 21.5751 50.2771 21.3015 50.5204 21.1799C50.7636 21.0481 50.9561 20.9873 51.098 20.9873C51.1791 20.9873 51.25 21.0177 51.3007 21.0785C51.3513 21.1393 51.3817 21.2305 51.3817 21.3521C51.3817 21.5852 51.2601 22.1628 51.0169 23.085C50.8041 23.916 50.6926 24.3822 50.6926 24.5038C50.6926 24.5747 50.7129 24.6355 50.7636 24.6862C50.8142 24.7369 50.8548 24.7673 50.9156 24.7673C51.1081 24.7673 51.3716 24.6051 51.7263 24.291C52.081 23.9768 52.3039 23.6221 52.4154 23.2168L52.9322 21.1292Z" fill="url(#paint16_linear_4309_25167)"/>
<path d="M57.7655 20.9059L58.0999 20.835L57.7148 22.122C57.5628 22.6388 57.421 23.2266 57.2791 23.8954C57.2081 24.2602 57.1676 24.4933 57.1676 24.5946C57.1676 24.696 57.2081 24.7568 57.2993 24.7568C57.35 24.7568 57.4412 24.7163 57.5628 24.6453C57.7756 24.5237 57.9783 24.3616 58.1709 24.1792L58.333 24.3818C57.9479 24.7365 57.6946 24.9493 57.5831 25.0203C57.3703 25.1723 57.1575 25.2838 56.9649 25.3547C56.8332 25.4054 56.7116 25.4256 56.59 25.4256C56.4988 25.4256 56.438 25.4054 56.3873 25.3648C56.3468 25.3243 56.3164 25.2635 56.3164 25.1824C56.3164 25.1317 56.3265 25.0608 56.3569 24.9696L56.5596 24.2805C56.2657 24.6352 55.9211 24.9291 55.5158 25.1824C55.2624 25.3344 55.0395 25.4155 54.8368 25.4155C54.6443 25.4155 54.4923 25.3446 54.3808 25.2027C54.2389 25.0203 54.168 24.7669 54.168 24.4629C54.168 24.0981 54.2592 23.7029 54.4517 23.257C54.6443 22.8111 54.8976 22.4159 55.2219 22.051C55.5462 21.6862 55.8806 21.4227 56.2454 21.2505C56.519 21.1187 56.8737 21.0579 57.3095 21.0579C57.421 21.0579 57.5324 21.068 57.6439 21.0782L57.7655 20.9059ZM57.1372 21.6862C56.9548 21.6457 56.8028 21.6254 56.671 21.6254C56.367 21.6254 56.0934 21.7065 55.8705 21.8788C55.6374 22.051 55.4347 22.3551 55.232 22.7908C55.0395 23.2266 54.9381 23.6623 54.9381 24.0981C54.9381 24.3312 54.9787 24.4933 55.0598 24.5946C55.1408 24.696 55.2422 24.7467 55.3638 24.7467C55.5968 24.7467 55.8502 24.6149 56.1238 24.3616C56.3974 24.1082 56.59 23.7434 56.7116 23.2671L57.1372 21.6862Z" fill="url(#paint17_linear_4309_25167)"/>
<path d="M60.7924 24.058L60.9647 24.2404C60.7012 24.5444 60.3871 24.8079 60.0222 25.0612C59.6574 25.3146 59.3635 25.4362 59.1304 25.4362C59.0291 25.4362 58.9379 25.3957 58.867 25.3146C58.796 25.2335 58.7656 25.122 58.7656 24.9903C58.7656 24.7167 58.867 24.1492 59.0798 23.2979L59.627 21.0583C59.8297 20.2476 59.9918 19.7105 60.1337 19.4268C60.3465 19.0113 60.6404 18.687 61.0255 18.4539C61.4106 18.2208 61.8159 18.1094 62.2416 18.1094C62.3834 18.1094 62.505 18.1398 62.5861 18.2107C62.6672 18.2817 62.7077 18.3627 62.7077 18.4641C62.7077 18.5755 62.6672 18.6667 62.5861 18.7377C62.505 18.8086 62.3834 18.839 62.2314 18.839C62.1301 18.839 61.9882 18.8188 61.7957 18.7883C61.6335 18.7579 61.4815 18.7478 61.3396 18.7478C61.1978 18.7478 61.0964 18.7782 61.0255 18.839C60.9242 18.9201 60.8431 19.0924 60.762 19.3558C60.6809 19.6193 60.5492 20.1362 60.3769 20.8962L59.8702 23.0345C59.6169 24.1087 59.4953 24.666 59.4953 24.7167C59.4953 24.8282 59.5358 24.8788 59.6169 24.8788C59.6878 24.8788 59.7993 24.8383 59.9412 24.7471C60.2249 24.5545 60.5087 24.3316 60.7924 24.058Z" fill="url(#paint18_linear_4309_25167)"/>
<path d="M61.3401 22.1729L61.1172 22.0007C61.4617 21.6257 61.7658 21.3622 62.0495 21.2001C62.3333 21.0379 62.5663 20.967 62.769 20.967C62.8805 20.967 62.9616 20.9873 63.0224 21.0379C63.0832 21.0886 63.1136 21.1494 63.1136 21.2305C63.1136 21.3318 63.0021 21.7473 62.7792 22.4871C62.4245 23.693 62.2421 24.4227 62.2421 24.676C62.2421 24.7267 62.2522 24.7672 62.2826 24.7976C62.3029 24.828 62.3333 24.8483 62.3637 24.8483C62.4751 24.8483 62.7488 24.6355 63.2048 24.22L63.4075 24.4125C62.9413 24.8483 62.5967 25.132 62.3839 25.2536C62.1711 25.3753 61.9988 25.4361 61.857 25.4361C61.7354 25.4361 61.6442 25.3955 61.5732 25.3246C61.5023 25.2536 61.4719 25.1422 61.4719 25.0104C61.4719 24.5848 61.7252 23.541 62.2421 21.8892C62.2623 21.8081 62.2826 21.7372 62.2826 21.6764C62.2826 21.6054 62.2522 21.575 62.1914 21.575C62.1204 21.575 62.0495 21.6054 61.9583 21.6561C61.8367 21.7068 61.6442 21.879 61.3401 22.1729ZM63.3466 18.7983C63.448 18.7983 63.5392 18.8287 63.6101 18.8997C63.6811 18.9706 63.7115 19.0618 63.7115 19.1632C63.7115 19.3152 63.6608 19.4469 63.5595 19.5584C63.4581 19.6699 63.3365 19.7307 63.2149 19.7307C63.1136 19.7307 63.0325 19.6901 62.9616 19.6192C62.8906 19.5482 62.8602 19.457 62.8602 19.3354C62.8602 19.1834 62.9109 19.0517 63.0122 18.9402C63.0933 18.849 63.2149 18.7983 63.3466 18.7983Z" fill="url(#paint19_linear_4309_25167)"/>
<path d="M65.1122 20.2067L65.9229 19.8926L65.5581 21.3215H66.612L66.5309 21.6863H65.477L65.0311 23.3989C64.8892 23.9157 64.8183 24.2704 64.8183 24.4731C64.8183 24.5643 64.8386 24.6353 64.8791 24.6758C64.9196 24.7163 64.9703 24.7366 65.0412 24.7366C65.1426 24.7366 65.3047 24.6758 65.5277 24.544C65.8114 24.3819 66.085 24.1894 66.3485 23.9765L66.5411 24.2096C65.7912 24.767 65.2946 25.1115 65.0412 25.2433C64.7879 25.3649 64.5852 25.4358 64.4332 25.4358C64.3116 25.4358 64.2103 25.3852 64.1393 25.294C64.0684 25.2027 64.0279 25.0507 64.0279 24.8481C64.0279 24.6049 64.0887 24.2299 64.2204 23.7232L64.7372 21.6964H63.9062L63.9975 21.3316H64.8284L65.1122 20.2067Z" fill="url(#paint20_linear_4309_25167)"/>
<path d="M67.0044 22.0309L66.8423 21.7876L67.2172 21.5343C67.582 21.2809 67.8455 21.1188 67.9975 21.0479C68.0786 21.0073 68.1597 20.9871 68.2306 20.9871C68.3015 20.9871 68.3725 21.0276 68.4333 21.1087C68.7373 21.4836 68.9805 21.9903 69.1933 22.6389C69.396 23.2773 69.4973 23.9056 69.4973 24.5035C69.4973 24.5846 69.4973 24.6961 69.4872 24.8582C70.0648 23.8043 70.3486 22.9632 70.3486 22.3349C70.3486 22.2031 70.3182 22.0309 70.2574 21.818C70.1966 21.5748 70.1662 21.4127 70.1662 21.3113C70.1662 21.21 70.1966 21.1289 70.2574 21.0681C70.3182 21.0073 70.3993 20.9668 70.4905 20.9668C70.6121 20.9668 70.7033 21.0175 70.7742 21.1087C70.8452 21.1999 70.8857 21.3316 70.8857 21.5039C70.8857 21.9397 70.7844 22.4869 70.5817 23.1456C70.379 23.8043 70.0648 24.5035 69.6392 25.2534C69.2136 26.0034 68.8184 26.5708 68.4637 26.9357C68.109 27.3005 67.7644 27.564 67.43 27.7261C67.0956 27.8883 66.7815 27.9592 66.4876 27.9592C66.2646 27.9592 66.0923 27.9187 65.9809 27.8376C65.8694 27.7565 65.8086 27.6552 65.8086 27.5437C65.8086 27.4424 65.8491 27.3512 65.9403 27.2802C66.0315 27.2093 66.143 27.1687 66.295 27.1687C66.4065 27.1687 66.5686 27.189 66.7713 27.2397C66.9841 27.2904 67.1361 27.3106 67.2071 27.3106C67.4098 27.3106 67.6327 27.2194 67.8658 27.0471C68.1799 26.8141 68.4333 26.5303 68.6157 26.1959C68.7981 25.8615 68.8893 25.5372 68.8893 25.1926C68.8893 24.7163 68.8184 24.1488 68.6866 23.4901C68.5448 22.8314 68.3522 22.3247 68.0989 21.9701C67.9773 21.7876 67.8354 21.6964 67.6935 21.6964C67.5618 21.6964 67.3186 21.8079 67.0044 22.0309Z" fill="url(#paint21_linear_4309_25167)"/>
<path d="M76.9764 20.9059L77.3109 20.835L76.9258 22.122C76.7738 22.6388 76.6319 23.2266 76.49 23.8954C76.4191 24.2602 76.3785 24.4933 76.3785 24.5946C76.3785 24.696 76.4191 24.7568 76.5103 24.7568C76.561 24.7568 76.6522 24.7163 76.7738 24.6453C76.9866 24.5237 77.1893 24.3616 77.3818 24.1792L77.544 24.3818C77.1589 24.7365 76.9055 24.9493 76.794 25.0203C76.5812 25.1723 76.3684 25.2838 76.1759 25.3547C76.0441 25.4054 75.9225 25.4256 75.8009 25.4256C75.7097 25.4256 75.6489 25.4054 75.5982 25.3648C75.5577 25.3243 75.5273 25.2635 75.5273 25.1824C75.5273 25.1317 75.5374 25.0608 75.5678 24.9696L75.7705 24.2805C75.4766 24.6352 75.1321 24.9291 74.7267 25.1824C74.4734 25.3344 74.2504 25.4155 74.0477 25.4155C73.8552 25.4155 73.7032 25.3446 73.5917 25.2027C73.4498 25.0203 73.3789 24.7669 73.3789 24.4629C73.3789 24.0981 73.4701 23.7029 73.6627 23.257C73.8552 22.8111 74.1086 22.4159 74.4328 22.051C74.7571 21.6862 75.0915 21.4227 75.4564 21.2505C75.73 21.1187 76.0847 21.0579 76.5204 21.0579C76.6319 21.0579 76.7434 21.068 76.8548 21.0782L76.9764 20.9059ZM76.3481 21.6862C76.1657 21.6457 76.0137 21.6254 75.882 21.6254C75.578 21.6254 75.3043 21.7065 75.0814 21.8788C74.8483 22.051 74.6456 22.3551 74.443 22.7908C74.2504 23.2266 74.1491 23.6623 74.1491 24.0981C74.1491 24.3312 74.1896 24.4933 74.2707 24.5946C74.3518 24.696 74.4531 24.7467 74.5747 24.7467C74.8078 24.7467 75.0611 24.6149 75.3348 24.3616C75.6084 24.1082 75.8009 23.7434 75.9225 23.2671L76.3481 21.6862Z" fill="url(#paint22_linear_4309_25167)"/>
<path d="M80.0073 24.058L80.1795 24.2404C79.916 24.5444 79.6019 24.8079 79.2371 25.0612C78.8722 25.3146 78.5784 25.4362 78.3453 25.4362C78.2439 25.4362 78.1527 25.3957 78.0818 25.3146C78.0109 25.2335 77.9805 25.122 77.9805 24.9903C77.9805 24.7167 78.0818 24.1492 78.2946 23.2979L78.8419 21.0583C79.0445 20.2476 79.2067 19.7105 79.3485 19.4268C79.5614 19.0113 79.8552 18.687 80.2403 18.4539C80.6254 18.2208 81.0308 18.1094 81.4564 18.1094C81.5983 18.1094 81.7199 18.1398 81.801 18.2107C81.882 18.2817 81.9226 18.3627 81.9226 18.4641C81.9226 18.5755 81.882 18.6667 81.801 18.7377C81.7199 18.8086 81.5983 18.839 81.4463 18.839C81.3449 18.839 81.2031 18.8188 81.0105 18.7883C80.8484 18.7579 80.6964 18.7478 80.5545 18.7478C80.4126 18.7478 80.3113 18.7782 80.2403 18.839C80.139 18.9201 80.0579 19.0924 79.9769 19.3558C79.8958 19.6193 79.764 20.1362 79.5918 20.8962L79.0851 23.0345C78.8317 24.1087 78.7101 24.666 78.7101 24.7167C78.7101 24.8282 78.7506 24.8788 78.8317 24.8788C78.9027 24.8788 79.0141 24.8383 79.156 24.7471C79.4499 24.5545 79.7336 24.3316 80.0073 24.058Z" fill="url(#paint23_linear_4309_25167)"/>
<path d="M82.513 21.1393C82.665 21.0279 82.7867 20.9772 82.8677 20.9772C82.9285 20.9772 82.9792 20.9975 83.0197 21.038C83.0603 21.0785 83.0805 21.1292 83.0805 21.19C83.0805 21.3217 82.9792 21.4129 82.7866 21.4636L82.3914 22.2338C82.2901 22.4466 82.2192 22.6594 82.1685 22.8722C82.1178 23.085 82.0975 23.308 82.0975 23.5309C82.0975 23.8147 82.1685 24.2707 82.3002 24.8889C82.8272 24.5443 83.3136 24.0782 83.7595 23.5005C83.7595 23.3587 83.7494 23.2472 83.7494 23.1762C83.7494 22.4263 83.8608 21.8386 84.0838 21.4028C84.2257 21.1191 84.3878 20.9772 84.5702 20.9772C84.6716 20.9772 84.7628 21.0177 84.8337 21.1089C84.9046 21.2001 84.935 21.3319 84.935 21.5143C84.935 21.6562 84.9046 21.8183 84.854 22.0108C84.7628 22.3149 84.6513 22.5986 84.5297 22.852C84.5297 23.7133 84.5905 24.3923 84.7222 24.8889C85.1276 24.6051 85.5228 24.2606 85.9079 23.835C86.1916 23.5208 86.4045 23.2067 86.5463 22.8722C86.6882 22.5378 86.7693 22.2642 86.7693 22.0514C86.7693 21.95 86.7287 21.8082 86.6578 21.646C86.5666 21.4535 86.5261 21.3116 86.5261 21.2204C86.5261 21.1292 86.5565 21.0583 86.6274 20.9975C86.6983 20.9367 86.7693 20.9062 86.8605 20.9062C86.972 20.9062 87.0632 20.9569 87.1341 21.0684C87.205 21.1799 87.2354 21.3623 87.2354 21.646C87.2354 22.3453 86.9314 23.085 86.3234 23.8552C85.7154 24.6254 84.9756 25.2132 84.0939 25.6388C83.9825 25.2638 83.8811 24.7166 83.7899 23.987C83.3237 24.4531 83.04 24.7267 82.9285 24.8179C82.7056 25.0004 82.4928 25.1625 82.28 25.2942C82.0671 25.426 81.8442 25.5375 81.6111 25.6388C81.5908 25.4462 81.53 25.1321 81.449 24.6963C81.3274 24.0883 81.2666 23.6525 81.2666 23.3891C81.2666 23.0344 81.3476 22.6898 81.5199 22.3453C81.6922 22.0007 81.9455 21.7068 82.2901 21.4433C81.6719 21.4636 81.2362 21.5346 80.9727 21.6562C80.8004 21.7372 80.7092 21.8386 80.7092 21.9602C80.7092 22.0007 80.7295 22.0717 80.77 22.173C80.8105 22.2642 80.8308 22.3351 80.8308 22.3757C80.8308 22.4365 80.8105 22.4871 80.7599 22.5378C80.7092 22.5885 80.6585 22.6087 80.5876 22.6087C80.4964 22.6087 80.4254 22.5682 80.3646 22.4871C80.3038 22.4061 80.2734 22.2946 80.2734 22.1527C80.2734 21.8791 80.395 21.6562 80.6383 21.494C81.0031 21.2305 81.6213 21.1191 82.513 21.1393Z" fill="url(#paint24_linear_4309_25167)"/>
<path d="M90.9843 20.9059L91.3187 20.835L90.9336 22.122C90.7816 22.6388 90.6397 23.2266 90.4978 23.8954C90.4269 24.2602 90.3864 24.4933 90.3864 24.5946C90.3864 24.696 90.4269 24.7568 90.5181 24.7568C90.5688 24.7568 90.66 24.7163 90.7816 24.6453C90.9944 24.5237 91.1971 24.3616 91.3896 24.1792L91.5518 24.3818C91.1667 24.7365 90.9133 24.9493 90.8018 25.0203C90.589 25.1723 90.3762 25.2838 90.1837 25.3547C90.0519 25.4054 89.9303 25.4256 89.8087 25.4256C89.7175 25.4256 89.6567 25.4054 89.606 25.3648C89.5655 25.3243 89.5351 25.2635 89.5351 25.1824C89.5351 25.1317 89.5452 25.0608 89.5756 24.9696L89.7783 24.2805C89.4844 24.6352 89.1399 24.9291 88.7345 25.1824C88.4812 25.3344 88.2582 25.4155 88.0556 25.4155C87.863 25.4155 87.711 25.3446 87.5995 25.2027C87.4577 25.0203 87.3867 24.7669 87.3867 24.4629C87.3867 24.0981 87.4779 23.7029 87.6705 23.257C87.863 22.8111 88.1164 22.4159 88.4406 22.051C88.7649 21.6862 89.0994 21.4227 89.4642 21.2505C89.7378 21.1187 90.0925 21.0579 90.5282 21.0579C90.6397 21.0579 90.7512 21.068 90.8627 21.0782L90.9843 20.9059ZM90.356 21.6862C90.1736 21.6457 90.0215 21.6254 89.8898 21.6254C89.5858 21.6254 89.3122 21.7065 89.0892 21.8788C88.8561 22.051 88.6535 22.3551 88.4508 22.7908C88.2582 23.2266 88.1569 23.6623 88.1569 24.0981C88.1569 24.3312 88.1974 24.4933 88.2785 24.5946C88.3596 24.696 88.4609 24.7467 88.5825 24.7467C88.8156 24.7467 89.069 24.6149 89.3426 24.3616C89.6162 24.1082 89.8087 23.7434 89.9303 23.2671L90.356 21.6862Z" fill="url(#paint25_linear_4309_25167)"/>
<path d="M91.8755 22.0309L91.7133 21.7876L92.0883 21.5343C92.4531 21.2809 92.7166 21.1188 92.8686 21.0479C92.9497 21.0073 93.0308 20.9871 93.1017 20.9871C93.1726 20.9871 93.2436 21.0276 93.3044 21.1087C93.6084 21.4836 93.8516 21.9903 94.0644 22.6389C94.2671 23.2773 94.3684 23.9056 94.3684 24.5035C94.3684 24.5846 94.3684 24.6961 94.3583 24.8582C94.9359 23.8043 95.2197 22.9632 95.2197 22.3349C95.2197 22.2031 95.1893 22.0309 95.1285 21.818C95.0677 21.5748 95.0373 21.4127 95.0373 21.3113C95.0373 21.21 95.0677 21.1289 95.1285 21.0681C95.1893 21.0073 95.2703 20.9668 95.3616 20.9668C95.4832 20.9668 95.5744 21.0175 95.6453 21.1087C95.7162 21.1999 95.7568 21.3316 95.7568 21.5039C95.7568 21.9397 95.6554 22.4869 95.4528 23.1456C95.2501 23.8043 94.9359 24.5035 94.5103 25.2534C94.0847 26.0034 93.6895 26.5708 93.3348 26.9357C92.9801 27.3005 92.6355 27.564 92.3011 27.7261C91.9667 27.8883 91.6525 27.9592 91.3587 27.9592C91.1357 27.9592 90.9634 27.9187 90.852 27.8376C90.7405 27.7565 90.6797 27.6552 90.6797 27.5437C90.6797 27.4424 90.7202 27.3512 90.8114 27.2802C90.9026 27.2093 91.0141 27.1687 91.1661 27.1687C91.2776 27.1687 91.4397 27.189 91.6424 27.2397C91.8552 27.2904 92.0072 27.3106 92.0782 27.3106C92.2809 27.3106 92.5038 27.2194 92.7369 27.0471C93.051 26.8141 93.3044 26.5303 93.4868 26.1959C93.6692 25.8615 93.7604 25.5372 93.7604 25.1926C93.7604 24.7163 93.6895 24.1488 93.5577 23.4901C93.4158 22.8314 93.2233 22.3247 92.97 21.9701C92.8483 21.7876 92.7065 21.6964 92.5646 21.6964C92.4227 21.6964 92.1896 21.8079 91.8755 22.0309Z" fill="url(#paint26_linear_4309_25167)"/>
<path d="M98.3086 20.9976C98.6126 20.9976 98.8457 21.0584 99.0078 21.1698C99.17 21.2914 99.2511 21.4232 99.2511 21.5752C99.2511 21.6664 99.2207 21.7475 99.1497 21.8184C99.0788 21.8893 98.9977 21.9197 98.8964 21.9197C98.8356 21.9197 98.7748 21.9096 98.7241 21.8792C98.6734 21.8488 98.6126 21.7779 98.5214 21.6664C98.3593 21.4434 98.187 21.332 98.0249 21.332C97.883 21.332 97.7614 21.3826 97.6499 21.4941C97.5384 21.6056 97.4878 21.7373 97.4878 21.8893C97.4878 22.0312 97.5182 22.163 97.5891 22.2947C97.66 22.4264 97.8323 22.6393 98.1059 22.9331C98.4809 23.3385 98.6734 23.7134 98.6734 24.0783C98.6734 24.4431 98.5214 24.7572 98.2174 25.0207C97.9134 25.2943 97.5182 25.4261 97.0317 25.4261C96.6264 25.4261 96.3224 25.345 96.1298 25.1829C95.9373 25.0207 95.8359 24.818 95.8359 24.5748C95.8359 24.4532 95.8765 24.362 95.9474 24.2809C96.0183 24.1999 96.1095 24.1593 96.221 24.1593C96.3122 24.1593 96.3933 24.1897 96.4642 24.2505C96.5352 24.3113 96.5656 24.3924 96.5656 24.4735C96.5656 24.5039 96.5656 24.5546 96.5554 24.6052C96.5554 24.6458 96.5554 24.6863 96.5554 24.7167C96.5554 24.8282 96.6061 24.9194 96.6973 25.0005C96.7885 25.0815 96.9101 25.1221 97.0723 25.1221C97.2547 25.1221 97.4168 25.0917 97.5587 25.0309C97.7006 24.9701 97.8019 24.8687 97.883 24.7471C97.9641 24.6154 98.0046 24.4938 98.0046 24.3722C98.0046 24.2505 97.9641 24.1289 97.8931 24.0073C97.8222 23.8857 97.66 23.683 97.3966 23.3993C97.0419 23.0041 96.8696 22.6291 96.8696 22.2643C96.8696 21.9299 97.0013 21.636 97.2749 21.3928C97.5486 21.1192 97.8931 20.9976 98.3086 20.9976Z" fill="url(#paint27_linear_4309_25167)"/>
<defs>
<linearGradient id="paint0_linear_4309_25167" x1="27.0478" y1="38.3182" x2="72.2783" y2="-15.5854" gradientUnits="userSpaceOnUse">
<stop stop-color="#FF5059"/>
<stop offset="1" stop-color="#BC2BB3"/>
</linearGradient>
<linearGradient id="paint1_linear_4309_25167" x1="27.0495" y1="38.318" x2="72.28" y2="-15.5856" gradientUnits="userSpaceOnUse">
<stop stop-color="#FF5059"/>
<stop offset="1" stop-color="#BC2BB3"/>
</linearGradient>
<linearGradient id="paint2_linear_4309_25167" x1="27.049" y1="38.3182" x2="72.2794" y2="-15.5854" gradientUnits="userSpaceOnUse">
<stop stop-color="#FF5059"/>
<stop offset="1" stop-color="#BC2BB3"/>
</linearGradient>
<linearGradient id="paint3_linear_4309_25167" x1="27.0468" y1="38.318" x2="72.2773" y2="-15.5856" gradientUnits="userSpaceOnUse">
<stop stop-color="#FF5059"/>
<stop offset="1" stop-color="#BC2BB3"/>
</linearGradient>
<linearGradient id="paint4_linear_4309_25167" x1="27.0477" y1="38.3182" x2="72.2782" y2="-15.5854" gradientUnits="userSpaceOnUse">
<stop stop-color="#FF5059"/>
<stop offset="1" stop-color="#BC2BB3"/>
</linearGradient>
<linearGradient id="paint5_linear_4309_25167" x1="27.046" y1="38.3183" x2="72.2765" y2="-15.5853" gradientUnits="userSpaceOnUse">
<stop stop-color="#FF5059"/>
<stop offset="1" stop-color="#BC2BB3"/>
</linearGradient>
<linearGradient id="paint6_linear_4309_25167" x1="27.0488" y1="38.3181" x2="72.2793" y2="-15.5855" gradientUnits="userSpaceOnUse">
<stop stop-color="#FF5059"/>
<stop offset="1" stop-color="#BC2BB3"/>
</linearGradient>
<linearGradient id="paint7_linear_4309_25167" x1="27.0467" y1="38.3181" x2="72.2771" y2="-15.5855" gradientUnits="userSpaceOnUse">
<stop stop-color="#FF5059"/>
<stop offset="1" stop-color="#BC2BB3"/>
</linearGradient>
<linearGradient id="paint8_linear_4309_25167" x1="41.9562" y1="44.5658" x2="77.0537" y2="2.73832" gradientUnits="userSpaceOnUse">
<stop stop-color="#FF5059"/>
<stop offset="1" stop-color="#BC2BB3"/>
</linearGradient>
<linearGradient id="paint9_linear_4309_25167" x1="41.9565" y1="44.5658" x2="77.054" y2="2.73832" gradientUnits="userSpaceOnUse">
<stop stop-color="#FF5059"/>
<stop offset="1" stop-color="#BC2BB3"/>
</linearGradient>
<linearGradient id="paint10_linear_4309_25167" x1="41.9569" y1="44.5658" x2="77.0544" y2="2.73832" gradientUnits="userSpaceOnUse">
<stop stop-color="#FF5059"/>
<stop offset="1" stop-color="#BC2BB3"/>
</linearGradient>
<linearGradient id="paint11_linear_4309_25167" x1="41.9569" y1="44.566" x2="77.0542" y2="2.73859" gradientUnits="userSpaceOnUse">
<stop stop-color="#FF5059"/>
<stop offset="1" stop-color="#BC2BB3"/>
</linearGradient>
<linearGradient id="paint12_linear_4309_25167" x1="41.9551" y1="44.5661" x2="77.0524" y2="2.7387" gradientUnits="userSpaceOnUse">
<stop stop-color="#FF5059"/>
<stop offset="1" stop-color="#BC2BB3"/>
</linearGradient>
<linearGradient id="paint13_linear_4309_25167" x1="41.9557" y1="44.5661" x2="77.053" y2="2.73867" gradientUnits="userSpaceOnUse">
<stop stop-color="#FF5059"/>
<stop offset="1" stop-color="#BC2BB3"/>
</linearGradient>
<linearGradient id="paint14_linear_4309_25167" x1="41.9545" y1="44.5658" x2="77.0518" y2="2.73846" gradientUnits="userSpaceOnUse">
<stop stop-color="#FF5059"/>
<stop offset="1" stop-color="#BC2BB3"/>
</linearGradient>
<linearGradient id="paint15_linear_4309_25167" x1="41.9565" y1="44.5657" x2="77.0538" y2="2.73825" gradientUnits="userSpaceOnUse">
<stop stop-color="#FF5059"/>
<stop offset="1" stop-color="#BC2BB3"/>
</linearGradient>
<linearGradient id="paint16_linear_4309_25167" x1="41.958" y1="44.566" x2="77.0554" y2="2.73862" gradientUnits="userSpaceOnUse">
<stop stop-color="#FF5059"/>
<stop offset="1" stop-color="#BC2BB3"/>
</linearGradient>
<linearGradient id="paint17_linear_4309_25167" x1="41.9574" y1="44.5657" x2="77.0548" y2="2.73828" gradientUnits="userSpaceOnUse">
<stop stop-color="#FF5059"/>
<stop offset="1" stop-color="#BC2BB3"/>
</linearGradient>
<linearGradient id="paint18_linear_4309_25167" x1="41.9543" y1="44.5661" x2="77.0516" y2="2.73866" gradientUnits="userSpaceOnUse">
<stop stop-color="#FF5059"/>
<stop offset="1" stop-color="#BC2BB3"/>
</linearGradient>
<linearGradient id="paint19_linear_4309_25167" x1="41.9548" y1="44.5659" x2="77.0521" y2="2.73849" gradientUnits="userSpaceOnUse">
<stop stop-color="#FF5059"/>
<stop offset="1" stop-color="#BC2BB3"/>
</linearGradient>
<linearGradient id="paint20_linear_4309_25167" x1="41.957" y1="44.5657" x2="77.0544" y2="2.73831" gradientUnits="userSpaceOnUse">
<stop stop-color="#FF5059"/>
<stop offset="1" stop-color="#BC2BB3"/>
</linearGradient>
<linearGradient id="paint21_linear_4309_25167" x1="41.9542" y1="44.5657" x2="77.0515" y2="2.73831" gradientUnits="userSpaceOnUse">
<stop stop-color="#FF5059"/>
<stop offset="1" stop-color="#BC2BB3"/>
</linearGradient>
<linearGradient id="paint22_linear_4309_25167" x1="41.9544" y1="44.5657" x2="77.0518" y2="2.73823" gradientUnits="userSpaceOnUse">
<stop stop-color="#FF5059"/>
<stop offset="1" stop-color="#BC2BB3"/>
</linearGradient>
<linearGradient id="paint23_linear_4309_25167" x1="41.9553" y1="44.5661" x2="77.0526" y2="2.73872" gradientUnits="userSpaceOnUse">
<stop stop-color="#FF5059"/>
<stop offset="1" stop-color="#BC2BB3"/>
</linearGradient>
<linearGradient id="paint24_linear_4309_25167" x1="41.9579" y1="44.566" x2="77.0553" y2="2.7386" gradientUnits="userSpaceOnUse">
<stop stop-color="#FF5059"/>
<stop offset="1" stop-color="#BC2BB3"/>
</linearGradient>
<linearGradient id="paint25_linear_4309_25167" x1="41.9572" y1="44.5657" x2="77.0546" y2="2.73829" gradientUnits="userSpaceOnUse">
<stop stop-color="#FF5059"/>
<stop offset="1" stop-color="#BC2BB3"/>
</linearGradient>
<linearGradient id="paint26_linear_4309_25167" x1="41.9567" y1="44.5657" x2="77.054" y2="2.73836" gradientUnits="userSpaceOnUse">
<stop stop-color="#FF5059"/>
<stop offset="1" stop-color="#BC2BB3"/>
</linearGradient>
<linearGradient id="paint27_linear_4309_25167" x1="41.9548" y1="44.5661" x2="77.0522" y2="2.73876" gradientUnits="userSpaceOnUse">
<stop stop-color="#FF5059"/>
<stop offset="1" stop-color="#BC2BB3"/>
</linearGradient>
</defs>
</svg>
