<svg width="21" height="20" viewBox="0 0 21 20" fill="none" xmlns="http://www.w3.org/2000/svg">
<path d="M15.2771 13.8473L18.8463 17.4157L17.6671 18.5948L14.0988 15.0257C12.7711 16.09 11.1196 16.6689 9.41797 16.6665C5.27797 16.6665 1.91797 13.3065 1.91797 9.1665C1.91797 5.0265 5.27797 1.6665 9.41797 1.6665C13.558 1.6665 16.918 5.0265 16.918 9.1665C16.9204 10.8682 16.3415 12.5196 15.2771 13.8473ZM13.6055 13.229C14.6628 12.1413 15.2534 10.6835 15.2513 9.1665C15.2513 5.944 12.6405 3.33317 9.41797 3.33317C6.19547 3.33317 3.58464 5.944 3.58464 9.1665C3.58464 12.389 6.19547 14.9998 9.41797 14.9998C10.9349 15.002 12.3927 14.4114 13.4805 13.354L13.6055 13.229Z" fill="#7E7E7E"/>
</svg>
