<svg width="24" height="24" viewBox="0 0 24 24" fill="none" xmlns="http://www.w3.org/2000/svg">
<path fill-rule="evenodd" clip-rule="evenodd" d="M5.57244 4.691C4.73944 5.383 4.51944 6.553 4.08044 8.894L3.33044 12.894C2.71344 16.186 2.40544 17.832 3.30444 18.916C4.20444 20 5.87844 20 9.22844 20H14.7684C18.1184 20 19.7924 20 20.6924 18.916C21.5924 17.832 21.2824 16.186 20.6664 12.894L19.9164 8.894C19.4764 6.554 19.2574 5.383 18.4244 4.691C17.5914 4 16.4004 4 14.0184 4H9.97844C7.59644 4 6.40544 4 5.57244 4.691ZM9.87644 7.751C10.0315 8.19004 10.3189 8.57018 10.699 8.83907C11.0792 9.10795 11.5333 9.25234 11.9989 9.25234C12.4646 9.25234 12.9187 9.10795 13.2988 8.83907C13.679 8.57018 13.9664 8.19004 14.1214 7.751C14.1914 7.5685 14.3298 7.4205 14.5072 7.33853C14.6846 7.25656 14.8871 7.24708 15.0714 7.31213C15.2557 7.37717 15.4073 7.51159 15.494 7.68676C15.5807 7.86193 15.5955 8.06402 15.5354 8.25C15.2769 8.98134 14.798 9.61454 14.1646 10.0624C13.5313 10.5102 12.7746 10.7507 11.9989 10.7507C11.2232 10.7507 10.4666 10.5102 9.83327 10.0624C9.19992 9.61454 8.721 8.98134 8.46244 8.25C8.42773 8.15672 8.41193 8.05747 8.41596 7.95803C8.41999 7.85859 8.44378 7.76094 8.48593 7.67078C8.52808 7.58062 8.58775 7.49975 8.66147 7.43289C8.73519 7.36602 8.82148 7.3145 8.91531 7.28132C9.00915 7.24814 9.10864 7.23397 9.20801 7.23963C9.30737 7.24529 9.40461 7.27067 9.49407 7.31429C9.58353 7.35792 9.66341 7.41891 9.72905 7.49371C9.7947 7.56851 9.84481 7.65664 9.87644 7.751Z" fill="white"/>
</svg>
