<svg width="52" height="52" viewBox="0 0 52 52" fill="none" xmlns="http://www.w3.org/2000/svg">
<path fill-rule="evenodd" clip-rule="evenodd" d="M12.0775 10.1637C10.2727 11.663 9.79603 14.198 8.84487 19.2702L7.21987 27.9368C5.88303 35.0695 5.2157 38.6358 7.16353 40.9845C9.11353 43.3332 12.7405 43.3332 19.9989 43.3332H32.0022C39.2605 43.3332 42.8875 43.3332 44.8375 40.9845C46.7875 38.6358 46.1159 35.0695 44.7812 27.9368L43.1562 19.2702C42.2029 14.2002 41.7284 11.663 39.9235 10.1637C38.1187 8.6665 35.5382 8.6665 30.3772 8.6665H21.6239C16.4629 8.6665 13.8824 8.6665 12.0775 10.1637ZM21.4029 16.7937C21.7388 17.7449 22.3615 18.5686 23.1852 19.1511C24.0088 19.7337 24.9928 20.0466 26.0016 20.0466C27.0104 20.0466 27.9945 19.7337 28.8181 19.1511C29.6417 18.5686 30.2644 17.7449 30.6004 16.7937C30.7519 16.3982 31.0518 16.0776 31.4362 15.9C31.8206 15.7224 32.2592 15.7019 32.6585 15.8428C33.0579 15.9837 33.3864 16.2749 33.5742 16.6545C33.762 17.034 33.7942 17.4719 33.664 17.8748C33.1038 19.4594 32.0662 20.8313 30.6939 21.8017C29.3216 22.772 27.6823 23.2931 26.0016 23.2931C24.3209 23.2931 22.6816 22.772 21.3093 21.8017C19.9371 20.8313 18.8994 19.4594 18.3392 17.8748C18.264 17.6727 18.2298 17.4577 18.2385 17.2422C18.2472 17.0268 18.2988 16.8152 18.3901 16.6199C18.4814 16.4245 18.6107 16.2493 18.7704 16.1044C18.9302 15.9596 19.1171 15.8479 19.3204 15.776C19.5237 15.7041 19.7393 15.6734 19.9546 15.6857C20.1699 15.698 20.3806 15.753 20.5744 15.8475C20.7682 15.942 20.9413 16.0741 21.0835 16.2362C21.2258 16.3983 21.3343 16.5892 21.4029 16.7937Z" fill="white"/>
</svg>
