<svg width="18" height="16" viewBox="0 0 18 16" fill="none" xmlns="http://www.w3.org/2000/svg">
<path d="M6.95887 6.65186V3.17139H2.23828V0.120605H15.4295V3.21436H10.7089V6.65186H6.95887Z" fill="#00A478"/>
<path fill-rule="evenodd" clip-rule="evenodd" d="M0.207031 7.03857C0.207031 5.87842 4.00115 4.93311 8.72174 4.93311C13.4423 4.93311 17.2364 5.87842 17.2364 7.03857C17.2364 8.19873 13.4423 9.14404 8.72174 9.14404C4.00115 9.14404 0.207031 8.19873 0.207031 7.03857ZM16.5306 7.03857C16.2217 6.60889 13.6629 5.27686 8.72174 5.27686C3.78056 5.27686 1.22174 6.56592 0.912914 7.03857C1.22174 7.46826 3.78056 8.11279 8.72174 8.11279C13.707 8.11279 16.2217 7.46826 16.5306 7.03857Z" fill="#00A478"/>
<path d="M10.7059 7.72607V5.31982C10.0882 5.27686 9.42647 5.23389 8.76471 5.23389C8.14706 5.23389 7.57353 5.23389 7 5.27686V7.68311C7.52941 7.68311 8.14706 7.72607 8.76471 7.72607C9.42647 7.76904 10.0882 7.76904 10.7059 7.72607Z" fill="#00A478"/>
<path d="M8.72174 9.14404C8.10409 9.14404 7.53056 9.14404 6.95703 9.10107V15.5034H10.6629V9.05811C10.0453 9.10107 9.3835 9.14404 8.72174 9.14404Z" fill="#00A478"/>
</svg>
